SplineFontDB: 3.0
FontName: cAcScribbles-Regular
FullName: cAc Scribbles Regular
FamilyName: cAc Scribbles
Weight: Regular
Copyright: Copyright (c) 2018 Chad A. Carino (https://github.com/bangerkuwranger/cacscribbles-font)
Version: 001.015
ItalicAngle: 0
UnderlinePosition: -200
UnderlineWidth: 50
Ascent: 800
Descent: 200
InvalidEm: 0
sfntRevision: 0x00010000
woffMajor: 1
woffMinor: 15

StartChar: .notdef
Encoding: 65536 -1 0
Width: 364
Flags: W
LayerCount: 2
Fore
SplineSet
33 0 m 1,0,-1
 33 666 l 1,1,-1
 298 666 l 1,2,-1
 298 0 l 1,3,-1
 33 0 l 1,0,-1
66 33 m 1,4,-1
 265 33 l 1,5,-1
 265 633 l 1,6,-1
 66 633 l 1,7,-1
 66 33 l 1,4,-1
EndSplineSet
Validated: 1
EndChar

StartChar: exclam
Encoding: 33 33 5
Width: 401
GlyphClass: 2
Flags: W
LayerCount: 2
Fore
SplineSet
202 101 m 0,0,1
 197 114 197 114 188 117 c 0,2,3
 180 120 180 120 180 117 c 2,4,-1
 182 102 l 2,5,6
 182 98 182 98 183 93 c 128,-1,7
 184 88 184 88 184 85 c 2,8,-1
 185 82 l 1,9,10
 191 83 191 83 197 85 c 0,11,12
 205 88 205 88 205.5 90 c 128,-1,13
 206 92 206 92 202 101 c 0,0,1
165 176 m 0,14,15
 171 181 171 181 182 181 c 128,-1,16
 193 181 193 181 214 177 c 0,17,18
 241 172 241 172 244 166 c 0,19,20
 246 162 246 162 252 124 c 0,21,22
 255 105 255 105 255 93 c 0,23,24
 255 83 255 83 250 55 c 0,25,26
 240 3 240 3 219 -22 c 0,27,28
 211 -32 211 -32 205.5 -34 c 128,-1,29
 200 -36 200 -36 186 -36 c 0,30,31
 132 -36 132 -36 99 24 c 0,32,33
 91 40 91 40 91 53 c 0,34,35
 91 63 91 63 92 71 c 0,36,37
 95 104 95 104 111 133 c 0,38,39
 119 149 119 149 119 156 c 0,40,41
 119 166 119 166 138 168 c 0,42,43
 160 172 160 172 165 176 c 0,14,15
239 526 m 0,44,45
 240 530 240 530 237.5 531 c 128,-1,46
 235 532 235 532 222 532 c 2,47,-1
 203 532 l 1,48,-1
 205 520 l 2,49,50
 208 510 208 510 210 475 c 0,51,52
 212 445 212 445 216 447 c 0,53,54
 220 451 220 451 239 526 c 0,44,45
268 623 m 0,55,56
 268 629 268 629 277.5 646.5 c 128,-1,57
 287 664 287 664 287 671 c 0,58,59
 287 684 287 684 271 684 c 0,60,61
 262 684 262 684 244 679 c 0,62,63
 227 674 227 674 209 674 c 0,64,65
 198 674 198 674 192 675 c 2,66,-1
 178 675 l 2,67,68
 159 675 159 675 157 673 c 1,69,70
 160 671 160 671 165 670 c 0,71,72
 173 670 173 670 185 666 c 0,73,74
 196 662 196 662 196 645 c 2,75,-1
 196 629 l 1,76,-1
 178 629 l 2,77,78
 161 629 161 629 158 623 c 0,79,80
 157 621 157 621 157 617 c 0,81,82
 157 609 157 609 187 609 c 0,83,84
 216 609 216 609 224 600 c 0,85,86
 231 591 231 591 231 583 c 0,87,88
 230 575 230 575 210 574 c 0,89,90
 196 573 196 573 193.5 571.5 c 128,-1,91
 191 570 191 570 192 562 c 0,92,93
 193 556 193 556 195 553.5 c 128,-1,94
 197 551 197 551 202 552 c 0,95,96
 235 556 235 556 242 558 c 128,-1,97
 249 560 249 560 252 568 c 0,98,99
 256 578 256 578 256 582 c 0,100,101
 256 587 256 587 262 599 c 128,-1,102
 268 611 268 611 268 623 c 0,55,56
95 586 m 0,103,104
 95 590 95 590 87 607 c 128,-1,105
 79 624 79 624 79 628 c 0,106,107
 79 634 79 634 70 654 c 128,-1,108
 61 674 61 674 60 678 c 0,109,110
 57 690 57 690 54 690 c 0,111,112
 52 690 52 690 48 706 c 128,-1,113
 44 722 44 722 44 731 c 0,114,115
 44 732 44 732 44 734 c 2,116,-1
 45 735 l 2,117,118
 46 739 46 739 53 739 c 0,119,120
 65 739 65 739 83 724 c 0,121,122
 99 710 99 710 120 709 c 2,123,-1
 137 709 l 2,124,125
 173 709 173 709 226 714 c 0,126,127
 262 718 262 718 271 720 c 128,-1,128
 280 722 280 722 280 727 c 0,129,130
 280 730 280 730 279 732 c 0,131,132
 276 741 276 741 281 743 c 0,133,134
 287 746 287 746 302 746 c 0,135,136
 319 746 319 746 331 742 c 0,137,138
 341 738 341 738 349 731 c 0,139,140
 355 725 355 725 355 716 c 0,141,142
 355 702 355 702 343 699 c 0,143,144
 333 696 333 696 331 683 c 0,145,146
 327 643 327 643 312.5 592 c 128,-1,147
 298 541 298 541 294 506 c 0,148,149
 291 488 291 488 285 469.5 c 128,-1,150
 279 451 279 451 276 434 c 0,151,152
 272 412 272 412 268 404.5 c 128,-1,153
 264 397 264 397 254 395 c 0,154,155
 246 394 246 394 245 377 c 0,156,157
 243 360 243 360 233 351 c 0,158,159
 224 342 224 342 224 330 c 128,-1,160
 224 318 224 318 220 318 c 0,161,162
 219 318 219 318 216 317.5 c 128,-1,163
 213 317 213 317 212 317 c 0,164,165
 207 317 207 317 202 308 c 0,166,167
 196 299 196 299 187 299 c 0,168,169
 179 299 179 299 167 305 c 0,170,171
 148 315 148 315 145 353 c 0,172,173
 143 380 143 380 129 450.5 c 128,-1,174
 115 521 115 521 114 528 c 0,175,176
 111 546 111 546 102 564 c 0,177,178
 95 578 95 578 95 586 c 0,103,104
EndSplineSet
Validated: 1
Substitution2: "Single Substitution lookup 3 subtable" exclam.ss01
Substitution2: "Single Substitution lookup 2 subtable" exclam.ss01
EndChar

StartChar: quotedbl
Encoding: 34 34 6
Width: 376
GlyphClass: 2
Flags: W
LayerCount: 2
Fore
SplineSet
78 660 m 0,0,1
 78 654 78 654 79 654 c 2,2,-1
 80 666 l 1,3,-1
 80 667 l 2,4,5
 79 663 79 663 78 660 c 0,0,1
100 708 m 0,6,7
 104 712 104 712 113 712 c 0,8,9
 128 712 128 712 135 705 c 0,10,11
 153 684 153 684 153 620 c 0,12,13
 153 589 153 589 151 571 c 0,14,15
 147 525 147 525 147 477 c 2,16,-1
 146 426 l 1,17,-1
 136 421 l 2,18,19
 132 419 132 419 127.5 418.5 c 128,-1,20
 123 418 123 418 122 419 c 0,21,22
 117 421 117 421 109.5 436.5 c 128,-1,23
 102 452 102 452 100 468 c 0,24,25
 99 481 99 481 89 511.5 c 128,-1,26
 79 542 79 542 78 554 c 0,27,28
 76 575 76 575 65 580 c 0,29,30
 60 583 60 583 56.5 587.5 c 128,-1,31
 53 592 53 592 49 600.5 c 128,-1,32
 45 609 45 609 44 611 c 0,33,34
 42 614 42 614 42 629 c 0,35,36
 42 662 42 662 49 676 c 0,37,38
 67 705 67 705 86 705 c 0,39,40
 98 705 98 705 100 708 c 0,6,7
267 733 m 2,41,-1
 265 747 l 1,42,-1
 285 745 l 2,43,44
 320 741 320 741 328 724 c 0,45,46
 338 705 338 705 326 705 c 0,47,48
 319 705 319 705 321 690 c 0,49,50
 323 674 323 674 326 669 c 0,51,52
 328 663 328 663 328 657 c 0,53,54
 328 636 328 636 321 625 c 0,55,56
 312 611 312 611 303 534 c 0,57,58
 296 483 296 483 289 466 c 0,59,60
 287 461 287 461 283.5 457 c 128,-1,61
 280 453 280 453 279 454 c 0,62,63
 275 456 275 456 274 453 c 0,64,65
 272 450 272 450 262 449.5 c 128,-1,66
 252 449 252 449 250 452 c 0,67,68
 248 456 248 456 248 559 c 0,69,70
 248 665 248 665 255 691 c 0,71,72
 262 719 262 719 266 719 c 0,73,74
 269 719 269 719 267 733 c 2,41,-1
EndSplineSet
Validated: 1
Substitution2: "Single Substitution lookup 3 subtable" quotedbl.ss01
Substitution2: "Single Substitution lookup 2 subtable" quotedbl.ss01
EndChar

StartChar: numbersign
Encoding: 35 35 7
Width: 865
GlyphClass: 2
Flags: W
LayerCount: 2
Fore
SplineSet
253 170 m 128,-1,1
 253 172 253 172 251 172 c 128,-1,2
 249 172 249 172 249 170 c 128,-1,3
 249 168 249 168 251 168 c 128,-1,0
 253 168 253 168 253 170 c 128,-1,1
414 205 m 0,4,5
 414 208 414 208 408 208 c 0,6,7
 404 208 404 208 374 203 c 0,8,9
 344 197 344 197 335 197 c 0,10,11
 322 197 322 197 322 191 c 128,-1,12
 322 185 322 185 345 185 c 0,13,14
 370 185 370 185 392 190.5 c 128,-1,15
 414 196 414 196 414 205 c 0,4,5
499 225 m 0,16,17
 499 229 499 229 494 229 c 0,18,19
 487 229 487 229 482 220 c 0,20,21
 482 218 482 218 483 217 c 0,22,23
 499 217 499 217 499 225 c 0,16,17
429 278 m 2,24,25
 438 341 438 341 438 344 c 0,26,27
 438 354 438 354 435 354 c 0,28,29
 431 354 431 354 431 350 c 128,-1,30
 431 346 431 346 412 346 c 0,31,32
 396 346 396 346 369 342 c 128,-1,33
 342 338 342 338 339 336 c 0,34,35
 337 334 337 334 333 287.5 c 128,-1,36
 329 241 329 241 329 224 c 0,37,38
 329 216 329 216 338 219 c 0,39,40
 340 220 340 220 360.5 222.5 c 128,-1,41
 381 225 381 225 382 228 c 0,42,43
 384 231 384 231 403 235 c 2,44,-1
 422 237 l 1,45,-1
 429 278 l 2,24,25
441 379 m 0,46,47
 438 381 438 381 428 382 c 0,48,49
 417 382 417 382 406.5 379 c 128,-1,50
 396 376 396 376 396 373 c 0,51,52
 396 371 396 371 398 371 c 0,53,54
 399 370 399 370 405 370 c 0,55,56
 436 370 436 370 441 379 c 0,46,47
612 420 m 0,57,58
 606 418 606 418 581.5 415 c 128,-1,59
 557 412 557 412 540 407 c 128,-1,60
 523 402 523 402 523 394 c 0,61,62
 523 388 523 388 531 392 c 0,63,64
 532 392 532 392 547.5 395 c 128,-1,65
 563 398 563 398 577.5 401.5 c 128,-1,66
 592 405 592 405 592 406 c 0,67,68
 592 408 592 408 601.5 410.5 c 128,-1,69
 611 413 611 413 621 415 c 128,-1,70
 631 417 631 417 632 418 c 0,71,72
 639 422 639 422 628 422 c 0,73,74
 625 422 625 422 619 421 c 128,-1,75
 613 420 613 420 612 420 c 0,57,58
335 611 m 2,76,-1
 337 613 l 2,77,78
 340 617 340 617 349 613 c 0,79,80
 351 612 351 612 352 612 c 0,81,82
 360 609 360 609 362 602 c 128,-1,83
 364 595 364 595 359 590 c 0,84,85
 352 581 352 581 348 455 c 1,86,-1
 348 437 l 1,87,-1
 398 438 l 2,88,89
 449 440 449 440 452 444 c 128,-1,90
 455 448 455 448 455 467 c 0,91,92
 455 475 455 475 474 570 c 0,93,94
 476 586 476 586 486 587 c 2,95,-1
 490 587 l 2,96,97
 507 587 507 587 507 562 c 0,98,99
 507 550 507 550 509 550 c 0,100,101
 513 550 513 550 519 572 c 0,102,103
 530 616 530 616 539 616 c 0,104,105
 543 616 543 616 550 605 c 0,106,107
 557 595 557 595 552 587 c 0,108,109
 547 578 547 578 544 553 c 0,110,111
 531 468 531 468 531 444 c 0,112,113
 531 440 531 440 536 440 c 0,114,115
 555 440 555 440 586 447 c 0,116,117
 616 454 616 454 624 455 c 0,118,119
 631 457 631 457 658 457 c 0,120,121
 751 457 751 457 773 445 c 0,122,123
 781 441 781 441 788.5 432 c 128,-1,124
 796 423 796 423 796 418 c 0,125,126
 796 415 796 415 794 415 c 0,127,128
 788 412 788 412 784 408 c 0,129,130
 778 402 778 402 736 402 c 0,131,132
 693 402 693 402 693 399 c 0,133,134
 693 398 693 398 668.5 394 c 128,-1,135
 644 390 644 390 619.5 386 c 128,-1,136
 595 382 595 382 594 382 c 0,137,138
 577 377 577 377 547 374 c 2,139,-1
 512 369 l 1,140,-1
 508 355 l 2,141,142
 506 347 506 347 496.5 317.5 c 128,-1,143
 487 288 487 288 485 274 c 0,144,145
 482 254 482 254 486 254 c 0,146,147
 488 254 488 254 492 255 c 0,148,149
 502 258 502 258 524 258 c 0,150,151
 562 258 562 258 576 251 c 0,152,153
 592 244 592 244 592 241 c 0,154,155
 592 236 592 236 579 224.5 c 128,-1,156
 566 213 566 213 561 213 c 0,157,158
 553 213 553 213 550 209 c 0,159,160
 550 208 550 208 552.5 207 c 128,-1,161
 555 206 555 206 561 207 c 0,162,163
 565 208 565 208 576 209 c 128,-1,164
 587 210 587 210 590 210 c 0,165,166
 622 213 622 213 642 221 c 0,167,168
 651 225 651 225 689 233 c 128,-1,169
 727 241 727 241 737 241 c 0,170,171
 746 241 746 241 769 247.5 c 128,-1,172
 792 254 792 254 799 255 c 0,173,174
 813 257 813 257 818 249 c 0,175,176
 820 245 820 245 820 242 c 0,177,178
 820 227 820 227 782 221 c 0,179,180
 756 218 756 218 754 213 c 0,181,182
 752 209 752 209 741 209 c 128,-1,183
 730 209 730 209 722 205 c 0,184,185
 711 199 711 199 646.5 185.5 c 128,-1,186
 582 172 582 172 564 172 c 0,187,188
 548 172 548 172 542 166 c 0,189,190
 535 159 535 159 535 165 c 0,191,192
 535 170 535 170 533 166 c 0,193,194
 532 160 532 160 503 160 c 0,195,196
 475 160 475 160 475 166 c 0,197,198
 475 171 475 171 469 161 c 0,199,200
 466 154 466 154 465 150 c 0,201,202
 452 85 452 85 447 78 c 0,203,204
 438 67 438 67 436 -13 c 0,205,206
 435 -36 435 -36 435 -58 c 0,207,208
 435 -61 435 -61 418 -61 c 0,209,210
 385 -61 385 -61 382 -55 c 0,211,212
 379 -52 379 -52 379 -39 c 0,213,214
 379 -16 379 -16 388 19 c 0,215,216
 390 28 390 28 392.5 40 c 128,-1,217
 395 52 395 52 397 60.5 c 128,-1,218
 399 69 399 69 402 78 c 0,219,220
 404 86 404 86 404 98 c 0,221,222
 404 101 404 101 403.5 107.5 c 128,-1,223
 403 114 403 114 403 117 c 2,224,-1
 402 144 l 1,225,-1
 385 144 l 2,226,227
 368 144 368 144 340 137 c 2,228,-1
 312 129 l 1,229,-1
 311 109 l 2,230,231
 311 92 311 92 306 82 c 0,232,233
 302 73 302 73 295.5 35 c 128,-1,234
 289 -3 289 -3 287 -32 c 0,235,236
 283 -66 283 -66 279 -72 c 0,237,238
 276 -77 276 -77 268 -77 c 0,239,240
 252 -77 252 -77 244 -64 c 128,-1,241
 236 -51 236 -51 236 5 c 0,242,243
 236 40 236 40 240 65 c 0,244,245
 244 97 244 97 244 100 c 128,-1,246
 244 103 244 103 235 100 c 0,247,248
 234 100 234 100 232.5 99.5 c 128,-1,249
 231 99 231 99 230 99 c 0,250,251
 217 94 217 94 211 102 c 0,252,253
 198 122 198 122 214 128 c 0,254,255
 221 131 221 131 221 131 c 129,-1,256
 221 131 221 131 213 132 c 2,257,-1
 197 132 l 2,258,259
 151 132 151 132 122 126 c 0,260,261
 103 123 103 123 94 123 c 0,262,263
 89 123 89 123 89 124 c 0,264,265
 88 129 88 129 81 128 c 128,-1,266
 74 127 74 127 70 122 c 0,267,268
 65 115 65 115 56 115 c 2,269,-1
 54 115 l 2,270,271
 44 115 44 115 44 124 c 128,-1,272
 44 133 44 133 54 143 c 0,273,274
 63 152 63 152 88 155 c 0,275,276
 112 157 112 157 112 160 c 0,277,278
 112 169 112 169 150 175 c 0,279,280
 165 177 165 177 165 180 c 128,-1,281
 165 183 165 183 172.5 185.5 c 128,-1,282
 180 188 180 188 192 190 c 2,283,-1
 203 193 l 2,284,285
 205 194 205 194 221.5 197 c 128,-1,286
 238 200 238 200 250 204 c 128,-1,287
 262 208 262 208 263 212 c 0,288,289
 266 219 266 219 271.5 259 c 128,-1,290
 277 299 277 299 277 312 c 2,291,-1
 277 327 l 1,292,-1
 236 324 l 2,293,294
 193 320 193 320 175 317 c 0,295,296
 155 313 155 313 136 313 c 0,297,298
 106 313 106 313 106 326 c 0,299,300
 106 327 106 327 108 333 c 0,301,302
 113 343 113 343 136 343 c 0,303,304
 138 343 138 343 142.5 342.5 c 128,-1,305
 147 342 147 342 150 342 c 2,306,-1
 152 342 l 2,307,308
 165 342 165 342 189 348 c 128,-1,309
 213 354 213 354 213 358 c 128,-1,310
 213 362 213 362 220 362 c 0,311,312
 226 362 226 362 223 365 c 128,-1,313
 220 368 220 368 201 371.5 c 128,-1,314
 182 375 182 375 172 375 c 2,315,-1
 168 375 l 2,316,317
 163 374 163 374 162.5 372.5 c 128,-1,318
 162 371 162 371 167 364 c 0,319,320
 171 357 171 357 171 354 c 0,321,322
 171 350 171 350 168 350 c 0,323,324
 159 350 159 350 152 365 c 0,325,326
 150 371 150 371 139 385 c 0,327,328
 130 394 130 394 119 394 c 0,329,330
 109 394 109 394 106 387 c 0,331,332
 105 385 105 385 104.5 384 c 128,-1,333
 104 383 104 383 102.5 383.5 c 128,-1,334
 101 384 101 384 99 386 c 128,-1,335
 97 388 97 388 93 392 c 0,336,337
 85 402 85 402 85 408 c 0,338,339
 85 421 85 421 112 424 c 0,340,341
 134 427 134 427 137 421 c 0,342,343
 140 417 140 417 174 417 c 0,344,345
 213 417 213 417 218 422 c 0,346,347
 222 426 222 426 253 426 c 128,-1,348
 284 426 284 426 288 430 c 0,349,350
 296 436 296 436 304 545 c 0,351,352
 306 573 306 573 318 585 c 128,-1,353
 330 597 330 597 330 601 c 0,354,355
 330 606 330 606 335 611 c 2,76,-1
EndSplineSet
Validated: 1
EndChar

StartChar: dollar
Encoding: 36 36 8
Width: 756
GlyphClass: 2
Flags: W
LayerCount: 2
Fore
SplineSet
702 631 m 0,0,1
 711 640 711 640 711 624 c 0,2,3
 711 615 711 615 705 615 c 0,4,5
 701 615 701 615 699.5 621.5 c 128,-1,6
 698 628 698 628 702 631 c 0,0,1
117 36 m 128,-1,8
 117 39 117 39 109.5 39 c 128,-1,9
 102 39 102 39 96 37 c 0,10,11
 93 36 93 36 92 34 c 128,-1,12
 91 32 91 32 91 30 c 128,-1,13
 91 28 91 28 92.5 26.5 c 128,-1,14
 94 25 94 25 97 25 c 0,15,16
 103 25 103 25 110 29 c 128,-1,7
 117 33 117 33 117 36 c 128,-1,8
293 289 m 0,17,18
 293 292 293 292 280 292 c 0,19,20
 263 292 263 292 263 288 c 0,21,22
 263 280 263 280 256 236 c 0,23,24
 247 184 247 184 247 160 c 0,25,26
 247 158 247 158 248 156 c 2,27,-1
 248 154 l 2,28,29
 249 151 249 151 251 152 c 128,-1,30
 253 153 253 153 259 158 c 0,31,32
 268 167 268 167 280 169 c 0,33,34
 296 172 296 172 328 207.5 c 128,-1,35
 360 243 360 243 363 261 c 0,36,37
 365 268 365 268 363 270.5 c 128,-1,38
 361 273 361 273 354 276 c 0,39,40
 342 281 342 281 317 283 c 0,41,42
 293 285 293 285 293 289 c 0,17,18
241 466 m 2,43,44
 241 496 241 496 240.5 510 c 128,-1,45
 240 524 240 524 239 533 c 128,-1,46
 238 542 238 542 236.5 543.5 c 128,-1,47
 235 545 235 545 232 545 c 2,48,-1
 230 545 l 2,49,50
 212 545 212 545 180 508 c 0,51,52
 172 500 172 500 172 493 c 0,53,54
 172 491 172 491 166 479 c 0,55,56
 160 469 160 469 160 456 c 0,57,58
 160 446 160 446 165 428 c 0,59,60
 175 392 175 392 191 377 c 0,61,62
 204 366 204 366 208 366 c 0,63,64
 213 366 213 366 222 377 c 128,-1,65
 231 388 231 388 236 388 c 128,-1,66
 241 388 241 388 241 429 c 2,67,-1
 241 466 l 2,43,44
158 560 m 0,68,69
 162 560 162 560 166 564 c 128,-1,70
 170 568 170 568 174 568 c 0,71,72
 181 568 181 568 191 573 c 0,73,74
 205 579 205 579 223 579 c 2,75,-1
 243 580 l 1,76,-1
 245 606 l 2,77,78
 252 679 252 679 255 692 c 0,79,80
 257 697 257 697 268 695 c 0,81,82
 283 694 283 694 283 671 c 0,83,84
 283 667 283 667 281 641 c 0,85,86
 280 628 280 628 280 603 c 2,87,-1
 280 594 l 1,88,-1
 282 582 l 1,89,-1
 309 585 l 2,90,91
 311 585 311 585 315.5 585.5 c 128,-1,92
 320 586 320 586 322 586 c 0,93,94
 369 586 369 586 383 565 c 0,95,96
 388 557 388 557 402 550 c 0,97,98
 415 543 415 543 427 531.5 c 128,-1,99
 439 520 439 520 439 508 c 0,100,101
 439 488 439 488 427 488 c 0,102,103
 421 488 421 488 407 496 c 0,104,105
 398 501 398 501 384 494 c 0,106,107
 368 487 368 487 361 487 c 0,108,109
 352 487 352 487 345 493 c 0,110,111
 338 498 338 498 337.5 502.5 c 128,-1,112
 337 507 337 507 343 519 c 0,113,114
 347 529 347 529 347 532 c 0,115,116
 347 542 347 542 334 542 c 0,117,118
 307 543 307 543 279 549 c 1,119,-1
 277 519 l 2,120,121
 273 447 273 447 268 362 c 0,122,123
 265 336 265 336 271 335 c 0,124,125
 332 319 332 319 355 307 c 0,126,127
 362 304 362 304 379 300 c 128,-1,128
 396 296 396 296 404 292 c 0,129,130
 413 288 413 288 412 276 c 0,131,132
 409 260 409 260 408 245 c 0,133,134
 404 215 404 215 369 191 c 0,135,136
 341 170 341 170 340 169 c 0,137,138
 327 156 327 156 315 151 c 0,139,140
 279 135 279 135 274 126 c 0,141,142
 268 117 268 117 255 108 c 128,-1,143
 242 99 242 99 239 89.5 c 128,-1,144
 236 80 236 80 228 23 c 0,145,146
 221 -23 221 -23 213 -32 c 0,147,148
 206 -43 206 -43 195 -39 c 0,149,150
 186 -37 186 -37 186 -25 c 2,151,-1
 186 -12 l 2,152,153
 188 19 188 19 192 31 c 0,154,155
 193 36 193 36 194 41 c 128,-1,156
 195 46 195 46 195 49 c 128,-1,157
 195 52 195 52 194 52 c 0,158,159
 189 52 189 52 165 37.5 c 128,-1,160
 141 23 141 23 133 15 c 0,161,162
 114 -2 114 -2 97 -2 c 2,163,-1
 94 -2 l 1,164,165
 74 4 74 4 68 19 c 0,166,167
 66 25 66 25 60 25 c 128,-1,168
 54 25 54 25 54 35 c 0,169,170
 54 42 54 42 50 48.5 c 128,-1,171
 46 55 46 55 46 56 c 0,172,173
 46 61 46 61 60 67 c 0,174,175
 73 73 73 73 73 78 c 0,176,177
 73 84 73 84 82 84 c 0,178,179
 92 84 92 84 101 94 c 0,180,181
 112 108 112 108 157 111 c 0,182,183
 180 114 180 114 189 117 c 0,184,185
 200 120 200 120 202 123 c 128,-1,186
 204 126 204 126 206 139 c 0,187,188
 207 150 207 150 213 159.5 c 128,-1,189
 219 169 219 169 219 180 c 0,190,191
 219 196 219 196 226 229 c 0,192,193
 230 249 230 249 230 258 c 0,194,195
 230 265 230 265 224 271 c 0,196,197
 217 278 217 278 219 280 c 2,198,-1
 219 292 l 2,199,200
 219 300 219 300 214.5 303 c 128,-1,201
 210 306 210 306 186 313 c 0,202,203
 130 330 130 330 114 360 c 0,204,205
 97 394 97 394 97 430 c 0,206,207
 97 456 97 456 106 481 c 0,208,209
 118 509 118 509 119 511 c 0,210,211
 124 518 124 518 124 524 c 0,212,213
 124 531 124 531 127 531 c 128,-1,214
 130 531 130 531 141 546 c 0,215,216
 152 560 152 560 158 560 c 0,68,69
EndSplineSet
Validated: 1
EndChar

StartChar: percent
Encoding: 37 37 9
Width: 659
GlyphClass: 2
Flags: W
LayerCount: 2
Fore
SplineSet
566 322 m 128,-1,1
 561 322 561 322 555 300 c 0,2,3
 550 278 550 278 539 272 c 128,-1,4
 528 266 528 266 492 265 c 0,5,6
 432 264 432 264 409 248 c 0,7,8
 395 240 395 240 395 231 c 0,9,10
 395 227 395 227 399 224 c 0,11,12
 402 222 402 222 401 218.5 c 128,-1,13
 400 215 400 215 395.5 211.5 c 128,-1,14
 391 208 391 208 387 208 c 0,15,16
 374 208 374 208 374 190 c 0,17,18
 374 187 374 187 376 177 c 0,19,20
 383 135 383 135 421 135 c 0,21,22
 442 135 442 135 450 139 c 0,23,24
 461 144 461 144 481 162 c 128,-1,25
 501 180 501 180 514 197 c 0,26,27
 530 219 530 219 550.5 261 c 128,-1,28
 571 303 571 303 571 314 c 0,29,0
 571 322 571 322 566 322 c 128,-1,1
244 485 m 2,30,-1
 245 507 l 1,31,-1
 225 508 l 1,32,-1
 214 508 l 2,33,34
 171 508 171 508 144 482 c 0,35,36
 124 462 124 462 124 454 c 0,37,38
 124 447 124 447 120 447 c 0,39,40
 114 447 114 447 102.5 418 c 128,-1,41
 91 389 91 389 85 359 c 0,42,43
 79 331 79 331 79 300 c 0,44,45
 79 251 79 251 91 236 c 0,46,47
 100 223 100 223 113 223 c 128,-1,48
 126 223 126 223 139 237 c 0,49,50
 151 250 151 250 167.5 274.5 c 128,-1,51
 184 299 184 299 184 304 c 0,52,53
 184 308 184 308 187 310 c 0,54,55
 192 312 192 312 204.5 343 c 128,-1,56
 217 374 217 374 225 403 c 0,57,58
 237 449 237 449 239 454 c 0,59,60
 242 462 242 462 244 485 c 2,30,-1
371 379 m 0,61,62
 371 380 371 380 392 416 c 128,-1,63
 413 452 413 452 413 454 c 0,64,65
 413 461 413 461 429 484 c 0,66,67
 449 516 449 516 455 527 c 0,68,69
 467 552 467 552 481 568 c 0,70,71
 500 593 500 593 500 597 c 0,72,73
 500 604 500 604 524 640 c 128,-1,74
 548 676 548 676 552 676 c 0,75,76
 557 676 557 676 566 685 c 0,77,78
 574 693 574 693 577.5 693 c 128,-1,79
 581 693 581 693 586 685 c 0,80,81
 590 680 590 680 590 671 c 0,82,83
 590 644 590 644 566 630 c 0,84,85
 536 611 536 611 536 591 c 0,86,87
 536 587 536 587 515.5 554.5 c 128,-1,88
 495 522 495 522 495 520 c 0,89,90
 495 516 495 516 473 485 c 0,91,92
 450 453 450 453 447 443 c 0,93,94
 442 428 442 428 435 417 c 0,95,96
 426 403 426 403 426 395 c 128,-1,97
 426 387 426 387 422 387 c 0,98,99
 417 387 417 387 417 382 c 0,100,101
 417 376 417 376 392 337 c 0,102,103
 353 276 353 276 353 271 c 2,104,-1
 354 269 l 1,105,-1
 356 269 l 2,106,107
 362 269 362 269 379.5 279.5 c 128,-1,108
 397 290 397 290 404 299 c 0,109,110
 425 323 425 323 447.5 333.5 c 128,-1,111
 470 344 470 344 525 355 c 0,112,113
 541 358 541 358 549 358 c 0,114,115
 560 358 560 358 580 351 c 0,116,117
 606 342 606 342 610 338 c 128,-1,118
 614 334 614 334 614 322 c 0,119,120
 614 286 614 286 596 271 c 0,121,122
 587 262 587 262 585 251 c 0,123,124
 581 240 581 240 578 240 c 0,125,126
 573 240 573 240 573 233 c 0,127,128
 573 224 573 224 542 180 c 128,-1,129
 511 136 511 136 499 128 c 0,130,131
 453 98 453 98 428 98 c 0,132,133
 412 98 412 98 395 102 c 0,134,135
 342 112 342 112 334 204 c 2,136,-1
 332 220 l 1,137,-1
 310 198 l 2,138,139
 288 176 288 176 288 163 c 0,140,141
 288 151 288 151 279 137 c 0,142,143
 277 135 277 135 266 112 c 0,144,145
 240 53 240 53 226 50 c 0,146,147
 206 45 206 45 206 19 c 0,148,149
 206 7 206 7 198 7 c 128,-1,150
 190 7 190 7 175.5 -12 c 128,-1,151
 161 -31 161 -31 161 -41 c 128,-1,152
 161 -51 161 -51 150 -71 c 0,153,154
 143 -85 143 -85 138.5 -88.5 c 128,-1,155
 134 -92 134 -92 123 -93 c 0,156,157
 105 -94 105 -94 103 -85 c 0,158,159
 102 -83 102 -83 102 -79 c 0,160,161
 102 -61 102 -61 120 -22 c 0,162,163
 129 -2 129 -2 129 7 c 128,-1,164
 129 16 129 16 133 16 c 0,165,166
 138 16 138 16 138 25 c 0,167,168
 138 33 138 33 146.5 51 c 128,-1,169
 155 69 155 69 165 80 c 0,170,171
 174 89 174 89 174 102 c 0,172,173
 174 112 174 112 179 112 c 128,-1,174
 184 112 184 112 184 121 c 128,-1,175
 184 130 184 130 188 132 c 0,176,177
 191 134 191 134 203.5 156.5 c 128,-1,178
 216 179 216 179 217 184 c 0,179,180
 217 186 217 186 230 216 c 0,181,182
 254 268 254 268 269.5 328.5 c 128,-1,183
 285 389 285 389 285 425 c 0,184,185
 285 443 285 443 280 451 c 0,186,187
 279 452 279 452 278 452 c 0,188,189
 273 452 273 452 267 428.5 c 128,-1,190
 261 405 261 405 261 399 c 0,191,192
 261 390 261 390 244.5 348.5 c 128,-1,193
 228 307 228 307 222 301 c 0,194,195
 216 296 216 296 216 288 c 0,196,197
 216 284 216 284 204.5 267 c 128,-1,198
 193 250 193 250 193 247 c 0,199,200
 193 243 193 243 178 228 c 0,201,202
 143 190 143 190 109 190 c 0,203,204
 85 190 85 190 67.5 209.5 c 128,-1,205
 50 229 50 229 44 266 c 0,206,207
 44 267 44 267 43.5 271.5 c 128,-1,208
 43 276 43 276 43 279 c 0,209,210
 43 303 43 303 47 341.5 c 128,-1,211
 51 380 51 380 55 387 c 0,212,213
 62 401 62 401 74 431 c 0,214,215
 101 496 101 496 151 532 c 0,216,217
 173 548 173 548 198 548 c 128,-1,218
 223 548 223 548 228 543 c 0,219,220
 230 541 230 541 236 541 c 0,221,222
 244 541 244 541 267 546 c 0,223,224
 294 551 294 551 299 551 c 0,225,226
 306 551 306 551 313 545 c 0,227,228
 321 538 321 538 321 514 c 0,229,230
 321 511 321 511 319 451 c 0,231,232
 317 375 317 375 312 348 c 0,233,234
 298 290 298 290 292 278 c 0,235,236
 288 268 288 268 291 265 c 0,237,238
 292 264 292 264 293 264 c 0,239,240
 297 264 297 264 316 300 c 0,241,242
 323 313 323 313 350 349 c 0,243,244
 371 377 371 377 371 379 c 0,61,62
EndSplineSet
Validated: 1
Substitution2: "Single Substitution lookup 3 subtable" percent.ss01
Substitution2: "Single Substitution lookup 2 subtable" percent.ss01
EndChar

StartChar: ampersand
Encoding: 38 38 10
Width: 719
GlyphClass: 2
Flags: W
LayerCount: 2
Fore
SplineSet
111 9 m 0,0,1
 113 13 113 13 112 14 c 0,2,3
 111 16 111 16 108 10 c 0,4,5
 106 6 106 6 107 5 c 128,-1,6
 108 4 108 4 110 7 c 0,7,8
 111 8 111 8 111 9 c 0,0,1
475 121 m 0,9,10
 466 132 466 132 464 132 c 0,11,12
 463 132 463 132 459 119 c 0,13,14
 457 107 457 107 468 98 c 128,-1,15
 479 89 479 89 482 89 c 128,-1,16
 485 89 485 89 485 95 c 0,17,18
 485 109 485 109 475 121 c 0,9,10
180 -40 m 128,-1,20
 180 -38 180 -38 197.5 -27.5 c 128,-1,21
 215 -17 215 -17 215 -15 c 0,22,23
 215 -11 215 -11 223 -15 c 0,24,25
 230 -17 230 -17 233 -6 c 0,26,27
 238 9 238 9 242 13 c 0,28,29
 247 19 247 19 256.5 45 c 128,-1,30
 266 71 266 71 266 79 c 0,31,32
 266 95 266 95 282 107 c 0,33,34
 287 112 287 112 287 118 c 0,35,36
 287 132 287 132 277 132 c 0,37,38
 270 132 270 132 270 138 c 0,39,40
 270 145 270 145 282 142 c 2,41,-1
 294 139 l 1,42,-1
 291 158 l 2,43,44
 288 177 288 177 280 183 c 0,45,46
 261 198 261 198 256 185 c 0,47,48
 254 180 254 180 241 174 c 0,49,50
 229 169 229 169 224 162 c 128,-1,51
 219 155 219 155 215 155 c 0,52,53
 213 155 213 155 185.5 129.5 c 128,-1,54
 158 104 158 104 157 104 c 0,55,56
 155 104 155 104 142.5 84 c 128,-1,57
 130 64 130 64 129 64 c 0,58,59
 125 60 125 60 125 52 c 0,60,61
 125 46 125 46 122.5 39.5 c 128,-1,62
 120 33 120 33 122 22 c 0,63,64
 125 8 125 8 125 -13 c 2,65,-1
 125 -30 l 1,66,-1
 117 -21 l 2,67,68
 111 -13 111 -13 108 -16 c 2,69,-1
 108 -17 l 2,70,71
 107 -18 107 -18 107 -19 c 0,72,73
 107 -28 107 -28 118 -45.5 c 128,-1,74
 129 -63 129 -63 136 -63 c 0,75,76
 139 -63 139 -63 142 -57 c 128,-1,77
 145 -51 145 -51 151 -56 c 0,78,79
 156 -61 156 -61 168 -52 c 0,80,19
 180 -42 180 -42 180 -40 c 128,-1,20
515 628 m 0,81,82
 503 635 503 635 498 635 c 0,83,84
 457 630 457 630 447.5 627 c 128,-1,85
 438 624 438 624 430 616 c 0,86,87
 420 606 420 606 408 602 c 0,88,89
 399 600 399 600 385 588.5 c 128,-1,90
 371 577 371 577 371 572 c 0,91,92
 371 569 371 569 360 554 c 0,93,94
 347 537 347 537 342.5 511 c 128,-1,95
 338 485 338 485 338 426 c 0,96,97
 338 323 338 323 348 307 c 0,98,99
 348 306 348 306 350 306 c 0,100,101
 357 306 357 306 437 392 c 0,102,103
 463 420 463 420 468.5 428 c 128,-1,104
 474 436 474 436 478 457 c 0,105,106
 483 479 483 479 491 499 c 0,107,108
 512 543 512 543 512 559 c 0,109,110
 512 565 512 565 519 581 c 0,111,112
 527 600 527 600 527 609 c 0,113,114
 527 620 527 620 515 628 c 0,81,82
336 619 m 0,115,116
 336 621 336 621 357.5 634 c 128,-1,117
 379 647 379 647 379 648 c 0,118,119
 379 651 379 651 387 651 c 128,-1,120
 395 651 395 651 395 654 c 0,121,122
 395 658 395 658 401.5 662.5 c 128,-1,123
 408 667 408 667 418 671.5 c 128,-1,124
 428 676 428 676 430 677 c 0,125,126
 444 684 444 684 473 684 c 0,127,128
 504 684 504 684 504 688 c 0,129,130
 504 691 504 691 507 688 c 128,-1,131
 510 685 510 685 527.5 680 c 128,-1,132
 545 675 545 675 548 671 c 0,133,134
 554 664 554 664 564 643 c 128,-1,135
 574 622 574 622 574 616 c 0,136,137
 574 614 574 614 578 607 c 128,-1,138
 582 600 582 600 579 595 c 128,-1,139
 576 590 576 590 570 561 c 128,-1,140
 564 532 564 532 561 528 c 0,141,142
 555 518 555 518 553 492 c 0,143,144
 552 474 552 474 549 468 c 128,-1,145
 546 462 546 462 535 451 c 0,146,147
 519 437 519 437 519 432 c 128,-1,148
 519 427 519 427 506 414 c 0,149,150
 492 400 492 400 492 398 c 128,-1,151
 492 396 492 396 474.5 377 c 128,-1,152
 457 358 457 358 457 356 c 0,153,154
 457 352 457 352 443.5 337.5 c 128,-1,155
 430 323 430 323 426 323 c 128,-1,156
 422 323 422 323 422 311 c 0,157,158
 422 302 422 302 424 300.5 c 128,-1,159
 426 299 426 299 437 301 c 0,160,161
 447 303 447 303 464 303 c 0,162,163
 486 303 486 303 510 298 c 0,164,165
 571 285 571 285 629 285 c 0,166,167
 632 285 632 285 635 285.5 c 128,-1,168
 638 286 638 286 639 286 c 0,169,170
 649 288 649 288 654 280 c 0,171,172
 655 277 655 277 653 275 c 0,173,174
 649 273 649 273 651 267 c 128,-1,175
 653 261 653 261 658 261 c 0,176,177
 662 261 662 261 669 256 c 0,178,179
 677 251 677 251 672 232 c 0,180,181
 667 215 667 215 662 210 c 0,182,183
 660 208 660 208 657 208 c 0,184,185
 651 208 651 208 643.5 212.5 c 128,-1,186
 636 217 636 217 635 222 c 0,187,188
 630 238 630 238 514 241 c 0,189,190
 488 241 488 241 461.5 236 c 128,-1,191
 435 231 435 231 435 219 c 0,192,193
 435 206 435 206 432 204 c 0,194,195
 427 202 427 202 426.5 196 c 128,-1,196
 426 190 426 190 432 190 c 0,197,198
 447 190 447 190 475.5 168.5 c 128,-1,199
 504 147 504 147 504 136 c 0,200,201
 504 132 504 132 508 132 c 0,202,203
 511 132 511 132 521 122 c 128,-1,204
 531 112 531 112 531 95 c 0,205,206
 531 84 531 84 527 77 c 0,207,208
 523 71 523 71 530 64 c 0,209,210
 540 54 540 54 559.5 40 c 128,-1,211
 579 26 579 26 583 26 c 0,212,213
 588 26 588 26 594 13 c 128,-1,214
 600 0 600 0 608 -5 c 0,215,216
 621 -12 621 -12 614 -24 c 0,217,218
 611 -30 611 -30 608 -21 c 0,219,220
 606 -13 606 -13 596 -13 c 0,221,222
 593 -13 593 -13 588.5 -11.5 c 128,-1,223
 584 -10 584 -10 581 -9.5 c 128,-1,224
 578 -9 578 -9 575 -10 c 128,-1,225
 572 -11 572 -11 571 -16 c 0,226,227
 569 -25 569 -25 564 -25 c 0,228,229
 562 -24 562 -24 562 -21 c 256,230,231
 562 -18 562 -18 548 -9 c 0,232,233
 543 -6 543 -6 536 0 c 128,-1,234
 529 6 529 6 528 6 c 0,235,236
 523 11 523 11 520 11 c 128,-1,237
 517 11 517 11 502 26 c 0,238,239
 491 36 491 36 472 47 c 128,-1,240
 453 58 453 58 446 58 c 0,241,242
 442 58 442 58 440 65 c 0,243,244
 439 71 439 71 411 91 c 0,245,246
 379 115 379 115 365 127 c 0,247,248
 347 143 347 143 343 141 c 0,249,250
 340 140 340 140 340 80 c 0,251,252
 340 18 340 18 331 -9 c 0,253,254
 317 -55 317 -55 302 -68 c 0,255,256
 297 -72 297 -72 291 -86 c 0,257,258
 286 -97 286 -97 274 -100 c 0,259,260
 261 -103 261 -103 258 -113 c 0,261,262
 254 -122 254 -122 245 -122 c 128,-1,263
 236 -122 236 -122 234 -125 c 0,264,265
 228 -138 228 -138 200 -138 c 0,266,267
 198 -138 198 -138 195.5 -137.5 c 128,-1,268
 193 -137 193 -137 192 -137 c 0,269,270
 159 -130 159 -130 144.5 -123.5 c 128,-1,271
 130 -117 130 -117 115 -102 c 0,272,273
 94 -83 94 -83 94 -74 c 0,274,275
 94 -67 94 -67 90 -67 c 128,-1,276
 86 -67 86 -67 78.5 -58 c 128,-1,277
 71 -49 71 -49 71 -45 c 128,-1,278
 71 -41 71 -41 58 -15 c 0,279,280
 44 13 44 13 44 44 c 0,281,282
 44 62 44 62 49 85 c 0,283,284
 56 113 56 113 59 114 c 0,285,286
 64 117 64 117 73 136 c 0,287,288
 99 190 99 190 121 203 c 0,289,290
 133 210 133 210 133 216 c 128,-1,291
 133 222 133 222 139 222 c 0,292,293
 144 222 144 222 157 230 c 128,-1,294
 170 238 170 238 171 242 c 0,295,296
 172 245 172 245 192 245 c 0,297,298
 211 245 211 245 211 250 c 0,299,300
 211 256 211 256 214 250 c 0,301,302
 216 245 216 245 230 245 c 0,303,304
 248 245 248 245 252 251 c 0,305,306
 255 255 255 255 262 255 c 0,307,308
 273 255 273 255 283 247 c 0,309,310
 288 242 288 242 293 242 c 0,311,312
 305 242 305 242 311 277 c 0,313,314
 311 278 311 278 311.5 281.5 c 128,-1,315
 312 285 312 285 312 287 c 0,316,317
 312 308 312 308 306.5 341 c 128,-1,318
 301 374 301 374 296 382 c 0,319,320
 291 388 291 388 287 407 c 0,321,322
 285 423 285 423 281 427 c 128,-1,323
 277 431 277 431 275 468 c 0,324,325
 275 471 275 471 274.5 477 c 128,-1,326
 274 483 274 483 274 486 c 0,327,328
 274 554 274 554 317 597 c 0,329,330
 336 616 336 616 336 619 c 0,115,116
EndSplineSet
Validated: 1
Substitution2: "Single Substitution lookup 3 subtable" ampersand.ss01
Substitution2: "Single Substitution lookup 2 subtable" ampersand.ss01
EndChar

StartChar: quotesingle
Encoding: 39 39 11
Width: 191
GlyphClass: 2
Flags: W
LayerCount: 2
Fore
SplineSet
67 439 m 0,0,1
 67 443 67 443 60 455 c 128,-1,2
 53 467 53 467 53 470 c 0,3,4
 53 474 53 474 47 486 c 128,-1,5
 41 498 41 498 40 575 c 0,6,7
 40 654 40 654 43 658 c 0,8,9
 44 660 44 660 53 660 c 2,10,-1
 66 660 l 2,11,12
 75 660 75 660 76 662 c 0,13,14
 78 664 78 664 86 664 c 2,15,-1
 102 664 l 2,16,17
 110 664 110 664 112 665 c 0,18,19
 120 669 120 669 123 669 c 0,20,21
 130 669 130 669 139 658 c 0,22,23
 148 649 148 649 148 635 c 2,24,-1
 148 621 l 2,25,26
 146 585 146 585 139.5 534 c 128,-1,27
 133 483 133 483 131 480 c 0,28,29
 118 442 118 442 112 442 c 0,30,31
 108 442 108 442 110 438 c 0,32,33
 111 434 111 434 106.5 425 c 128,-1,34
 102 416 102 416 98 413 c 128,-1,35
 94 410 94 410 87.5 410.5 c 128,-1,36
 81 411 81 411 81 414 c 128,-1,37
 81 417 81 417 74 424 c 128,-1,38
 67 431 67 431 67 439 c 0,0,1
EndSplineSet
Validated: 1
Substitution2: "Single Substitution lookup 3 subtable" quotesingle.ss01
Substitution2: "Single Substitution lookup 2 subtable" quotesingle.ss01
EndChar

StartChar: parenleft
Encoding: 40 40 12
Width: 367
GlyphClass: 2
Flags: W
LayerCount: 2
Fore
SplineSet
97 1392 m 1053,0,-1
248.5 705 m 128,-1,2
 261 721 261 721 261 723 c 0,3,4
 261 729 261 729 270 735.5 c 128,-1,5
 279 742 279 742 286 742 c 2,6,-1
 287 742 l 2,7,8
 297 740 297 740 298 737 c 128,-1,9
 299 734 299 734 295 719 c 0,10,11
 288 692 288 692 288 686 c 0,12,13
 288 681 288 681 293 679 c 128,-1,14
 298 677 298 677 303.5 679 c 128,-1,15
 309 681 309 681 313 681 c 128,-1,16
 317 681 317 681 320 675 c 0,17,18
 321 673 321 673 321 670 c 0,19,20
 321 663 321 663 313.5 658 c 128,-1,21
 306 653 306 653 297 653 c 128,-1,22
 288 653 288 653 285.5 648 c 128,-1,23
 283 643 283 643 278 616 c 0,24,25
 278 614 278 614 275 607.5 c 128,-1,26
 272 601 272 601 271 597.5 c 128,-1,27
 270 594 270 594 272 590 c 1,28,-1
 269 586 l 2,29,30
 266 582 266 582 261.5 577 c 128,-1,31
 257 572 257 572 256 570 c 0,32,33
 223.970588235 506.911764706 223.970588235 506.911764706 223.970588235 499.403979239 c 0,34,35
 223.970588235 499.176470588 223.970588235 499.176470588 224 499 c 0,36,37
 224 496 224 496 221 495 c 0,38,39
 216 492 216 492 205 467.5 c 128,-1,40
 194 443 194 443 194 435 c 0,41,42
 194 426 194 426 191 423 c 2,43,-1
 160 340 l 2,44,45
 151 322 151 322 151 308 c 0,46,47
 151 296 151 296 142.5 276.5 c 128,-1,48
 134 257 134 257 133 249 c 0,49,50
 120 175 120 175 117 109 c 0,51,52
 117 103 117 103 116.5 92 c 128,-1,53
 116 81 116 81 116 77 c 0,54,55
 116 36 116 36 129 36 c 0,56,57
 134 36 134 36 134 31 c 0,58,59
 134 25 134 25 138 25 c 0,60,61
 145 25 145 25 155 -2 c 0,62,63
 157 -8 157 -8 168 -12 c 128,-1,64
 179 -16 179 -16 179 -20 c 0,65,66
 179 -25 179 -25 186 -32 c 0,67,68
 190 -37 190 -37 195 -54.5 c 128,-1,69
 200 -72 200 -72 200 -82 c 0,70,71
 200 -86 200 -86 199 -87 c 0,72,73
 197 -91 197 -91 202 -102 c 128,-1,74
 207 -113 207 -113 211 -113 c 0,75,76
 217 -113 217 -113 217 -122 c 0,77,78
 217 -127 217 -127 215 -137.5 c 128,-1,79
 213 -148 213 -148 213 -150 c 0,80,81
 213 -157 213 -157 205 -157 c 0,82,83
 193 -157 193 -157 176 -143 c 0,84,85
 166 -135 166 -135 154 -135 c 0,86,87
 143 -135 143 -135 133 -129 c 0,88,89
 130 -127 130 -127 125.5 -127 c 128,-1,90
 121 -127 121 -127 118.5 -126 c 128,-1,91
 116 -125 116 -125 116 -122 c 0,92,93
 116 -117 116 -117 108 -113 c 0,94,95
 101 -110 101 -110 88 -89.5 c 128,-1,96
 75 -69 75 -69 75 -63 c 0,97,98
 75 -60 75 -60 69 -36 c 0,99,100
 66 -22 66 -22 60 3.5 c 128,-1,101
 54 29 54 29 49 49 c 0,102,103
 43 78 43 78 43 144 c 0,104,105
 43 240 43 240 52 288 c 0,106,107
 59 330 59 330 61 345 c 128,-1,108
 63 360 63 360 67 371 c 0,109,110
 72 384 72 384 84 427.5 c 128,-1,111
 96 471 96 471 101 482 c 0,112,113
 116 516 116 516 136 548 c 0,114,115
 142 558 142 558 142 565 c 0,116,117
 142 569 142 569 153 589 c 128,-1,118
 164 609 164 609 164 612 c 0,119,120
 164 617 164 617 175 626 c 0,121,122
 190 638 190 638 213.5 661 c 0,123,124
 236.040816327 683.06122449 236.040816327 683.06122449 236.040816327 685.801749271 c 0,125,1
 236.040816327 689.052244898 236.040816327 689.052244898 248.5 705 c 128,-1,2
EndSplineSet
Validated: 1
Substitution2: "Single Substitution lookup 3 subtable" parenleft.ss01
Substitution2: "Single Substitution lookup 2 subtable" parenleft.ss01
EndChar

StartChar: parenright
Encoding: 41 41 13
Width: 332
GlyphClass: 2
Flags: W
LayerCount: 2
Fore
SplineSet
142 502 m 0,0,1
 142 506 142 506 134 516 c 128,-1,2
 126 526 126 526 126 530 c 0,3,4
 126 535 126 535 116.5 546 c 128,-1,5
 107 557 107 557 102 557 c 0,6,7
 99 557 99 557 79.5 577 c 128,-1,8
 60 597 60 597 60 600 c 0,9,10
 60 604 60 604 64 606 c 0,11,12
 68 609 68 609 68 617 c 0,13,14
 68 633 68 633 60 644 c 0,15,16
 50 656 50 656 49 666 c 0,17,18
 48 674 48 674 49.5 676 c 128,-1,19
 51 678 51 678 62 679 c 0,20,21
 84 681 84 681 88 672 c 0,22,23
 90 667 90 667 96 667 c 0,24,25
 98 667 98 667 101 665 c 128,-1,26
 104 663 104 663 106.5 660.5 c 128,-1,27
 109 658 109 658 111.5 656.5 c 128,-1,28
 114 655 114 655 116 656.5 c 128,-1,29
 118 658 118 658 119 663 c 0,30,31
 121 670 121 670 135 670 c 0,32,33
 144 670 144 670 148.5 666.5 c 128,-1,34
 153 663 153 663 163 649 c 0,35,36
 172 636 172 636 177.5 632 c 128,-1,37
 183 628 183 628 193 626 c 0,38,39
 204 625 204 625 206.5 622 c 128,-1,40
 209 619 209 619 208 610 c 0,41,42
 206 596 206 596 211 591 c 128,-1,43
 216 586 216 586 220 564 c 0,44,45
 223 543 223 543 247 487 c 0,46,47
 249 481 249 481 254.5 466 c 128,-1,48
 260 451 260 451 262.5 443 c 128,-1,49
 265 435 265 435 267.5 422 c 128,-1,50
 270 409 270 409 270 396 c 0,51,52
 270 385 270 385 278 333 c 0,53,54
 289 267 289 267 289 191 c 0,55,56
 289 53 289 53 250 -1 c 0,57,58
 249 -3 249 -3 243.5 -11.5 c 128,-1,59
 238 -20 238 -20 233.5 -27 c 128,-1,60
 229 -34 229 -34 227 -34 c 0,61,62
 224 -34 224 -34 224 -40 c 0,63,64
 224 -45 224 -45 221 -52 c 128,-1,65
 218 -59 218 -59 213 -66.5 c 128,-1,66
 208 -74 208 -74 207 -76 c 0,67,68
 206 -81 206 -81 190.5 -85.5 c 128,-1,69
 175 -90 175 -90 173 -94 c 0,70,71
 170 -100 170 -100 166 -95 c 0,72,73
 161 -88 161 -88 144 -88 c 0,74,75
 135 -88 135 -88 131 -92 c 0,76,77
 128 -97 128 -97 110 -104 c 0,78,79
 95 -109 95 -109 93 -109 c 0,80,81
 90 -109 90 -109 81 -103 c 0,82,83
 69 -95 69 -95 67 -95 c 128,-1,84
 65 -95 65 -95 54 -84 c 0,85,86
 44 -72 44 -72 44 -61 c 0,87,88
 44 -52 44 -52 50 -52 c 128,-1,89
 56 -52 56 -52 56 -49 c 0,90,91
 56 -42 56 -42 103 -34 c 0,92,93
 112 -32 112 -32 123 -24 c 128,-1,94
 134 -16 134 -16 134 -11 c 0,95,96
 134 -9 134 -9 144 1 c 0,97,98
 153 10 153 10 153 22 c 0,99,100
 153 31 153 31 159 44.5 c 128,-1,101
 165 58 165 58 169 58 c 128,-1,102
 173 58 173 58 173 67 c 0,103,104
 173 78 173 78 176 79 c 0,105,106
 189 86 189 86 189 233 c 0,107,108
 189 302 189 302 183 321 c 0,109,110
 177 343 177 343 177 352 c 0,111,112
 177 365 177 365 170 391 c 0,113,114
 169 395 169 395 165.5 416 c 128,-1,115
 162 437 162 437 158.5 454 c 128,-1,116
 155 471 155 471 153 471 c 0,117,118
 149 473 149 473 149 481 c 0,119,120
 149 487 149 487 145.5 492 c 128,-1,121
 142 497 142 497 142 502 c 0,0,1
EndSplineSet
Validated: 1
Substitution2: "Single Substitution lookup 2 subtable" parenright.ss01
Substitution2: "Single Substitution lookup 3 subtable" parenright.ss01
EndChar

StartChar: asterisk
Encoding: 42 42 14
Width: 542
GlyphClass: 2
Flags: W
LayerCount: 2
Fore
SplineSet
232 249 m 256,0,1
 233 253 233 253 229 253 c 0,2,3
 224 252 224 252 220 247 c 2,4,-1
 206 226 l 2,5,6
 192 206 192 206 192 202 c 0,7,8
 192 201 192 201 193 201 c 2,9,-1
 194 201 l 2,10,11
 196 201 196 201 213.5 223 c 128,-1,12
 231 245 231 245 232 249 c 256,0,1
410 301 m 0,13,14
 402 305 402 305 368 305 c 0,15,16
 335 305 335 305 323 301 c 0,17,18
 303 293 303 293 317 292 c 0,19,20
 322 292 322 292 329 293 c 0,21,22
 351 296 351 296 380 297 c 0,23,24
 411 298 411 298 411 300 c 0,25,26
 411 301 411 301 410 301 c 0,13,14
274 490 m 0,27,28
 274 498 274 498 288 498 c 0,29,30
 301 498 301 498 306 493 c 0,31,32
 307 492 307 492 307 483 c 0,33,34
 307 469 307 469 301.5 426 c 128,-1,35
 296 383 296 383 296 377 c 2,36,-1
 294 358 l 1,37,38
 300 363 300 363 344 407 c 0,39,40
 377 440 377 440 383 440 c 0,41,42
 386 440 386 440 387 439 c 0,43,44
 399 435 399 435 390 417 c 2,45,-1
 387 408 l 2,46,47
 389 408 389 408 400 420 c 0,48,49
 415 437 415 437 425 438 c 0,50,51
 426 438 426 438 428.5 438.5 c 128,-1,52
 431 439 431 439 432 439 c 0,53,54
 446 439 446 439 446 430 c 0,55,56
 446 424 446 424 436 421 c 128,-1,57
 426 418 426 418 407 397 c 2,58,-1
 367 353 l 2,59,60
 345 331 345 331 345 326 c 0,61,62
 345 324 345 324 347 324 c 0,63,64
 350 324 350 324 352 325 c 0,65,66
 365 328 365 328 400 330 c 0,67,68
 411 331 411 331 428 331 c 0,69,70
 453 331 453 331 465 319 c 0,71,72
 472 312 472 312 475 312 c 128,-1,73
 478 312 478 312 482.5 306 c 128,-1,74
 487 300 487 300 490 299 c 0,75,76
 502 296 502 296 492 285 c 0,77,78
 487 280 487 280 469 280 c 0,79,80
 450 280 450 280 450 277 c 128,-1,81
 450 274 450 274 446 274 c 0,82,83
 441 274 441 274 441 277 c 128,-1,84
 441 280 441 280 435 278 c 0,85,86
 381 270 381 270 337 268 c 0,87,88
 293 265 293 265 291 262 c 0,89,90
 289 258 289 258 288.5 250 c 128,-1,91
 288 242 288 242 291 242 c 0,92,93
 292 242 292 242 298 232 c 0,94,95
 301 225 301 225 313 211 c 128,-1,96
 325 197 325 197 340 182 c 128,-1,97
 355 167 355 167 358 163 c 0,98,99
 391 128 391 128 407 116 c 1,100,101
 394 99 394 99 394 98 c 0,102,103
 394 96 394 96 391 95 c 128,-1,104
 388 94 388 94 384.5 95.5 c 128,-1,105
 381 97 381 97 380 100 c 0,106,107
 377 104 377 104 377 98 c 0,108,109
 377 94 377 94 379 87.5 c 128,-1,110
 381 81 381 81 381 78 c 0,111,112
 381 72 381 72 373 69 c 2,113,-1
 370 69 l 2,114,115
 364 69 364 69 360 76.5 c 128,-1,116
 356 84 356 84 352.5 94.5 c 128,-1,117
 349 105 349 105 347 109 c 0,118,119
 339 121 339 121 331 137 c 0,120,121
 322 156 322 156 320 156 c 0,122,123
 318 158 318 158 318 164 c 0,124,125
 318 168 318 168 314 172.5 c 128,-1,126
 310 177 310 177 304 181.5 c 128,-1,127
 298 186 298 186 297 187 c 0,128,129
 292 194 292 194 289 191 c 0,130,131
 288 190 288 190 288 133 c 0,132,133
 288 77 288 77 284 74 c 0,134,135
 279 69 279 69 279 65 c 0,136,137
 279 59 279 59 274 59 c 0,138,139
 262 59 262 59 262 89 c 0,140,141
 262 104 262 104 260 104 c 0,142,143
 257 104 257 104 255 81 c 2,144,-1
 254 58 l 1,145,146
 236 56 236 56 234 63 c 128,-1,147
 232 70 232 70 234 85 c 0,148,149
 247 198 247 198 252 215 c 0,150,151
 254 220 254 220 254 226 c 0,152,153
 254 229 254 229 253 229 c 0,154,155
 246 229 246 229 228 196 c 0,156,157
 218 178 218 178 208 172 c 0,158,159
 197 166 197 166 195 161 c 0,160,161
 194 157 194 157 190 156.5 c 128,-1,162
 186 156 186 156 185 160 c 1,163,-1
 184 160 l 2,164,165
 180 160 180 160 162 143 c 128,-1,166
 144 126 144 126 142 120 c 0,167,168
 139 111 139 111 131 101 c 128,-1,169
 123 91 123 91 119 91 c 0,170,171
 113 91 113 91 110 96 c 0,172,173
 106 101 106 101 114 116 c 0,174,175
 150 180 150 180 159 192 c 0,176,177
 165 200 165 200 165 203 c 0,178,179
 165 208 165 208 185 230 c 0,180,181
 194 241 194 241 194 244 c 128,-1,182
 194 247 194 247 152 247 c 0,183,184
 44 247 44 247 44 276 c 0,185,186
 44 286 44 286 62 283 c 0,187,188
 76 281 76 281 92 282 c 0,189,190
 97 282 97 282 99 282.5 c 128,-1,191
 101 283 101 283 104 283 c 128,-1,192
 107 283 107 283 108 283.5 c 128,-1,193
 109 284 109 284 110.5 284.5 c 128,-1,194
 112 285 112 285 112.5 286.5 c 128,-1,195
 113 288 113 288 114 289 c 128,-1,196
 115 290 115 290 116 293 c 0,197,198
 121 302 121 302 122 302.5 c 128,-1,199
 123 303 123 303 128 299 c 0,200,201
 133 294 133 294 153 294 c 128,-1,202
 173 294 173 294 173 299 c 2,203,-1
 172 301 l 2,204,205
 172 303 172 303 172 304 c 0,206,207
 172 308 172 308 175 312 c 0,208,209
 177 314 177 314 177 316 c 0,210,211
 177 321 177 321 169.5 332 c 128,-1,212
 162 343 162 343 162 345 c 0,213,214
 162 348 162 348 150.5 364.5 c 128,-1,215
 139 381 139 381 139 384 c 0,216,217
 137 394 137 394 132 399 c 0,218,219
 120 412 120 412 116 438 c 0,220,221
 115 443 115 443 112 447 c 128,-1,222
 109 451 109 451 109 457 c 0,223,224
 109 462 109 462 120 460 c 0,225,226
 130 458 130 458 134 455.5 c 128,-1,227
 138 453 138 453 142 445 c 0,228,229
 153 423 153 423 164 410 c 0,230,231
 171 403 171 403 171 400 c 128,-1,232
 171 397 171 397 173 397 c 128,-1,233
 175 397 175 397 175.5 399 c 128,-1,234
 176 401 176 401 175 404.5 c 128,-1,235
 174 408 174 408 172 413 c 0,236,237
 168 421 168 421 168 433 c 0,238,239
 168 441 168 441 169 443 c 128,-1,240
 170 445 170 445 176 445 c 0,241,242
 183 445 183 445 187.5 441 c 128,-1,243
 192 437 192 437 191 431 c 0,244,245
 190 427 190 427 193.5 416 c 128,-1,246
 197 405 197 405 200 403 c 0,247,248
 209 394 209 394 209 385 c 0,249,250
 209 381 209 381 217 371 c 0,251,252
 227 359 227 359 232 343 c 0,253,254
 237 326 237 326 244 325 c 0,255,256
 250 323 250 323 254 327 c 0,257,258
 261 334 261 334 264 426 c 0,259,260
 266 465 266 465 269 473 c 0,261,262
 274 488 274 488 274 490 c 0,27,28
EndSplineSet
Validated: 1
EndChar

StartChar: plus
Encoding: 43 43 15
Width: 712
GlyphClass: 2
Flags: W
LayerCount: 2
Fore
SplineSet
437 363 m 0,0,1
 445 363 445 363 448 369 c 0,2,3
 447 373 447 373 441 374 c 0,4,5
 430 374 430 374 430 368 c 0,6,7
 430 363 430 363 437 363 c 0,0,1
216 384 m 2,8,-1
 217 385 l 2,9,10
 217 388 217 388 198 388 c 0,11,12
 162 388 162 388 142 381 c 0,13,14
 135 378 135 378 140 373 c 0,15,16
 142 371 142 371 152 371 c 0,17,18
 168 371 168 371 190 375.5 c 128,-1,19
 212 380 212 380 216 384 c 2,8,-1
595 406 m 0,20,21
 595 411 595 411 607.5 425.5 c 128,-1,22
 620 440 620 440 620 444 c 0,23,24
 620 451 620 451 613 451 c 128,-1,25
 606 451 606 451 599 444 c 0,26,27
 594 439 594 439 573.5 433.5 c 128,-1,28
 553 428 553 428 529 423 c 128,-1,29
 505 418 505 418 499 416 c 2,30,-1
 484 411 l 1,31,-1
 499 408 l 2,32,33
 539 400 539 400 573 400 c 0,34,35
 595 400 595 400 595 406 c 0,20,21
355 609 m 0,36,37
 358 621 358 621 361.5 623.5 c 128,-1,38
 365 626 365 626 380 626 c 0,39,40
 411 626 411 626 418 609 c 128,-1,41
 425 592 425 592 425 521 c 0,42,43
 425 446 425 446 432 446 c 0,44,45
 438 446 438 446 442 453 c 0,46,47
 445 461 445 461 455 461 c 0,48,49
 467 461 467 461 470 451 c 128,-1,50
 473 441 473 441 486 441 c 0,51,52
 495 441 495 441 498 448 c 0,53,54
 501 454 501 454 525 458 c 0,55,56
 547 461 547 461 557 471 c 0,57,58
 565 481 565 481 602 482 c 2,59,-1
 614 482 l 2,60,61
 667 482 667 482 667 461 c 0,62,63
 667 453 667 453 651.5 428.5 c 128,-1,64
 636 404 636 404 630 404 c 0,65,66
 625 404 625 404 625 375 c 128,-1,67
 625 346 625 346 617 338 c 0,68,69
 608 329 608 329 588 320.5 c 128,-1,70
 568 312 568 312 559 312 c 128,-1,71
 550 312 550 312 544 302.5 c 128,-1,72
 538 293 538 293 538 279 c 0,73,74
 538 271 538 271 535.5 268.5 c 128,-1,75
 533 266 533 266 525 266 c 0,76,77
 510 266 510 266 449 249 c 0,78,79
 430 244 430 244 430 237 c 0,80,81
 430 232 430 232 424 228 c 0,82,83
 417 227 417 227 416 170 c 0,84,85
 414 38 414 38 401 -53 c 0,86,87
 394 -95 394 -95 373 -95 c 0,88,89
 365 -95 365 -95 359 -82.5 c 128,-1,90
 353 -70 353 -70 340 -27 c 0,91,92
 327 15 327 15 327 57 c 0,93,94
 327 63 327 63 327.5 79.5 c 128,-1,95
 328 96 328 96 328 107 c 2,96,-1
 330 196 l 1,97,-1
 296 199 l 2,98,99
 264 202 264 202 245 210 c 0,100,101
 231 216 231 216 214.5 232.5 c 128,-1,102
 198 249 198 249 198 256 c 0,103,104
 198 272 198 272 155 292 c 0,105,106
 127 306 127 306 126 307 c 0,107,108
 122 311 122 311 102 321 c 0,109,110
 44 352 44 352 44 375 c 0,111,112
 44 384 44 384 47.5 387 c 128,-1,113
 51 390 51 390 64 392 c 128,-1,114
 77 394 77 394 88.5 399 c 128,-1,115
 100 404 100 404 113 407 c 0,116,117
 133 411 133 411 137 416 c 0,118,119
 140 422 140 422 225 422 c 0,120,121
 290 422 290 422 315 418 c 2,122,-1
 346 413 l 1,123,-1
 346 451 l 2,124,125
 346 486 346 486 341 496 c 0,126,127
 336 503 336 503 344 516 c 128,-1,128
 352 529 352 529 352 552 c 2,129,-1
 352 560 l 1,130,-1
 352 570 l 2,131,132
 352 598 352 598 355 609 c 0,36,37
EndSplineSet
Validated: 1
Substitution2: "Single Substitution lookup 3 subtable" plus.ss01
Substitution2: "Single Substitution lookup 2 subtable" plus.ss01
EndChar

StartChar: comma
Encoding: 44 44 16
Width: 227
GlyphClass: 2
Flags: W
LayerCount: 2
Fore
SplineSet
96 67 m 0,0,1
 93 61 93 61 100 61 c 0,2,3
 103 61 103 61 104 63 c 0,4,5
 104 64 104 64 102 66 c 0,6,7
 98 70 98 70 96 67 c 0,0,1
108 154 m 128,-1,9
 115 158 115 158 130 158 c 0,10,11
 164 158 164 158 167 146 c 0,12,13
 168 143 168 143 173 138 c 128,-1,14
 178 133 178 133 177 126 c 0,15,16
 176 118 176 118 182 107 c 0,17,18
 186 102 186 102 186 90 c 0,19,20
 186 68 186 68 176 60 c 0,21,22
 170 56 170 56 165.5 42 c 128,-1,23
 161 28 161 28 157 23 c 0,24,25
 151 15 151 15 141.5 -4.5 c 128,-1,26
 132 -24 132 -24 125 -39.5 c 128,-1,27
 118 -55 118 -55 116 -55 c 0,28,29
 110 -55 110 -55 103 -68 c 0,30,31
 101 -72 101 -72 76 -111 c 0,32,33
 66 -126 66 -126 66 -131 c 0,34,35
 66 -134 66 -134 62 -135 c 128,-1,36
 58 -136 58 -136 53 -134.5 c 128,-1,37
 48 -133 48 -133 46 -130 c 0,38,39
 43 -125 43 -125 43 -122 c 0,40,41
 43 -114 43 -114 60 -87 c 0,42,43
 75 -64 75 -64 75 -57 c 0,44,45
 75 -53 75 -53 79 -51 c 0,46,47
 81 -50 81 -50 88 -33 c 0,48,49
 94 -15 94 -15 90 -10 c 0,50,51
 85 -4 85 -4 87 12 c 0,52,53
 89 27 89 27 81 32 c 0,54,55
 66 42 66 42 66 74 c 0,56,57
 66 113 66 113 92 137 c 0,58,59
 101 146 101 146 101 148 c 128,-1,8
 101 150 101 150 108 154 c 128,-1,9
EndSplineSet
Validated: 1
Substitution2: "Single Substitution lookup 3 subtable" comma.ss01
Substitution2: "Single Substitution lookup 2 subtable" comma.ss01
EndChar

StartChar: hyphen
Encoding: 45 45 17
Width: 365
GlyphClass: 2
Flags: W
LayerCount: 2
Fore
SplineSet
164 264 m 2,0,1
 159 264 159 264 130.5 259 c 128,-1,2
 102 254 102 254 98 254 c 0,3,4
 92 254 92 254 72 272 c 128,-1,5
 52 290 52 290 50 297 c 0,6,7
 48 308 48 308 44 310 c 0,8,9
 41 312 41 312 41 313 c 0,10,11
 41 318 41 318 94 325 c 0,12,13
 141 330 141 330 146 334 c 0,14,15
 150 338 150 338 177 340 c 0,16,17
 186 340 186 340 200 340.5 c 128,-1,18
 214 341 214 341 217 341 c 0,19,20
 229 341 229 341 229 339 c 128,-1,21
 229 337 229 337 237 337 c 0,22,23
 241 337 241 337 255.5 338 c 128,-1,24
 270 339 270 339 278 339 c 0,25,26
 312 339 312 339 320 327 c 0,27,28
 325 319 325 319 317 310 c 0,29,30
 309 302 309 302 285 302 c 256,31,32
 261 302 261 302 263 297 c 0,33,34
 265 280 265 280 248 273 c 0,35,36
 230 264 230 264 170 264 c 2,37,-1
 164 264 l 2,0,1
EndSplineSet
Validated: 1
Substitution2: "Single Substitution lookup 3 subtable" hyphen.ss01
Substitution2: "Single Substitution lookup 2 subtable" hyphen.ss01
EndChar

StartChar: period
Encoding: 46 46 18
Width: 201
GlyphClass: 2
Flags: W
LayerCount: 2
Fore
SplineSet
121 82 m 0,0,1
 118 82 118 82 102 70 c 128,-1,2
 86 58 86 58 84 58 c 0,3,4
 78 58 78 58 78 54 c 0,5,6
 78 45 78 45 66 54 c 0,7,8
 65 55 65 55 63 57 c 256,9,10
 61 59 61 59 55 63.5 c 128,-1,11
 49 68 49 68 48 69 c 0,12,13
 42 74 42 74 42 92 c 0,14,15
 42 105 42 105 46 108 c 0,16,17
 49 110 49 110 51 121 c 128,-1,18
 53 132 53 132 68 149 c 0,19,20
 82 165 82 165 82 171 c 0,21,22
 82 176 82 176 89.5 181.5 c 128,-1,23
 97 187 97 187 104 187 c 128,-1,24
 111 187 111 187 117 193 c 0,25,26
 128 204 128 204 143 189 c 0,27,28
 159 171 159 171 159 136 c 0,29,30
 159 129 159 129 157 119 c 0,31,32
 153 108 153 108 140.5 95 c 128,-1,33
 128 82 128 82 121 82 c 0,0,1
EndSplineSet
Validated: 1
Substitution2: "Single Substitution lookup 3 subtable" period.ss01
Substitution2: "Single Substitution lookup 2 subtable" period.ss01
EndChar

StartChar: slash
Encoding: 47 47 19
Width: 619
GlyphClass: 2
Flags: W
LayerCount: 2
Fore
SplineSet
361 505 m 0,0,1
 361 507 361 507 370 521 c 128,-1,2
 379 535 379 535 379 538 c 0,3,4
 379 545 379 545 384 548 c 0,5,6
 388 551 388 551 402.5 574.5 c 128,-1,7
 417 598 417 598 420 601 c 0,8,9
 425 606 425 606 443 630 c 128,-1,10
 461 654 461 654 488.5 685.5 c 128,-1,11
 516 717 516 717 521 719 c 0,12,13
 527 721 527 721 531 713 c 0,14,15
 535 703 535 703 540 708 c 0,16,17
 546 712 546 712 546 717 c 256,18,19
 546 722 546 722 552 723 c 0,20,21
 573 729 573 729 573 710 c 0,22,23
 573 697 573 697 550 668 c 0,24,25
 542 658 542 658 542 646 c 128,-1,26
 542 634 542 634 535 625 c 128,-1,27
 528 616 528 616 528 613 c 0,28,29
 528 611 528 611 517 596 c 0,30,31
 507 581 507 581 507 573 c 0,32,33
 508 565 508 565 502 565 c 0,34,35
 497 565 497 565 497 559 c 0,36,37
 497 554 497 554 485 534.5 c 128,-1,38
 473 515 473 515 466 509 c 0,39,40
 461 506 461 506 461 502 c 128,-1,41
 461 498 461 498 453 488 c 0,42,43
 445 480 445 480 439 470 c 0,44,45
 438 468 438 468 434 463 c 128,-1,46
 430 458 430 458 423 449 c 128,-1,47
 416 440 416 440 412 434 c 0,48,49
 368 377 368 377 358 345 c 0,50,51
 354 332 354 332 348 328 c 0,52,53
 343 323 343 323 343 318 c 0,54,55
 343 315 343 315 336 304 c 128,-1,56
 329 293 329 293 329 291 c 128,-1,57
 329 289 329 289 320.5 280.5 c 128,-1,58
 312 272 312 272 312 270 c 128,-1,59
 312 268 312 268 303 254.5 c 128,-1,60
 294 241 294 241 294 238 c 0,61,62
 294 232 294 232 288 230 c 0,63,64
 283 228 283 228 281 221 c 0,65,66
 280 219 280 219 267.5 197.5 c 128,-1,67
 255 176 255 176 255 171 c 0,68,69
 255 165 255 165 244 154 c 0,70,71
 233 141 233 141 231 133 c 0,72,73
 230 130 230 130 223 117.5 c 128,-1,74
 216 105 216 105 216 101 c 128,-1,75
 216 97 216 97 203 82 c 0,76,77
 191 67 191 67 191 56 c 128,-1,78
 191 45 191 45 178 32 c 0,79,80
 159 13 159 13 159 23 c 0,81,82
 159 29 159 29 155 26 c 2,83,-1
 150 18 l 2,84,85
 149 13 149 13 143.5 6 c 128,-1,86
 138 -1 138 -1 138 -7 c 128,-1,87
 138 -13 138 -13 134.5 -17.5 c 128,-1,88
 131 -22 131 -22 131 -27 c 0,89,90
 131 -33 131 -33 120 -40 c 128,-1,91
 109 -47 109 -47 104 -59 c 0,92,93
 97 -74 97 -74 92 -77 c 0,94,95
 84 -81 84 -81 84 -84 c 128,-1,96
 84 -87 84 -87 75 -101 c 0,97,98
 66 -116 66 -116 55 -116 c 0,99,100
 49 -116 49 -116 46 -111 c 0,101,102
 44 -109 44 -109 44 -104 c 0,103,104
 44 -91 44 -91 61 -36 c 0,105,106
 61 -31 61 -31 66 -26 c 0,107,108
 67 -25 67 -25 69.5 -16 c 128,-1,109
 72 -7 72 -7 75.5 1 c 128,-1,110
 79 9 79 9 81 9 c 0,111,112
 84 9 84 9 84 14 c 0,113,114
 84 16 84 16 95 38.5 c 128,-1,115
 106 61 106 61 106 63 c 0,116,117
 106 68 106 68 113 75 c 0,118,119
 118 80 118 80 128 98 c 0,120,121
 130 101 130 101 151 141 c 0,122,123
 166 169 166 169 166 174 c 0,124,125
 166 180 166 180 175 191 c 0,126,127
 179 195 179 195 188.5 215.5 c 128,-1,128
 198 236 198 236 203 240 c 0,129,130
 209 244 209 244 209 247 c 128,-1,131
 209 250 209 250 215 259.5 c 128,-1,132
 221 269 221 269 228.5 279.5 c 128,-1,133
 236 290 236 290 236 291 c 0,134,135
 262 341 262 341 275 362 c 0,136,137
 303 409 303 409 305 413 c 0,138,139
 314 426 314 426 327 448 c 128,-1,140
 340 470 340 470 350 485 c 0,141,142
 361 502 361 502 361 505 c 0,0,1
EndSplineSet
Validated: 1
Substitution2: "Single Substitution lookup 3 subtable" slash.ss01
Substitution2: "Single Substitution lookup 2 subtable" slash.ss01
EndChar

StartChar: zero
Encoding: 48 48 20
Width: 668
GlyphClass: 2
Flags: W
LayerCount: 2
Fore
SplineSet
160 199 m 0,0,1
 160 203 160 203 146 217 c 0,2,3
 134 228 134 228 135 224 c 0,4,5
 136 223 136 223 137 221 c 0,6,7
 141 214 141 214 148.5 206 c 128,-1,8
 156 198 156 198 159 198 c 0,9,10
 160 198 160 198 160 199 c 0,0,1
244 234 m 0,11,12
 244 231 244 231 230.5 216.5 c 128,-1,13
 217 202 217 202 217 200 c 0,14,15
 217 196 217 196 238 183 c 128,-1,16
 259 170 259 170 265 170 c 0,17,18
 274 170 274 170 284 176 c 0,19,20
 289 180 289 180 310 184.5 c 128,-1,21
 331 189 331 189 336 194 c 0,22,23
 337 195 337 195 349.5 201.5 c 128,-1,24
 362 208 362 208 373.5 215 c 128,-1,25
 385 222 385 222 385 224 c 0,26,27
 385 227 385 227 390 227 c 0,28,29
 396 227 396 227 418.5 248.5 c 128,-1,30
 441 270 441 270 445 280 c 0,31,32
 452 294 452 294 475 322 c 0,33,34
 509 363 509 363 518.5 380.5 c 128,-1,35
 528 398 528 398 535 432 c 0,36,37
 544 473 544 473 544 488 c 0,38,39
 544 500 544 500 533 525.5 c 128,-1,40
 522 551 522 551 512 561 c 0,41,42
 504 571 504 571 498 571 c 0,43,44
 494 571 494 571 486 563.5 c 128,-1,45
 478 556 478 556 478 551 c 128,-1,46
 478 546 478 546 466 532 c 0,47,48
 456 520 456 520 442 495 c 0,49,50
 431 473 431 473 411 451 c 0,51,52
 393 430 393 430 367.5 396.5 c 128,-1,53
 342 363 342 363 340 357 c 0,54,55
 337 349 337 349 312.5 317 c 128,-1,56
 288 285 288 285 269 266 c 0,57,58
 244 241 244 241 244 234 c 0,11,12
348 638 m 0,59,60
 344 654 344 654 330 640 c 0,61,62
 324 634 324 634 301 626 c 0,63,64
 279 619 279 619 279 615 c 128,-1,65
 279 611 279 611 272 611 c 0,66,67
 262 611 262 611 220.5 574 c 128,-1,68
 179 537 179 537 179 529 c 0,69,70
 179 510 179 510 170 510 c 0,71,72
 165 510 165 510 152 482 c 0,73,74
 136 447 136 447 125 427 c 0,75,76
 111 399 111 399 111 380 c 0,77,78
 111 364 111 364 122 339 c 0,79,80
 133 313 133 313 133 310 c 0,81,82
 133 306 133 306 157.5 269 c 128,-1,83
 182 232 182 232 186 229 c 0,84,85
 191 227 191 227 198 239 c 0,86,87
 206 252 206 252 223.5 272.5 c 128,-1,88
 241 293 241 293 249 303 c 0,89,90
 253 308 253 308 274 335.5 c 128,-1,91
 295 363 295 363 307 379 c 0,92,93
 345 430 345 430 345 432 c 0,94,95
 345 437 345 437 358 452 c 0,96,97
 373 472 373 472 383 491 c 0,98,99
 395 515 395 515 400 519 c 0,100,101
 407 524 407 524 407 529 c 0,102,103
 407 533 407 533 415 541 c 0,104,105
 417 543 417 543 421 550 c 128,-1,106
 425 557 425 557 426 558 c 0,107,108
 427 560 427 560 434.5 570.5 c 128,-1,109
 442 581 442 581 446 587 c 2,110,-1
 460 607 l 1,111,-1
 448 607 l 2,112,113
 434 607 434 607 426 613 c 128,-1,114
 418 619 418 619 413 619 c 2,115,-1
 411 618 l 2,116,117
 409 618 409 618 408 618 c 0,118,119
 398 618 398 618 383.5 623 c 128,-1,120
 369 628 369 628 367 632 c 0,121,122
 361 639 361 639 360 635 c 0,123,124
 353 621 353 621 348 638 c 0,59,60
426 664 m 0,125,126
 428 664 428 664 452 653 c 128,-1,127
 476 642 476 642 478 642 c 0,128,129
 482 642 482 642 493 659 c 0,130,131
 540 731 540 731 576 776 c 0,132,133
 594 797 594 797 603 797 c 0,134,135
 609 797 609 797 614 793 c 0,136,137
 616 792 616 792 616 786 c 0,138,139
 616 776 616 776 606 756 c 128,-1,140
 596 736 596 736 591 731 c 0,141,142
 582 721 582 721 588 717 c 0,143,144
 595 713 595 713 607 715 c 0,145,146
 610 716 610 716 614 716 c 0,147,148
 622 716 622 716 622 710 c 0,149,150
 622 703 622 703 612 696 c 0,151,152
 598 686 598 686 595 686 c 0,153,154
 588 686 588 686 558 654 c 0,155,156
 523 619 523 619 523 605 c 0,157,158
 523 595 523 595 543 578 c 0,159,160
 584 544 584 544 584 498 c 0,161,162
 584 487 584 487 581 478 c 0,163,164
 576 462 576 462 572 436 c 0,165,166
 571 418 571 418 562 391 c 128,-1,167
 553 364 553 364 547 357 c 0,168,169
 544 354 544 354 544 347 c 0,170,171
 544 336 544 336 518 298.5 c 128,-1,172
 492 261 492 261 472 244 c 0,173,174
 458 232 458 232 448 222 c 128,-1,175
 438 212 438 212 430 204.5 c 128,-1,176
 422 197 422 197 405 185 c 0,177,178
 382 168 382 168 369 155 c 0,179,180
 355 141 355 141 323 126 c 0,181,182
 305 117 305 117 285 117 c 0,183,184
 272 117 272 117 267 122 c 0,185,186
 261 128 261 128 227 128 c 0,187,188
 194 128 194 128 180 134 c 0,189,190
 167 139 167 139 157 129 c 0,191,192
 149 122 149 122 123.5 85 c 128,-1,193
 98 48 98 48 98 43 c 128,-1,194
 98 38 98 38 82.5 17 c 128,-1,195
 67 -4 67 -4 63 -5 c 0,196,197
 57 -7 57 -7 51 -1.5 c 128,-1,198
 45 4 45 4 45 12 c 128,-1,199
 45 20 45 20 58 48 c 128,-1,200
 71 76 71 76 76 79 c 0,201,202
 80 80 80 80 92 104 c 0,203,204
 103 126 103 126 119 144 c 0,205,206
 130 156 130 156 131 159.5 c 128,-1,207
 132 163 132 163 127 169 c 0,208,209
 120 176 120 176 120 182 c 128,-1,210
 120 188 120 188 107 201 c 0,211,212
 93 217 93 217 79 247 c 2,213,-1
 63 279 l 1,214,-1
 67 329 l 2,215,216
 71 385 71 385 71 410 c 0,217,218
 71 470 71 470 96 512 c 0,219,220
 104 526 104 526 160 582 c 128,-1,221
 216 638 216 638 222 638 c 0,222,223
 227 638 227 638 241 652 c 0,224,225
 274 683 274 683 343 689 c 0,226,227
 349 690 349 690 358 690 c 0,228,229
 373 690 373 690 386 682 c 0,230,231
 403 673 403 673 407 675 c 0,232,233
 410 677 410 677 417.5 670.5 c 128,-1,234
 425 664 425 664 426 664 c 0,125,126
EndSplineSet
Validated: 1
EndChar

StartChar: one
Encoding: 49 49 21
Width: 607
GlyphClass: 2
Flags: W
LayerCount: 2
Fore
SplineSet
178 139 m 0,0,1
 179 143 179 143 174 144 c 0,2,3
 167 144 167 144 163 138 c 0,4,5
 162 133 162 133 167 133 c 0,6,7
 175 134 175 134 178 139 c 0,0,1
317 690 m 0,8,9
 338 712 338 712 345 712 c 0,10,11
 348 712 348 712 362 708 c 0,12,13
 366 707 366 707 366.5 695.5 c 128,-1,14
 367 684 367 684 363 682 c 128,-1,15
 359 680 359 680 359 639 c 0,16,17
 359 614 359 614 348 517 c 0,18,19
 344 481 344 481 325 408 c 0,20,21
 315 369 315 369 313 336 c 0,22,23
 312 311 312 311 302.5 259 c 128,-1,24
 293 207 293 207 293 191 c 0,25,26
 293 170 293 170 312 181 c 0,27,28
 317 184 317 184 341 188 c 0,29,30
 358 192 358 192 385 192 c 0,31,32
 389 192 389 192 403 191.5 c 128,-1,33
 417 191 417 191 426 191 c 0,34,35
 457 191 457 191 467 193 c 0,36,37
 484 196 484 196 490 191 c 0,38,39
 494 187 494 187 522 185 c 0,40,41
 547 183 547 183 554.5 179.5 c 128,-1,42
 562 176 562 176 562 166 c 128,-1,43
 562 156 562 156 555.5 153 c 128,-1,44
 549 150 549 150 525 149 c 0,45,46
 508 148 508 148 489 143.5 c 128,-1,47
 470 139 470 139 444 138 c 0,48,49
 344 132 344 132 326 123 c 0,50,51
 310 114 310 114 234 114 c 0,52,53
 218 114 218 114 179.5 103 c 128,-1,54
 141 92 141 92 136 86 c 0,55,56
 133 82 133 82 129 81 c 128,-1,57
 125 80 125 80 121.5 82.5 c 128,-1,58
 118 85 118 85 117 90 c 0,59,60
 115 96 115 96 109.5 97 c 128,-1,61
 104 98 104 98 82 98 c 0,62,63
 45 98 45 98 45 106 c 2,64,-1
 46 108 l 2,65,66
 46 110 46 110 46 111 c 0,67,68
 51 129 51 129 83 131 c 0,69,70
 108 132 108 132 124 146 c 0,71,72
 133 153 133 153 143 154 c 0,73,74
 150 155 150 155 153 157 c 128,-1,75
 156 159 156 159 155 164 c 0,76,77
 154 171 154 171 164 180 c 0,78,79
 172 187 172 187 187 187 c 0,80,81
 200 187 200 187 210 186 c 0,82,83
 219 186 219 186 228.5 185 c 128,-1,84
 238 184 238 184 244 183 c 128,-1,85
 250 182 250 182 251 182 c 0,86,87
 260 182 260 182 267 286 c 0,88,89
 269 326 269 326 276 368 c 0,90,91
 278 384 278 384 283 436 c 128,-1,92
 288 488 288 488 292 510 c 0,93,94
 307 581 307 581 307 623 c 1,95,-1
 306 628 l 2,96,97
 304 630 304 630 261.5 587.5 c 128,-1,98
 219 545 219 545 211 533 c 0,99,100
 207 527 207 527 207 515 c 0,101,102
 207 508 207 508 199 500.5 c 128,-1,103
 191 493 191 493 183 493 c 0,104,105
 174 493 174 493 163 504 c 2,106,-1
 153 515 l 1,107,-1
 166 528 l 2,108,109
 179 541 179 541 179 547 c 0,110,111
 179 552 179 552 197 570 c 0,112,113
 208 581 208 581 235 612.5 c 128,-1,114
 262 644 262 644 267 651 c 0,115,116
 271 655 271 655 283 660 c 0,117,118
 293 664 293 664 317 690 c 0,8,9
EndSplineSet
Validated: 33
EndChar

StartChar: two
Encoding: 50 50 22
Width: 535
GlyphClass: 2
Flags: W
LayerCount: 2
Fore
SplineSet
198 104 m 128,-1,1
 198 108 198 108 194 108 c 128,-1,2
 190 108 190 108 190 104 c 128,-1,3
 190 100 190 100 194 100 c 128,-1,0
 198 100 198 100 198 104 c 128,-1,1
303 336 m 0,4,5
 303 340 303 340 311.5 347.5 c 128,-1,6
 320 355 320 355 320 361 c 0,7,8
 320 371 320 371 326 373 c 0,9,10
 332 377 332 377 332 380 c 2,11,-1
 340 402 l 2,12,13
 342 407 342 407 345 413.5 c 128,-1,14
 348 420 348 420 351.5 427.5 c 128,-1,15
 355 435 355 435 356 438 c 0,16,17
 364 456 364 456 364 458 c 0,18,19
 364 459 364 459 374 475 c 0,20,21
 382 488 382 488 382 507 c 0,22,23
 382 521 382 521 381 532 c 0,24,25
 379 575 379 575 376 580 c 0,26,27
 367 591 367 591 331.5 602.5 c 128,-1,28
 296 614 296 614 272 614 c 0,29,30
 244 614 244 614 202 577 c 0,31,32
 151 532 151 532 148 464 c 0,33,34
 147 433 147 433 142 433 c 2,35,-1
 141 433 l 1,36,-1
 139 433 l 2,37,38
 134 433 134 433 127 418 c 128,-1,39
 120 403 120 403 117 403 c 0,40,41
 113 403 113 403 113 397 c 0,42,43
 113 385 113 385 97 395 c 2,44,-1
 90 400 l 2,45,46
 81 409 81 409 81 439 c 0,47,48
 81 488 81 488 104 512 c 0,49,50
 113 521 113 521 123 538.5 c 128,-1,51
 133 556 133 556 133 562 c 0,52,53
 133 565 133 565 182 614 c 0,54,55
 203 636 203 636 214.5 649 c 128,-1,56
 226 662 226 662 224 662 c 0,57,58
 218 662 218 662 216 667 c 128,-1,59
 214 672 214 672 218 676 c 0,60,61
 225 683 225 683 241 683 c 0,62,63
 250 683 250 683 258 679 c 0,64,65
 264 676 264 676 309 669 c 128,-1,66
 354 662 354 662 360 659 c 0,67,68
 373 653 373 653 384.5 643 c 128,-1,69
 396 633 396 633 396 627 c 0,70,71
 396 622 396 622 408 612 c 0,72,73
 415 606 415 606 442 556 c 0,74,75
 448 544 448 544 448 511 c 0,76,77
 448 482 448 482 443 459 c 0,78,79
 429 394 429 394 414 363 c 0,80,81
 399 330 399 330 397 321 c 0,82,83
 396 316 396 316 389.5 305 c 128,-1,84
 383 294 383 294 380 294 c 0,85,86
 376 294 376 294 376 287 c 128,-1,87
 376 280 376 280 369 270 c 0,88,89
 366 266 366 266 347.5 234.5 c 128,-1,90
 329 203 329 203 322 196 c 0,91,92
 311 185 311 185 311 180 c 0,93,94
 311 174 311 174 305 168 c 0,95,96
 298 161 298 161 300 159 c 128,-1,97
 302 157 302 157 340 153 c 0,98,99
 379 149 379 149 407 139 c 0,100,101
 434 128 434 128 439 128 c 0,102,103
 449 130 449 130 451 127 c 128,-1,104
 453 124 453 124 452 114 c 0,105,106
 450 104 450 104 451.5 102 c 128,-1,107
 453 100 453 100 463 100 c 0,108,109
 479 100 479 100 484.5 96 c 128,-1,110
 490 92 490 92 490 81 c 0,111,112
 490 69 490 69 483.5 66 c 128,-1,113
 477 63 477 63 445 61 c 0,114,115
 424 60 424 60 398 54 c 0,116,117
 386 52 386 52 383 52 c 0,118,119
 374 52 374 52 365 56 c 0,120,121
 347 62 347 62 271 62 c 0,122,123
 200 62 200 62 162 69 c 0,124,125
 137 75 137 75 106 75 c 0,126,127
 71 75 71 75 52 91 c 0,128,129
 46 97 46 97 46 102 c 0,130,131
 46 110 46 110 62 123 c 128,-1,132
 78 136 78 136 78 143 c 0,133,134
 78 152 78 152 80 152 c 0,135,136
 85 152 85 152 85 158 c 0,137,138
 85 163 85 163 94 168 c 128,-1,139
 103 173 103 173 108 172 c 2,140,-1
 109 172 l 2,141,142
 116 172 116 172 137.5 179 c 128,-1,143
 159 186 159 186 160 189 c 0,144,145
 162 193 162 193 169 193 c 128,-1,146
 176 193 176 193 186 201 c 0,147,148
 192 207 192 207 211 219 c 0,149,150
 226 229 226 229 234 244 c 0,151,152
 243 261 243 261 252 269 c 0,153,154
 263 280 263 280 263 283 c 128,-1,155
 263 286 263 286 271 293 c 128,-1,156
 279 300 279 300 279 303 c 0,157,158
 279 307 279 307 291 320 c 128,-1,159
 303 333 303 333 303 336 c 0,4,5
EndSplineSet
Validated: 1
EndChar

StartChar: three
Encoding: 51 51 23
Width: 393
GlyphClass: 2
Flags: W
LayerCount: 2
Fore
SplineSet
106 137 m 0,0,1
 106 140 106 140 101 140 c 0,2,3
 97 140 97 140 99 132 c 0,4,5
 100 123 100 123 116 122 c 0,6,7
 130 121 130 121 130 124.5 c 128,-1,8
 130 128 130 128 117 131 c 0,9,10
 106 133 106 133 106 137 c 0,0,1
43 530 m 0,11,12
 43 538 43 538 53 560.5 c 128,-1,13
 63 583 63 583 63 587 c 0,14,15
 63 589 63 589 61 589 c 0,16,17
 56 589 56 589 49.5 597.5 c 128,-1,18
 43 606 43 606 43 613 c 0,19,20
 43 627 43 627 74 651.5 c 128,-1,21
 105 676 105 676 135 686 c 0,22,23
 137 687 137 687 146 687 c 0,24,25
 170 687 170 687 213.5 677.5 c 128,-1,26
 257 668 257 668 278 658 c 0,27,28
 288 653 288 653 310.5 631 c 128,-1,29
 333 609 333 609 333 605 c 0,30,31
 333 598 333 598 338 584 c 0,32,33
 350 555 350 555 350 516 c 0,34,35
 350 501 350 501 347 492 c 0,36,37
 344 484 344 484 344 470 c 0,38,39
 344 450 344 450 309 417 c 0,40,41
 289 398 289 398 289 395 c 0,42,43
 289 394 289 394 294 392 c 0,44,45
 318 386 318 386 330 359 c 0,46,47
 337 344 337 344 337 271 c 2,48,-1
 337 198 l 1,49,-1
 315 171 l 2,50,51
 293 144 293 144 295 144 c 0,52,53
 296 144 296 144 312 152 c 0,54,55
 322 158 322 158 327 158 c 0,56,57
 329 158 329 158 329 157 c 0,58,59
 329 153 329 153 315 141 c 0,60,61
 306 134 306 134 288 117.5 c 128,-1,62
 270 101 270 101 246 86 c 0,63,64
 227 74 227 74 227 70 c 128,-1,65
 227 66 227 66 221 66 c 128,-1,66
 215 66 215 66 200 55 c 0,67,68
 186 44 186 44 174 44 c 0,69,70
 163 44 163 44 127.5 62 c 128,-1,71
 92 80 92 80 81 91 c 0,72,73
 76 96 76 96 71 96 c 0,74,75
 67 96 67 96 57 104 c 0,76,77
 49 110 49 110 48.5 112.5 c 128,-1,78
 48 115 48 115 52 123 c 0,79,80
 58 133 58 133 52 145 c 0,81,82
 47 157 47 157 47 168 c 0,83,84
 47 185 47 185 55 187 c 2,85,-1
 61 187 l 2,86,87
 87 187 87 187 87 179 c 0,88,89
 87 175 87 175 106.5 170.5 c 128,-1,90
 126 166 126 166 144 166 c 0,91,92
 157 166 157 166 177 160 c 0,93,94
 195 155 195 155 207 155 c 0,95,96
 244 155 244 155 271 190 c 0,97,98
 280 203 280 203 289 209 c 0,99,100
 297 214 297 214 297 246 c 0,101,102
 297 271 297 271 292 297.5 c 128,-1,103
 287 324 287 324 280 331 c 0,104,105
 275 336 275 336 273 345 c 128,-1,106
 271 354 271 354 260 363 c 0,107,108
 251 371 251 371 235 371 c 0,109,110
 218 371 218 371 204 370 c 0,111,112
 164 368 164 368 145 366 c 0,113,114
 144 366 144 366 141 365.5 c 128,-1,115
 138 365 138 365 136 365 c 0,116,117
 113 365 113 365 113 385 c 0,118,119
 113 396 113 396 120 399 c 0,120,121
 127 401 127 401 175 405 c 0,122,123
 220 408 220 408 239 413 c 0,124,125
 253 416 253 416 279 441 c 2,126,-1
 306 467 l 1,127,-1
 308 511 l 1,128,-1
 308 522 l 2,129,130
 308 574 308 574 285 598 c 0,131,132
 267 618 267 618 226 618 c 0,133,134
 201 618 201 618 177 607 c 0,135,136
 161 599 161 599 143 588 c 128,-1,137
 125 577 125 577 124 573 c 0,138,139
 121 566 121 566 94.5 540.5 c 128,-1,140
 68 515 68 515 64 515 c 0,141,142
 56 515 56 515 49.5 519.5 c 128,-1,143
 43 524 43 524 43 530 c 0,11,12
EndSplineSet
Validated: 33
EndChar

StartChar: four
Encoding: 52 52 24
Width: 557
GlyphClass: 2
Flags: W
LayerCount: 2
Fore
SplineSet
230 249 m 128,-1,1
 230 253 230 253 213 253 c 0,2,3
 198 253 198 253 198 250 c 0,4,5
 198 245 198 245 215 245 c 0,6,0
 230 245 230 245 230 249 c 128,-1,1
242 472 m 0,7,8
 242 471 242 471 228.5 448 c 128,-1,9
 215 425 215 425 215 424 c 0,10,11
 215 422 215 422 192 385.5 c 128,-1,12
 169 349 169 349 160 337 c 0,13,14
 149 322 149 322 149 319 c 128,-1,15
 149 316 149 316 137 302 c 0,16,17
 129 294 129 294 118 276.5 c 128,-1,18
 107 259 107 259 107 255 c 0,19,20
 107 250 107 250 130 250 c 0,21,22
 136 250 136 250 137 251 c 0,23,24
 138 254 138 254 147 258 c 0,25,26
 155 260 155 260 164 274 c 2,27,-1
 173 288 l 1,28,-1
 214 285 l 2,29,30
 224 285 224 285 235 284 c 128,-1,31
 246 283 246 283 252 282.5 c 128,-1,32
 258 282 258 282 259 282 c 0,33,34
 265 282 265 282 271 337 c 128,-1,35
 277 392 277 392 282.5 449 c 128,-1,36
 288 506 288 506 293 510 c 0,37,38
 296 512 296 512 296 521 c 0,39,40
 296 529 296 529 306 553 c 0,41,42
 315 573 315 573 315 582 c 0,43,44
 315 586 315 586 314 586 c 0,45,46
 311 586 311 586 305 573 c 0,47,48
 296 555 296 555 284 543 c 0,49,50
 276 535 276 535 271.5 529 c 128,-1,51
 267 523 267 523 261.5 512 c 128,-1,52
 256 501 256 501 252 494 c 0,53,54
 242 474 242 474 242 472 c 0,7,8
296 634 m 0,55,56
 296 637 296 637 305.5 649 c 128,-1,57
 315 661 315 661 315 664 c 0,58,59
 315 670 315 670 318 670 c 0,60,61
 320 670 320 670 330 689 c 0,62,63
 336 702 336 702 339.5 705 c 128,-1,64
 343 708 343 708 352 708 c 0,65,66
 363 708 363 708 373 702 c 0,67,68
 378 697 378 697 378.5 693 c 128,-1,69
 379 689 379 689 377 674 c 0,70,71
 364 584 364 584 362 575 c 0,72,73
 358 560 358 560 353.5 519.5 c 128,-1,74
 349 479 349 479 343.5 425.5 c 128,-1,75
 338 372 338 372 335 350 c 0,76,77
 333 326 333 326 333 315 c 2,78,-1
 333 306 l 2,79,80
 334 295 334 295 336.5 293.5 c 128,-1,81
 339 292 339 292 348 294 c 0,82,83
 361 296 361 296 361 299 c 0,84,85
 363 303 363 303 370 303 c 0,86,87
 376 303 376 303 401.5 310.5 c 128,-1,88
 427 318 427 318 438 323 c 0,89,90
 444 325 444 325 447 325 c 0,91,92
 465 325 465 325 469 309 c 0,93,94
 471 299 471 299 473 299 c 0,95,96
 494 299 494 299 507 291 c 0,97,98
 517 283 517 283 512 277 c 1,99,-1
 509 276 l 2,100,101
 505 276 505 276 505 268 c 0,102,103
 505 262 505 262 501.5 261 c 128,-1,104
 498 260 498 260 485 261 c 0,105,106
 470 262 470 262 466.5 260.5 c 128,-1,107
 463 259 463 259 460 251 c 0,108,109
 456 238 456 238 453 235 c 0,110,111
 449 231 449 231 424 226 c 128,-1,112
 399 221 399 221 381 221 c 0,113,114
 359 221 359 221 341 216 c 0,115,116
 326 213 326 213 323 210 c 128,-1,117
 320 207 320 207 318 195 c 0,118,119
 316 175 316 175 316 153 c 0,120,121
 316 126 316 126 311 102.5 c 128,-1,122
 306 79 306 79 301 79 c 0,123,124
 293 79 293 79 286 42.5 c 128,-1,125
 279 6 279 6 267 6 c 0,126,127
 266 6 266 6 260 8 c 0,128,129
 251 11 251 11 248 29 c 0,130,131
 244 59 244 59 244 97 c 0,132,133
 244 130 244 130 247 165 c 2,134,-1
 251 214 l 1,135,-1
 220 214 l 2,136,137
 194 214 194 214 118 224 c 0,138,139
 110 225 110 225 100 225 c 0,140,141
 87 225 87 225 86 218 c 0,142,143
 83 207 83 207 73 207 c 0,144,145
 60 207 60 207 60 222 c 0,146,147
 60 230 60 230 53 242 c 0,148,149
 45 256 45 256 45 257 c 0,150,151
 45 259 45 259 61 263 c 0,152,153
 72 265 72 265 75.5 268 c 128,-1,154
 79 271 79 271 82 281 c 0,155,156
 85 289 85 289 95.5 305 c 128,-1,157
 106 321 106 321 109 331 c 0,158,159
 114 347 114 347 120 355 c 0,160,161
 128 366 128 366 142.5 395 c 128,-1,162
 157 424 157 424 157 428 c 0,163,164
 157 431 157 431 168.5 443.5 c 128,-1,165
 180 456 180 456 180 460 c 0,166,167
 180 465 180 465 184 465 c 0,168,169
 187 465 187 465 191 478 c 0,170,171
 197 496 197 496 226 525 c 0,172,173
 234 533 234 533 234 538 c 128,-1,174
 234 543 234 543 247 554 c 0,175,176
 261 568 261 568 269 582 c 0,177,178
 276 599 276 599 286 614 c 0,179,180
 296 630 296 630 296 634 c 0,55,56
EndSplineSet
Validated: 1
EndChar

StartChar: five
Encoding: 53 53 25
Width: 490
GlyphClass: 2
Flags: W
LayerCount: 2
Fore
SplineSet
181 396 m 0,0,1
 181 397 181 397 179 397 c 128,-1,2
 177 397 177 397 177 396 c 0,3,4
 177 394 177 394 179 394 c 128,-1,5
 181 394 181 394 181 396 c 0,0,1
258 414 m 0,6,7
 251 422 251 422 231 422 c 0,8,9
 204 422 204 422 191 409 c 0,10,11
 186 404 186 404 186 403 c 128,-1,12
 186 402 186 402 188 402 c 0,13,14
 191 402 191 402 219 407 c 0,15,16
 234 410 234 410 248 410 c 2,17,-1
 254 410 l 2,18,19
 261 408 261 408 261.5 409 c 128,-1,20
 262 410 262 410 258 414 c 0,6,7
195 643 m 0,21,22
 195 644 195 644 188 644 c 0,23,24
 185 644 185 644 183 643 c 128,-1,25
 181 642 181 642 182 640 c 0,26,27
 184 638 184 638 189.5 639.5 c 128,-1,28
 195 641 195 641 195 643 c 0,21,22
252 630 m 0,29,30
 262 630 262 630 313 624 c 128,-1,31
 364 618 364 618 375 618 c 0,32,33
 390 618 390 618 392 615 c 0,34,35
 394 611 394 611 404 611 c 0,36,37
 409 611 409 611 411 609.5 c 128,-1,38
 413 608 413 608 412 605 c 0,39,40
 411 600 411 600 392.5 597.5 c 128,-1,41
 374 595 374 595 372 592 c 0,42,43
 370 588 370 588 362 588 c 0,44,45
 352 588 352 588 338 591 c 128,-1,46
 324 594 324 594 324 596 c 0,47,48
 324 597 324 597 317 597 c 0,49,50
 314 597 314 597 306 596.5 c 128,-1,51
 298 596 298 596 294 596 c 0,52,53
 287 596 287 596 287 598 c 0,54,55
 287 602 287 602 253 602 c 0,56,57
 221 602 221 602 201 604 c 2,58,-1
 195 604 l 2,59,60
 181 604 181 604 169 600 c 2,61,-1
 156 595 l 1,62,-1
 153 551 l 2,63,64
 152 536 152 536 150.5 502.5 c 128,-1,65
 149 469 149 469 149 465 c 0,66,67
 148 452 148 452 148 436 c 0,68,69
 148 423 148 423 151 423 c 0,70,71
 152 423 152 423 174 434.5 c 128,-1,72
 196 446 196 446 200 446 c 2,73,-1
 201 446 l 2,74,75
 202 445 202 445 203.5 446 c 128,-1,76
 205 447 205 447 206 448 c 0,77,78
 209 454 209 454 228 454 c 0,79,80
 249 454 249 454 256 447 c 0,81,82
 262 441 262 441 262 444 c 1,83,84
 263 444 263 444 265 443 c 0,85,86
 266 441 266 441 280 433 c 0,87,88
 293 426 293 426 310.5 408.5 c 128,-1,89
 328 391 328 391 328 386 c 0,90,91
 328 376 328 376 368 340 c 0,92,93
 381 329 381 329 385.5 317 c 128,-1,94
 390 305 390 305 390 280 c 0,95,96
 390 161 390 161 342 116 c 0,97,98
 325 99 325 99 264 77 c 0,99,100
 251 71 251 71 251 70 c 0,101,102
 251 68 251 68 228.5 56 c 128,-1,103
 206 44 206 44 202 44 c 0,104,105
 194 44 194 44 153.5 59 c 128,-1,106
 113 74 113 74 105 80 c 0,107,108
 95 88 95 88 88 88 c 128,-1,109
 81 88 81 88 81 93 c 0,110,111
 81 96 81 96 72 95 c 128,-1,112
 63 94 63 94 63 96 c 0,113,114
 63 99 63 99 53 101 c 0,115,116
 44 104 44 104 45 112 c 0,117,118
 46 122 46 122 63 122 c 128,-1,119
 80 122 80 122 93 113 c 0,120,121
 109 103 109 103 117 103 c 0,122,123
 126 103 126 103 148 95 c 128,-1,124
 170 87 170 87 193 87 c 0,125,126
 222 87 222 87 244 99 c 0,127,128
 263 109 263 109 281.5 134.5 c 128,-1,129
 300 160 300 160 331 216 c 0,130,131
 336 226 336 226 342 230 c 0,132,133
 347 235 347 235 347 258 c 0,134,135
 347 282 347 282 332 313 c 0,136,137
 313 351 313 351 297 364 c 128,-1,138
 281 377 281 377 251 377 c 2,139,-1
 247 377 l 2,140,141
 221 376 221 376 191 365.5 c 128,-1,142
 161 355 161 355 155 344 c 0,143,144
 150 335 150 335 143 335 c 128,-1,145
 136 335 136 335 125.5 329 c 128,-1,146
 115 323 115 323 113 318 c 0,147,148
 112 312 112 312 105 312 c 0,149,150
 99 312 99 312 92 318.5 c 128,-1,151
 85 325 85 325 85 333 c 0,152,153
 85 342 85 342 88 344 c 0,154,155
 90 346 90 346 92.5 363 c 128,-1,156
 95 380 95 380 97 400 c 2,157,-1
 99 421 l 2,158,159
 102 439 102 439 102 522 c 0,160,161
 102 613 102 613 109 615 c 0,162,163
 118 618 118 618 129 643 c 0,164,165
 134 652 134 652 139 654 c 0,166,167
 158 661 158 661 184 676 c 0,168,169
 190 679 190 679 206 679 c 2,170,-1
 216 679 l 1,171,172
 310 671 310 671 352 665 c 0,173,174
 400 659 400 659 415 659 c 2,175,-1
 419 659 l 2,176,177
 445 659 445 659 445 646 c 0,178,179
 445 641 445 641 437 631 c 2,180,-1
 429 623 l 1,181,-1
 376 629 l 2,182,183
 317 636 317 636 278 636 c 0,184,185
 252 636 252 636 243 633 c 0,186,187
 243 630 243 630 252 630 c 0,29,30
EndSplineSet
Validated: 1
EndChar

StartChar: six
Encoding: 54 54 26
Width: 680
GlyphClass: 2
Flags: W
LayerCount: 2
Fore
SplineSet
309 332 m 128,-1,1
 309 339 309 339 283 339 c 0,2,3
 242 338 242 338 192 301 c 128,-1,4
 142 264 142 264 126 223 c 0,5,6
 121 206 121 206 121 174 c 0,7,8
 121 145 121 145 125 138 c 0,9,10
 130 128 130 128 136 113 c 2,11,-1
 142 96 l 1,12,-1
 181 93 l 2,13,14
 190 92 190 92 205 92 c 0,15,16
 228 92 228 92 261 98 c 0,17,18
 315 110 315 110 333 131 c 0,19,20
 339 138 339 138 362 151 c 0,21,22
 379 159 379 159 387 168.5 c 128,-1,23
 395 178 395 178 403 202 c 0,24,25
 407 213 407 213 407 222 c 0,26,27
 407 230 407 230 404 239 c 0,28,29
 398 256 398 256 379.5 282 c 128,-1,30
 361 308 361 308 350 315 c 0,31,32
 336 323 336 323 336 325 c 128,-1,33
 336 327 336 327 322.5 326 c 128,-1,0
 309 325 309 325 309 332 c 128,-1,1
449 694 m 0,34,35
 450 697 450 697 476 697 c 0,36,37
 525 697 525 697 567 689 c 0,38,39
 590 684 590 684 610.5 674.5 c 128,-1,40
 631 665 631 665 634 658 c 0,41,42
 635 657 635 657 635 653 c 0,43,44
 635 645 635 645 627 636 c 128,-1,45
 619 627 619 627 611 627 c 128,-1,46
 603 627 603 627 593 622 c 0,47,48
 583 614 583 614 497 599 c 0,49,50
 454 590 454 590 449 585 c 0,51,52
 447 583 447 583 414.5 575 c 128,-1,53
 382 567 382 567 380 564 c 0,54,55
 377 560 377 560 357 560 c 0,56,57
 324 560 324 560 317 567 c 0,58,59
 312 572 312 572 306 572 c 0,60,61
 295 572 295 572 269 547 c 0,62,63
 250 526 250 526 238 526 c 0,64,65
 221 526 221 526 165 422 c 0,66,67
 163 419 163 419 155.5 404 c 128,-1,68
 148 389 148 389 145 384 c 0,69,70
 126 355 126 355 117 316 c 0,71,72
 115 309 115 309 117 308 c 0,73,74
 119 308 119 308 133 321 c 0,75,76
 153 339 153 339 161 342 c 0,77,78
 171 344 171 344 171 348 c 128,-1,79
 171 352 171 352 191.5 362 c 128,-1,80
 212 372 212 372 225 374 c 0,81,82
 265 382 265 382 285 382 c 0,83,84
 312 382 312 382 328 371 c 0,85,86
 348 358 348 358 360 351 c 0,87,88
 402 325 402 325 412 315 c 0,89,90
 420 307 420 307 426 307 c 0,91,92
 443 307 443 307 452 248 c 0,93,94
 455 230 455 230 455 218 c 0,95,96
 455 189 455 189 434 162 c 0,97,98
 432 160 432 160 417.5 141.5 c 128,-1,99
 403 123 403 123 392.5 112.5 c 128,-1,100
 382 102 382 102 372 94 c 0,101,102
 353 82 353 82 334 63 c 0,103,104
 318 48 318 48 281.5 33 c 128,-1,105
 245 18 245 18 224 17 c 2,106,-1
 222 17 l 2,107,108
 209 17 209 17 185 24.5 c 128,-1,109
 161 32 161 32 150 40 c 0,110,111
 145 45 145 45 128 47 c 0,112,113
 87 55 87 55 65 102 c 0,114,115
 44 144 44 144 44 178 c 0,116,117
 44 193 44 193 49 218 c 0,118,119
 57 248 57 248 59 277 c 0,120,121
 60 301 60 301 70 340 c 128,-1,122
 80 379 80 379 88 395 c 0,123,124
 97 413 97 413 97 418 c 0,125,126
 97 422 97 422 117 451 c 0,127,128
 129 467 129 467 143 492 c 0,129,130
 151 509 151 509 176.5 535.5 c 128,-1,131
 202 562 202 562 215 567 c 0,132,133
 229 572 229 572 249 587.5 c 128,-1,134
 269 603 269 603 280 616 c 0,135,136
 295 631 295 631 325 645 c 0,137,138
 359 663 359 663 359 666 c 0,139,140
 359 670 359 670 372 672 c 2,141,-1
 402 682 l 2,142,143
 432 691 432 691 440 691 c 2,144,-1
 442 691 l 2,145,146
 446 689 446 689 449 694 c 0,34,35
EndSplineSet
Validated: 1
EndChar

StartChar: seven
Encoding: 55 55 27
Width: 538
GlyphClass: 2
Flags: W
LayerCount: 2
Fore
SplineSet
196 575 m 0,0,1
 198 577 198 577 192 578 c 0,2,3
 179 578 179 578 179 575 c 0,4,5
 179 569 179 569 196 575 c 0,0,1
224 582 m 256,6,7
 226 585 226 585 225 585 c 2,8,-1
 224 584 l 2,9,10
 222 584 222 584 220 583 c 128,-1,11
 218 582 218 582 216 582 c 0,12,13
 204 579 204 579 215 579 c 0,14,15
 222 579 222 579 224 582 c 256,6,7
260 589 m 256,16,17
 261 588 261 588 263 588 c 0,18,19
 264 590 264 590 262 592 c 0,20,21
 261 592 261 592 260 591 c 128,-1,22
 259 590 259 590 260 589 c 256,16,17
143 39 m 0,23,24
 143 35 143 35 138 23.5 c 128,-1,25
 133 12 133 12 133 10 c 0,26,27
 133 5 133 5 132 2 c 0,28,29
 129 -6 129 -6 122 -4 c 0,30,31
 120 -4 120 -4 120 -1 c 128,-1,32
 120 2 120 2 118 2 c 0,33,34
 112 2 112 2 102 -19 c 0,35,36
 69 -80 69 -80 60 -80 c 0,37,38
 50 -80 50 -80 50 -66 c 0,39,40
 50 -61 50 -61 63 -39 c 0,41,42
 76 -16 76 -16 78 -4 c 0,43,44
 80 9 80 9 84 11 c 0,45,46
 88 15 88 15 94 28 c 0,47,48
 96 33 96 33 103 45.5 c 128,-1,49
 110 58 110 58 112 62 c 0,50,51
 142 115 142 115 159 158 c 0,52,53
 172 191 172 191 190 225 c 0,54,55
 193 230 193 230 193 236 c 128,-1,56
 193 242 193 242 200 252 c 0,57,58
 208 264 208 264 213 277 c 2,59,-1
 219 291 l 1,60,-1
 196 289 l 2,61,62
 189 288 189 288 181 288 c 0,63,64
 172 288 172 288 165 296 c 0,65,66
 157 304 157 304 144 302 c 0,67,68
 129 299 129 299 123 299 c 0,69,70
 115 299 115 299 114 309 c 0,71,72
 113 320 113 320 121 322 c 0,73,74
 126 323 126 323 132 328 c 128,-1,75
 138 333 138 333 146 333 c 0,76,77
 155 333 155 333 177.5 339.5 c 128,-1,78
 200 346 200 346 202 349 c 0,79,80
 204 353 204 353 216.5 356.5 c 128,-1,81
 229 360 229 360 239 360 c 0,82,83
 247 360 247 360 249.5 362 c 128,-1,84
 252 364 252 364 257 374 c 0,85,86
 258 378 258 378 261 384 c 128,-1,87
 264 390 264 390 268.5 399 c 128,-1,88
 273 408 273 408 276 414 c 0,89,90
 289 440 289 440 289 444 c 0,91,92
 289 445 289 445 295 461 c 0,93,94
 301 472 301 472 317 508 c 128,-1,95
 333 544 333 544 340 557 c 0,96,97
 351 582 351 582 351 590 c 0,98,99
 351 595 351 595 347 595 c 0,100,101
 336 595 336 595 304 578 c 0,102,103
 301 576 301 576 282 572 c 0,104,105
 203 555 203 555 192 555 c 0,106,107
 183 555 183 555 183 552 c 128,-1,108
 183 549 183 549 165 549 c 0,109,110
 140 549 140 549 130 554 c 0,111,112
 111 563 111 563 118 579 c 0,113,114
 119 582 119 582 116 583.5 c 128,-1,115
 113 585 113 585 104 586 c 0,116,117
 70 590 70 590 53 604 c 0,118,119
 43 611 43 611 43 620 c 0,120,121
 43 631 43 631 56 631 c 0,122,123
 61 631 61 631 63 630 c 0,124,125
 71 628 71 628 71.5 629 c 128,-1,126
 72 630 72 630 70 634 c 0,127,128
 69 636 69 636 69 639 c 0,129,130
 69 645 69 645 80 645 c 0,131,132
 100 645 100 645 110 638 c 0,133,134
 127 629 127 629 180 629 c 0,135,136
 227 629 227 629 247 636 c 0,137,138
 259 640 259 640 267.5 644.5 c 128,-1,139
 276 649 276 649 286 652.5 c 128,-1,140
 296 656 296 656 318 661 c 0,141,142
 353 668 353 668 363 668 c 0,143,144
 372 668 372 668 373 665 c 0,145,146
 375 661 375 661 385 663 c 0,147,148
 394 666 394 666 398 659 c 0,149,150
 401 655 401 655 408 655 c 0,151,152
 413 655 413 655 422 657.5 c 128,-1,153
 431 660 431 660 432 660 c 0,154,155
 434 660 434 660 434 659 c 0,156,157
 434 656 434 656 444 654 c 0,158,159
 449 654 449 654 451.5 651 c 128,-1,160
 454 648 454 648 452.5 645.5 c 128,-1,161
 451 643 451 643 446 642 c 0,162,163
 436 639 436 639 436 638 c 0,164,165
 436 635 436 635 458 635 c 0,166,167
 493 635 493 635 493 625 c 0,168,169
 493 624 493 624 492 623 c 0,170,171
 488 619 488 619 485 611 c 0,172,173
 482 604 482 604 478 602.5 c 128,-1,174
 474 601 474 601 457 601 c 0,175,176
 419 601 419 601 414 592 c 0,177,178
 395 544 395 544 378 516 c 128,-1,179
 361 488 361 488 361 479 c 0,180,181
 361 474 361 474 358 470 c 0,182,183
 357 469 357 469 355 464 c 128,-1,184
 353 459 353 459 349 451 c 128,-1,185
 345 443 345 443 342 436 c 0,186,187
 338 428 338 428 328.5 410 c 128,-1,188
 319 392 319 392 316 387 c 0,189,190
 305 365 305 365 307 363 c 0,191,192
 320 350 320 350 380 350 c 0,193,194
 414 350 414 350 414 343 c 0,195,196
 414 341 414 341 411 334.5 c 128,-1,197
 408 328 408 328 406 323 c 0,198,199
 405 318 405 318 382 318 c 2,200,-1
 346 318 l 1,201,-1
 321 318 l 2,202,203
 285 318 285 318 283 316 c 0,204,205
 276 312 276 312 256 261 c 128,-1,206
 236 210 236 210 236 198 c 0,207,208
 236 192 236 192 228 182 c 0,209,210
 219 172 219 172 212 177 c 0,211,212
 207 179 207 179 205 177.5 c 128,-1,213
 203 176 203 176 196 160 c 0,214,215
 186 140 186 140 186 132 c 0,216,217
 186 125 186 125 179 120 c 0,218,219
 173 116 173 116 171 107 c 0,220,221
 163 80 163 80 146 51 c 0,222,223
 143 46 143 46 143 39 c 0,23,24
EndSplineSet
Validated: 1
EndChar

StartChar: eight
Encoding: 56 56 28
Width: 593
GlyphClass: 2
Flags: W
LayerCount: 2
Fore
SplineSet
273 -29 m 0,0,1
 278 -29 278 -29 278 -26 c 0,2,3
 278 -22 278 -22 273 -22 c 0,4,5
 267 -22 267 -22 267 -26 c 0,6,7
 267 -29 267 -29 273 -29 c 0,0,1
378 -6 m 2,8,9
 379 -6 379 -6 377 -1 c 128,-1,10
 375 4 375 4 372 9.5 c 128,-1,11
 369 15 369 15 368 15 c 0,12,13
 366 15 366 15 353 2 c 2,14,-1
 341 -12 l 1,15,-1
 359 -9 l 1,16,-1
 378 -6 l 2,8,9
298 15 m 0,17,18
 298 18 298 18 289 18 c 0,19,20
 277 18 277 18 265 14 c 2,21,-1
 252 10 l 1,22,-1
 267 8 l 1,23,-1
 273 8 l 2,24,25
 298 8 298 8 298 15 c 0,17,18
165 194 m 0,26,27
 171 203 171 203 169 204 c 0,28,29
 167 206 167 206 156 194 c 0,30,31
 144 182 144 182 144 174 c 0,32,33
 144 170 144 170 144.5 170 c 128,-1,34
 145 170 145 170 151 177 c 0,35,36
 152 178 152 178 157.5 184.5 c 128,-1,37
 163 191 163 191 165 194 c 0,26,27
404 314 m 0,38,39
 397 321 397 321 390 321 c 0,40,41
 382 321 382 321 370 309 c 0,42,43
 355 294 355 294 345 289 c 0,44,45
 336 283 336 283 323 269.5 c 128,-1,46
 310 256 310 256 296 248 c 0,47,48
 281 237 281 237 266 223.5 c 128,-1,49
 251 210 251 210 229.5 189.5 c 128,-1,50
 208 169 208 169 201 162 c 0,51,52
 159 123 159 123 159 98 c 0,53,54
 159 96 159 96 159.5 93 c 128,-1,55
 160 90 160 90 160 89 c 0,56,57
 162 69 162 69 169 60 c 128,-1,58
 176 51 176 51 195 44 c 0,59,60
 215 38 215 38 220 33 c 0,61,62
 222 30 222 30 230.5 30 c 128,-1,63
 239 30 239 30 242 33 c 0,64,65
 246 37 246 37 276 42 c 0,66,67
 284 43 284 43 294 45.5 c 128,-1,68
 304 48 304 48 316 50.5 c 128,-1,69
 328 53 328 53 332 54 c 0,70,71
 360 60 360 60 365 65 c 0,72,73
 375 74 375 74 400 104.5 c 128,-1,74
 425 135 425 135 431 145 c 0,75,76
 435 153 435 153 444 168 c 0,77,78
 449 177 449 177 447 177 c 0,79,80
 444 177 444 177 451 184 c 0,81,82
 460 193 460 193 460 223 c 0,83,84
 460 241 460 241 455 258 c 128,-1,85
 450 275 450 275 437 292 c 128,-1,86
 424 309 424 309 416 309 c 0,87,88
 409 309 409 309 404 314 c 0,38,39
346 325 m 0,89,90
 346 333 346 333 331 318 c 0,91,92
 322 309 322 309 328 309 c 0,93,94
 332 309 332 309 339 315 c 128,-1,95
 346 321 346 321 346 325 c 0,89,90
456 602 m 0,96,97
 443 609 443 609 402 609 c 0,98,99
 368 609 368 609 368 603 c 0,100,101
 368 600 368 600 363 600 c 0,102,103
 355 600 355 600 331 585.5 c 128,-1,104
 307 571 307 571 296 560 c 0,105,106
 264 527 264 527 264 478 c 0,107,108
 264 445 264 445 268 441 c 0,109,110
 273 434 273 434 273 430 c 0,111,112
 273 425 273 425 291.5 411 c 128,-1,113
 310 397 310 397 316 397 c 128,-1,114
 322 397 322 397 334 390 c 0,115,116
 348 383 348 383 354 383 c 0,117,118
 366 383 366 383 390 408 c 0,119,120
 432 450 432 450 458 498 c 0,121,122
 471 522 471 522 471 541 c 2,123,-1
 471 555 l 2,124,125
 470 584 470 584 468 590.5 c 128,-1,126
 466 597 466 597 456 602 c 0,96,97
519 605 m 0,127,128
 519 612 519 612 508 613 c 0,129,130
 504 614 504 614 504 611 c 0,131,132
 504 609 504 609 509 604 c 0,133,134
 519 594 519 594 519 605 c 0,127,128
398 659 m 0,135,136
 398 664 398 664 419 664 c 0,137,138
 444 664 444 664 466 660 c 0,139,140
 479 659 479 659 498 648.5 c 128,-1,141
 517 638 517 638 519 637 c 0,142,143
 548 627 548 627 548 611 c 0,144,145
 548 601 548 601 537 579 c 0,146,147
 526 560 526 560 526 541 c 0,148,149
 526 523 526 523 519 502 c 0,150,151
 508 468 508 468 500 456 c 0,152,153
 493 447 493 447 493 443 c 0,154,155
 493 437 493 437 440 384 c 0,156,157
 414 357 414 357 414 353 c 0,158,159
 414 351 414 351 418 347 c 0,160,161
 422 344 422 344 436.5 336 c 128,-1,162
 451 328 451 328 461 321 c 128,-1,163
 471 314 471 314 471 308 c 128,-1,164
 471 302 471 302 481 294 c 0,165,166
 508 268 508 268 508 237 c 0,167,168
 508 214 508 214 496 175 c 0,169,170
 482 124 482 124 479 119 c 0,171,172
 476 112 476 112 472 92 c 0,173,174
 468 66 468 66 456 40 c 0,175,176
 453 34 453 34 453 30 c 0,177,178
 453 23 453 23 440 6 c 128,-1,179
 427 -11 427 -11 416 -18 c 0,180,181
 403 -28 403 -28 370.5 -36 c 128,-1,182
 338 -44 338 -44 315 -44 c 0,183,184
 299 -44 299 -44 295 -48 c 0,185,186
 288 -55 288 -55 238 -55 c 0,187,188
 228 -55 228 -55 228 -54 c 0,189,190
 228 -52 228 -52 207.5 -44.5 c 128,-1,191
 187 -37 187 -37 185 -37 c 128,-1,192
 183 -37 183 -37 136.5 -11 c 128,-1,193
 90 15 90 15 87 15 c 0,194,195
 81 15 81 15 81 19 c 0,196,197
 81 24 81 24 75 22 c 0,198,199
 67 20 67 20 57 35 c 0,200,201
 44 51 44 51 44 68 c 0,202,203
 44 86 44 86 59 116 c 0,204,205
 73 144 73 144 85 156 c 0,206,207
 96 167 96 167 96 175 c 0,208,209
 96 190 96 190 114.5 213 c 128,-1,210
 133 236 133 236 153 246 c 0,211,212
 169 254 169 254 184 267 c 0,213,214
 198 280 198 280 208 278 c 0,215,216
 217 276 217 276 222 281 c 0,217,218
 228 287 228 287 242 294 c 0,219,220
 274 312 274 312 293 330 c 2,221,-1
 307 341 l 1,222,-1
 287 352 l 2,223,224
 266 364 266 364 250 375 c 0,225,226
 236 384 236 384 236 387 c 0,227,228
 236 389 236 389 223 404 c 0,229,230
 211 418 211 418 211 427 c 0,231,232
 211 433 211 433 216 446 c 128,-1,233
 221 459 221 459 221 489 c 128,-1,234
 221 519 221 519 231.5 538.5 c 128,-1,235
 242 558 242 558 276 593 c 0,236,237
 305 622 305 622 324 633 c 128,-1,238
 343 644 343 644 375 651 c 0,239,240
 398 656 398 656 398 659 c 0,135,136
EndSplineSet
Validated: 1
EndChar

StartChar: nine
Encoding: 57 57 29
Width: 425
GlyphClass: 2
Flags: W
LayerCount: 2
Fore
SplineSet
361 596 m 128,-1,1
 361 600 361 600 360 600 c 2,2,-1
 356 593 l 1,3,-1
 357 592 l 2,4,0
 361 592 361 592 361 596 c 128,-1,1
250 589 m 0,5,6
 247 597 247 597 216 597 c 0,7,8
 208 597 208 597 204 596 c 0,9,10
 191 594 191 594 176 584 c 0,11,12
 158 574 158 574 154 574 c 0,13,14
 149 574 149 574 136.5 560.5 c 128,-1,15
 124 547 124 547 120 536 c 0,16,17
 113 522 113 522 108 517 c 0,18,19
 100 509 100 509 100 505 c 0,20,21
 100 499 100 499 95 492 c 0,22,23
 90 484 90 484 84 456 c 128,-1,24
 78 428 78 428 78 407 c 0,25,26
 78 365 78 365 106 339 c 0,27,28
 116 329 116 329 138 329 c 0,29,30
 174 329 174 329 186 349 c 0,31,32
 191 357 191 357 244 414 c 0,33,34
 263 434 263 434 268 442.5 c 128,-1,35
 273 451 273 451 275 468 c 0,36,37
 277 486 277 486 283 490 c 0,38,39
 288 493 288 493 288 503 c 0,40,41
 288 511 288 511 294 521.5 c 128,-1,42
 300 532 300 532 301 540 c 0,43,44
 303 556 303 556 294 565 c 128,-1,45
 285 574 285 574 278 574 c 0,46,47
 276 574 276 574 266.5 581 c 128,-1,48
 257 588 257 588 255 587 c 0,49,50
 252 585 252 585 250 589 c 0,5,6
298 638 m 0,51,52
 282 646 282 646 250 646 c 0,53,54
 229 646 229 646 229 641 c 0,55,56
 229 638 229 638 221 636 c 0,57,58
 208 633 208 633 215 628 c 0,59,60
 219 625 219 625 228 626 c 0,61,62
 243 626 243 626 249 623 c 0,63,64
 250 622 250 622 260 618 c 128,-1,65
 270 614 270 614 276 611 c 0,66,67
 290 606 290 606 301 595 c 0,68,69
 311 584 311 584 320 594 c 0,70,71
 325 599 325 599 321 602 c 0,72,73
 316 604 316 604 313 618 c 0,74,75
 309 633 309 633 298 638 c 0,51,52
148 625 m 0,76,77
 148 626 148 626 166.5 634.5 c 128,-1,78
 185 643 185 643 185 644 c 0,79,80
 185 647 185 647 216 658 c 0,81,82
 234 665 234 665 254 665 c 0,83,84
 270 665 270 665 287 661 c 0,85,86
 327 652 327 652 332 631 c 0,87,88
 333 625 333 625 337 622 c 128,-1,89
 341 619 341 619 345 621 c 128,-1,90
 349 623 349 623 350 629 c 0,91,92
 352 637 352 637 356 637 c 0,93,94
 361 637 361 637 363 642 c 0,95,96
 364 645 364 645 368 646.5 c 128,-1,97
 372 648 372 648 376 647.5 c 128,-1,98
 380 647 380 647 380 645 c 0,99,100
 380 640 380 640 375 622 c 0,101,102
 373 614 373 614 366.5 575.5 c 128,-1,103
 360 537 360 537 355 526 c 0,104,105
 351 513 351 513 355 509 c 0,106,107
 360 504 360 504 355 500 c 0,108,109
 351 494 351 494 349 473 c 0,110,111
 343 415 343 415 338 410 c 0,112,113
 328 399 328 399 320 333 c 0,114,115
 316 301 316 301 315 298 c 0,116,117
 305 271 305 271 300 223 c 0,118,119
 298 181 298 181 274 132 c 0,120,121
 258 100 258 100 258 96 c 0,122,123
 258 93 258 93 256 86.5 c 128,-1,124
 254 80 254 80 252 73 c 128,-1,125
 250 66 250 66 249 63 c 0,126,127
 249 55 249 55 243 33 c 0,128,129
 237 4 237 4 237 -25 c 0,130,131
 237 -44 237 -44 240 -50 c 0,132,133
 242 -53 242 -53 242 -59 c 0,134,135
 242 -72 242 -72 226 -73 c 0,136,137
 218 -74 218 -74 215.5 -72 c 128,-1,138
 213 -70 213 -70 210 -61 c 0,139,140
 207 -54 207 -54 207 -13 c 2,141,-1
 207 6 l 2,142,143
 207 24 207 24 198 30 c 0,144,145
 188 39 188 39 188 50 c 0,146,147
 188 63 188 63 192 63 c 0,148,149
 195 63 195 63 209 97 c 0,150,151
 214 107 214 107 219.5 131.5 c 128,-1,152
 225 156 225 156 225 169 c 0,153,154
 225 186 225 186 230 228 c 0,155,156
 242 331 242 331 242 344 c 0,157,158
 240 345 240 345 227 333 c 0,159,160
 214 322 214 322 173 301 c 0,161,162
 160 294 160 294 143 294 c 0,163,164
 108 294 108 294 86 316 c 0,165,166
 72 328 72 328 71 328 c 0,167,168
 65 328 65 328 54 354 c 128,-1,169
 43 380 43 380 43 398 c 2,170,-1
 43 403 l 2,171,172
 46 421 46 421 46 440 c 0,173,174
 48 467 48 467 49 469 c 0,175,176
 50 470 50 470 53 483 c 128,-1,177
 56 496 56 496 59.5 507.5 c 128,-1,178
 63 519 63 519 65 520 c 0,179,180
 69 523 69 523 73 534.5 c 128,-1,181
 77 546 77 546 80 549 c 0,182,183
 85 552 85 552 85 560 c 0,184,185
 85 567 85 567 89 567 c 128,-1,186
 93 567 93 567 93 570 c 128,-1,187
 93 573 93 573 116.5 597.5 c 128,-1,188
 140 622 140 622 144 622 c 128,-1,189
 148 622 148 622 148 625 c 0,76,77
EndSplineSet
Validated: 1
EndChar

StartChar: colon
Encoding: 58 58 30
Width: 258
GlyphClass: 2
Flags: W
LayerCount: 2
Fore
SplineSet
179 187 m 256,0,1
 180 186 180 186 182 186 c 0,2,3
 183 188 183 188 181 190 c 0,4,5
 180 190 180 190 179 189 c 128,-1,6
 178 188 178 188 179 187 c 256,0,1
129 269 m 0,7,8
 136 271 136 271 152 271 c 0,9,10
 172 271 172 271 176 267 c 0,11,12
 179 264 179 264 178 261.5 c 128,-1,13
 177 259 177 259 173 257 c 128,-1,14
 169 255 169 255 164 255 c 0,15,16
 158 255 158 255 153.5 253 c 128,-1,17
 149 251 149 251 147.5 248 c 128,-1,18
 146 245 146 245 148 242 c 0,19,20
 151 237 151 237 156 237 c 0,21,22
 160 237 160 237 174 227 c 0,23,24
 183 220 183 220 185 215 c 128,-1,25
 187 210 187 210 189 195 c 0,26,27
 189 193 189 193 189.5 189 c 128,-1,28
 190 185 190 185 190 183 c 0,29,30
 190 142 190 142 170 104 c 0,31,32
 158 79 158 79 154 77 c 0,33,34
 151 76 151 76 151 67 c 128,-1,35
 151 58 151 58 146 50 c 0,36,37
 140 40 140 40 140 37 c 0,38,39
 140 32 140 32 134 26.5 c 128,-1,40
 128 21 128 21 121 21 c 0,41,42
 115 21 115 21 97 26 c 128,-1,43
 79 31 79 31 74 33 c 0,44,45
 70 35 70 35 70 46 c 128,-1,46
 70 57 70 57 63 63 c 0,47,48
 48 74 48 74 48 119 c 0,49,50
 48 176 48 176 68 210 c 0,51,52
 89 247 89 247 94 247 c 0,53,54
 98 247 98 247 105 256 c 0,55,56
 111 264 111 264 129 269 c 0,7,8
188 442 m 128,-1,58
 192 446 192 446 189 446 c 0,59,60
 185 446 185 446 175.5 431 c 128,-1,61
 166 416 166 416 166 411 c 0,62,63
 166 405 166 405 177 420 c 2,64,-1
 184 433 l 2,65,57
 184 438 184 438 188 442 c 128,-1,58
125 445 m 0,66,67
 127 444 127 444 130 444 c 0,68,69
 136 444 136 444 136 454 c 0,70,71
 136 462 136 462 132 470.5 c 128,-1,72
 128 479 128 479 124 479 c 128,-1,73
 120 479 120 479 119 473 c 0,74,75
 117 466 117 466 119 456.5 c 128,-1,76
 121 447 121 447 125 445 c 0,66,67
95 593 m 0,77,78
 107 597 107 597 122 597 c 2,79,-1
 130 597 l 2,80,81
 156 596 156 596 167 586 c 0,82,83
 178 577 178 577 178 572 c 0,84,85
 178 570 178 570 185 566 c 128,-1,86
 192 562 192 562 194 556 c 0,87,88
 195 551 195 551 199.5 545.5 c 128,-1,89
 204 540 204 540 205 532 c 0,90,91
 206 525 206 525 211 500 c 0,92,93
 215 478 215 478 215 468 c 0,94,95
 215 427 215 427 183 394 c 0,96,97
 162 372 162 372 143 362 c 0,98,99
 126 353 126 353 119 353 c 128,-1,100
 112 353 112 353 107 355 c 0,101,102
 93 359 93 359 93 363 c 0,103,104
 93 364 93 364 91.5 364 c 128,-1,105
 90 364 90 364 88 364.5 c 128,-1,106
 86 365 86 365 85 366 c 128,-1,107
 84 367 84 367 76 373.5 c 128,-1,108
 68 380 68 380 63.5 385.5 c 128,-1,109
 59 391 59 391 58 397 c 0,110,111
 56 409 56 409 53 409 c 0,112,113
 47 409 47 409 43 452 c 1,114,-1
 43 465 l 2,115,116
 43 515 43 515 57 551 c 0,117,118
 62 562 62 562 74.5 575.5 c 128,-1,119
 87 589 87 589 95 593 c 0,77,78
EndSplineSet
Validated: 1
Substitution2: "Single Substitution lookup 3 subtable" colon.ss01
Substitution2: "Single Substitution lookup 2 subtable" colon.ss01
EndChar

StartChar: semicolon
Encoding: 59 59 31
Width: 240
GlyphClass: 2
Flags: W
LayerCount: 2
Fore
SplineSet
74 -4 m 0,0,1
 74 -2 74 -2 90.5 22 c 128,-1,2
 107 46 107 46 107 49 c 0,3,4
 107 54 107 54 114 63 c 2,5,-1
 121 72 l 1,6,-1
 107 76 l 2,7,8
 94 81 94 81 85 81 c 0,9,10
 63 81 63 81 63 106 c 0,11,12
 63 122 63 122 71 138 c 0,13,14
 80 158 80 158 103 175 c 0,15,16
 124 190 124 190 134 190 c 0,17,18
 142 190 142 190 157 184 c 0,19,20
 171 179 171 179 171 162 c 0,21,22
 171 158 171 158 169 152 c 0,23,24
 167 144 167 144 167 141 c 0,25,26
 167 137 167 137 168 129 c 128,-1,27
 169 121 169 121 169 118 c 0,28,29
 169 109 169 109 165 104 c 0,30,31
 160 96 160 96 160 56 c 0,32,33
 160 20 160 20 154.5 6 c 128,-1,34
 149 -8 149 -8 128 -32 c 0,35,36
 110 -52 110 -52 110 -56 c 0,37,38
 110 -61 110 -61 101 -70 c 0,39,40
 93 -77 93 -77 84 -77 c 0,41,42
 77 -77 77 -77 71 -76 c 0,43,44
 50 -74 50 -74 47 -71 c 0,45,46
 44 -70 44 -70 44 -62 c 0,47,48
 44 -47 44 -47 55 -31 c 0,49,50
 66 -14 66 -14 66 -11 c 0,51,52
 66 -7 66 -7 70 -7 c 128,-1,53
 74 -7 74 -7 74 -4 c 0,0,1
129 429 m 128,-1,55
 129 431 129 431 127 431 c 128,-1,56
 125 431 125 431 125 429 c 128,-1,57
 125 427 125 427 127 427 c 128,-1,54
 129 427 129 427 129 429 c 128,-1,55
160 482 m 0,58,59
 140 503 140 503 145 482 c 0,60,61
 148 470 148 470 143 467 c 0,62,63
 139 464 139 464 146 462 c 0,64,65
 154 460 154 460 156 452 c 0,66,67
 162 436 162 436 167 456 c 0,68,69
 168 457 168 457 168 459 c 0,70,71
 170 472 170 472 160 482 c 0,58,59
111 520 m 0,72,73
 120 521 120 521 135 521 c 0,74,75
 159 521 159 521 170.5 514 c 128,-1,76
 182 507 182 507 190 489 c 0,77,78
 197 475 197 475 197 466 c 0,79,80
 197 465 197 465 195 451 c 0,81,82
 190 421 190 421 175 397.5 c 128,-1,83
 160 374 160 374 140 366 c 0,84,85
 127 361 127 361 117 361 c 0,86,87
 104 361 104 361 88 369 c 0,88,89
 53 388 53 388 53 437 c 0,90,91
 53 448 53 448 60.5 465.5 c 128,-1,92
 68 483 68 483 76 490 c 0,93,94
 87 501 87 501 91 509 c 0,95,96
 96 519 96 519 111 520 c 0,72,73
EndSplineSet
Validated: 1
Substitution2: "Single Substitution lookup 3 subtable" semicolon.ss01
Substitution2: "Single Substitution lookup 2 subtable" semicolon.ss01
EndChar

StartChar: less
Encoding: 60 60 32
Width: 783
GlyphClass: 2
Flags: W
LayerCount: 2
Fore
SplineSet
538 137 m 0,0,1
 537 141 537 141 527 141 c 0,2,3
 519 141 519 141 519 137 c 128,-1,4
 519 133 519 133 530 133 c 0,5,6
 535 133 535 133 537 134 c 128,-1,7
 539 135 539 135 538 137 c 0,0,1
464 158 m 0,8,9
 464 155 464 155 472 152.5 c 128,-1,10
 480 150 480 150 485 150 c 0,11,12
 487 150 487 150 487 151 c 0,13,14
 487 153 487 153 477 157 c 0,15,16
 473 158 473 158 470 159 c 128,-1,17
 467 160 467 160 465.5 159.5 c 128,-1,18
 464 159 464 159 464 158 c 0,8,9
393 192 m 128,-1,20
 384 197 384 197 381.5 196.5 c 128,-1,21
 379 196 379 196 379 191 c 0,22,23
 379 185 379 185 387 178 c 128,-1,24
 395 171 395 171 406 168 c 2,25,-1
 418 165 l 1,26,-1
 410 176 l 2,27,19
 402 187 402 187 393 192 c 128,-1,20
282 232 m 0,28,29
 264 240 264 240 243 245 c 2,30,-1
 229 248 l 1,31,-1
 240 234 l 2,32,33
 250 220 250 220 267 211 c 0,34,35
 285 201 285 201 286 199 c 0,36,37
 287 198 287 198 290.5 198 c 128,-1,38
 294 198 294 198 296 198.5 c 128,-1,39
 298 199 298 199 299 197 c 0,40,41
 299 194 299 194 313 189.5 c 128,-1,42
 327 185 327 185 337 185 c 0,43,44
 345 185 345 185 345 189 c 0,45,46
 345 194 345 194 331 208 c 128,-1,47
 317 222 317 222 312 222 c 0,48,49
 305 222 305 222 282 232 c 0,28,29
227 289 m 0,50,51
 215 296 215 296 216 291 c 0,52,53
 217 285 217 285 226 285 c 0,54,55
 234 285 234 285 227 289 c 0,50,51
248 388 m 2,56,-1
 251 395 l 1,57,58
 227 388 227 388 227 370 c 0,59,60
 227 368 227 368 229 368 c 0,61,62
 238 368 238 368 248 388 c 2,56,-1
643 633 m 0,63,64
 650 640 650 640 658 640 c 0,65,66
 674 640 674 640 674 623 c 0,67,68
 674 610 674 610 651 599 c 0,69,70
 610 578 610 578 610 560 c 0,71,72
 610 553 610 553 601 553 c 0,73,74
 590 552 590 552 565 541.5 c 128,-1,75
 540 531 540 531 540 527 c 0,76,77
 540 524 540 524 507 507 c 0,78,79
 472 489 472 489 461 477 c 0,80,81
 447 463 447 463 442 463 c 0,82,83
 434 463 434 463 390 431 c 128,-1,84
 346 399 346 399 320 375 c 0,85,86
 311 367 311 367 287 349.5 c 128,-1,87
 263 332 263 332 261 332 c 0,88,89
 257 332 257 332 250.5 325 c 128,-1,90
 244 318 244 318 244 314 c 128,-1,91
 244 310 244 310 271 290.5 c 128,-1,92
 298 271 298 271 313 265 c 128,-1,93
 328 259 328 259 328 255 c 0,94,95
 328 245 328 245 385 228 c 0,96,97
 469 202 469 202 506 187 c 0,98,99
 526 180 526 180 555 175 c 0,100,101
 603 168 603 168 603 152 c 0,102,103
 603 150 603 150 595 138 c 0,104,105
 585 128 585 128 567 130 c 0,106,107
 560 131 560 131 557 131.5 c 128,-1,108
 554 132 554 132 551.5 131.5 c 128,-1,109
 549 131 549 131 548.5 129.5 c 128,-1,110
 548 128 548 128 548 125 c 0,111,112
 548 116 548 116 561 116 c 0,113,114
 571 116 571 116 596 122.5 c 128,-1,115
 621 129 621 129 626 129 c 0,116,117
 633 129 633 129 633 125 c 0,118,119
 633 116 633 116 613 107 c 0,120,121
 592 95 592 95 590 93 c 0,122,123
 587 89 587 89 562 89 c 0,124,125
 524 89 524 89 493 96 c 0,126,127
 421 112 421 112 421 120 c 0,128,129
 421 124 421 124 384 135 c 0,130,131
 292 162 292 162 248 182 c 0,132,133
 194 209 194 209 149 209 c 0,134,135
 147 209 147 209 143.5 208.5 c 128,-1,136
 140 208 140 208 138 208 c 0,137,138
 135 208 135 208 131 207.5 c 128,-1,139
 127 207 127 207 125 207 c 0,140,141
 99 207 99 207 99 220 c 0,142,143
 99 232 99 232 121 253 c 0,144,145
 155 287 155 287 155 308 c 0,146,147
 155 319 155 319 158 319 c 0,148,149
 166 319 166 319 178 335.5 c 128,-1,150
 190 352 190 352 194 369 c 0,151,152
 202 395 202 395 217 407 c 0,153,154
 250 433 250 433 266 433 c 0,155,156
 272 433 272 433 278 439 c 0,157,158
 283 444 283 444 305 452 c 0,159,160
 336 464 336 464 351 472 c 128,-1,161
 366 480 366 480 383.5 493 c 128,-1,162
 401 506 401 506 417 515 c 0,163,164
 439 528 439 528 454 541 c 128,-1,165
 469 554 469 554 497 568 c 0,166,167
 511 575 511 575 534 596 c 0,168,169
 553 614 553 614 565 614 c 2,170,-1
 569 614 l 2,171,172
 584 613 584 613 591 621 c 0,173,174
 598 630 598 630 609 624 c 0,175,176
 615 621 615 621 620 621 c 0,177,178
 631 621 631 621 643 633 c 0,63,64
EndSplineSet
Validated: 1
EndChar

StartChar: equal
Encoding: 61 61 33
Width: 655
GlyphClass: 2
Flags: W
LayerCount: 2
Fore
SplineSet
467 258 m 0,0,1
 483 264 483 264 486.5 264 c 128,-1,2
 490 264 490 264 497 256 c 0,3,4
 499 253 499 253 503.5 250 c 128,-1,5
 508 247 508 247 512.5 245 c 128,-1,6
 517 243 517 243 520 243 c 128,-1,7
 523 243 523 243 523 246 c 0,8,9
 523 255 523 255 528 260 c 0,10,11
 534 265 534 265 537 264.5 c 128,-1,12
 540 264 540 264 552 258 c 0,13,14
 567 250 567 250 566 244 c 0,15,16
 564 237 564 237 557.5 231 c 128,-1,17
 551 225 551 225 547 225 c 256,18,19
 543 225 543 225 543 221 c 0,20,21
 543 211 543 211 465 189 c 0,22,23
 440 181 440 181 440 181 c 2,24,25
 436 177 436 177 415.5 172.5 c 128,-1,26
 395 168 395 168 364.5 164.5 c 128,-1,27
 334 161 334 161 305 160 c 0,28,29
 257 158 257 158 241 156 c 0,30,31
 229 154 229 154 227 158 c 0,32,33
 224 162 224 162 199 158 c 0,34,35
 177 156 177 156 168 156 c 0,36,37
 141 156 141 156 124.5 163 c 128,-1,38
 108 170 108 170 108 182 c 0,39,40
 108 190 108 190 101 195 c 0,41,42
 94 199 94 199 94 206 c 128,-1,43
 94 213 94 213 100 215 c 0,44,45
 108 217 108 217 111 217 c 0,46,47
 118 217 118 217 134 210 c 0,48,49
 155 201 155 201 185 196 c 0,50,51
 191 195 191 195 197.5 194 c 128,-1,52
 204 193 204 193 208 192.5 c 128,-1,53
 212 192 212 192 214 192 c 0,54,55
 219 192 219 192 226 197 c 0,56,57
 231 202 231 202 233 202 c 128,-1,58
 235 202 235 202 239 197 c 256,59,60
 243 192 243 192 252 192 c 0,61,62
 262 192 262 192 270 193 c 0,63,64
 293 195 293 195 302 199 c 2,65,66
 302 199 302 199 330.5 209 c 128,-1,67
 359 219 359 219 386.5 229 c 128,-1,68
 414 239 414 239 414 240 c 0,69,70
 414 243 414 243 431 246 c 0,71,72
 443 248 443 248 467 258 c 0,0,1
153 400 m 0,73,74
 168 405 168 405 180 405 c 0,75,76
 201 405 201 405 276 387 c 0,77,78
 319 377 319 377 376 372 c 0,79,80
 423 368 423 368 449 368 c 256,81,82
 475 368 475 368 479 375 c 0,83,84
 482 380 482 380 483 380 c 128,-1,85
 484 380 484 380 486 375 c 256,86,87
 488 370 488 370 496.5 368.5 c 128,-1,88
 505 367 505 367 508 372 c 0,89,90
 509 375 509 375 502 379 c 0,91,92
 495 382 495 382 495 390 c 0,93,94
 495 397 495 397 503 397 c 0,95,96
 512 397 512 397 521 392 c 0,97,98
 533 385 533 385 545 388 c 0,99,100
 550 389 550 389 557 389 c 0,101,102
 572 389 572 389 572 374 c 0,103,104
 572 366 572 366 570 363.5 c 128,-1,105
 568 361 568 361 562 359 c 0,106,107
 551 357 551 357 535 350 c 0,108,109
 528 347 528 347 515 344 c 128,-1,110
 502 341 502 341 487 338.5 c 128,-1,111
 472 336 472 336 467 335 c 2,112,113
 467 335 467 335 462 334.5 c 128,-1,114
 457 334 457 334 452 334 c 0,115,116
 442 334 442 334 410 336 c 0,117,118
 386 338 386 338 252 340 c 0,119,120
 213 341 213 341 191 341.5 c 128,-1,121
 169 342 169 342 153 344 c 128,-1,122
 137 346 137 346 131.5 348 c 128,-1,123
 126 350 126 350 126 354 c 0,124,125
 126 357 126 357 133 366 c 256,126,127
 140 375 140 375 140 384 c 0,128,129
 140 391 140 391 142.5 394 c 128,-1,130
 145 397 145 397 153 400 c 0,73,74
EndSplineSet
Validated: 1
Substitution2: "Single Substitution lookup 3 subtable" equal.ss01
Substitution2: "Single Substitution lookup 2 subtable" equal.ss01
EndChar

StartChar: greater
Encoding: 62 62 34
Width: 737
GlyphClass: 2
Flags: W
LayerCount: 2
Fore
SplineSet
362 464 m 0,0,1
 342 477 342 477 338 469 c 0,2,3
 337 468 337 468 337 467 c 0,4,5
 337 463 337 463 343 463 c 128,-1,6
 349 463 349 463 357 455 c 0,7,8
 364 448 364 448 380 440.5 c 128,-1,9
 396 433 396 433 402 433 c 0,10,11
 404 433 404 433 404 434 c 0,12,13
 404 438 404 438 399 438 c 0,14,15
 392 438 392 438 383 447 c 0,16,17
 365 462 365 462 362 464 c 0,0,1
274 509 m 0,18,19
 273 509 273 509 264.5 513 c 128,-1,20
 256 517 256 517 247.5 520.5 c 128,-1,21
 239 524 239 524 239 523 c 0,22,23
 239 518 239 518 270.5 501.5 c 128,-1,24
 302 485 302 485 315 483 c 0,25,26
 326 482 326 482 326 484 c 0,27,28
 321 489 321 489 300 499 c 128,-1,29
 279 509 279 509 274 509 c 0,18,19
210 592 m 0,30,31
 214 602 214 602 223 602 c 0,32,33
 236 602 236 602 252 584 c 0,34,35
 272 563 272 563 315 543 c 0,36,37
 322 538 322 538 322 536 c 0,38,39
 322 529 322 529 347.5 510.5 c 128,-1,40
 373 492 373 492 407 473 c 0,41,42
 424 465 424 465 447 446 c 0,43,44
 486 413 486 413 495.5 407 c 128,-1,45
 505 401 505 401 523 398 c 0,46,47
 536 396 536 396 548.5 387.5 c 128,-1,48
 561 379 561 379 561 372 c 0,49,50
 561 362 561 362 579 362 c 0,51,52
 598 362 598 362 612 372 c 0,53,54
 625 382 625 382 632 382 c 0,55,56
 637 382 637 382 637 374 c 128,-1,57
 637 366 637 366 632 363 c 0,58,59
 626 358 626 358 624 350 c 0,60,61
 620 340 620 340 607 338 c 0,62,63
 595 335 595 335 595 330 c 0,64,65
 595 318 595 318 565 306 c 0,66,67
 553 301 553 301 545.5 295 c 128,-1,68
 538 289 538 289 527 283 c 0,69,70
 515 277 515 277 508 270.5 c 128,-1,71
 501 264 501 264 490 258 c 0,72,73
 474 250 474 250 468 244 c 0,74,75
 467 243 467 243 450.5 231.5 c 128,-1,76
 434 220 434 220 419 208.5 c 128,-1,77
 404 197 404 197 404 195 c 128,-1,78
 404 193 404 193 382 175 c 0,79,80
 337 140 337 140 281 86 c 0,81,82
 261 66 261 66 253 66 c 0,83,84
 249 66 249 66 244 71 c 0,85,86
 242 73 242 73 242 76 c 0,87,88
 242 88 242 88 269 111 c 0,89,90
 284 124 284 124 279 124 c 128,-1,91
 274 124 274 124 256 107.5 c 128,-1,92
 238 91 238 91 231 91 c 0,93,94
 225 91 225 91 224 96 c 0,95,96
 223 99 223 99 218.5 96 c 128,-1,97
 214 93 214 93 203 82 c 0,98,99
 185 61 185 61 171 61 c 0,100,101
 159 61 159 61 148 50 c 0,102,103
 138 39 138 39 126 42 c 0,104,105
 113 46 113 46 113 56 c 0,106,107
 113 64 113 64 168 112 c 0,108,109
 202 142 202 142 212 152 c 0,110,111
 229 169 229 169 253 187 c 0,112,113
 279 207 279 207 282 212 c 0,114,115
 289 225 289 225 337 252 c 0,116,117
 355 261 355 261 361 267 c 0,118,119
 363 269 363 269 399 285 c 0,120,121
 437 302 437 302 455 313 c 0,122,123
 478 327 478 327 497 333 c 0,124,125
 514 338 514 338 514 341 c 0,126,127
 514 349 514 349 473 360 c 0,128,129
 425 372 425 372 425 379 c 0,130,131
 425 381 425 381 419 379.5 c 128,-1,132
 413 378 413 378 413 382 c 0,133,134
 413 385 413 385 369 407 c 128,-1,135
 325 429 325 429 319 429 c 0,136,137
 315 429 315 429 286.5 447.5 c 128,-1,138
 258 466 258 466 251 473 c 0,139,140
 243 481 243 481 233 478 c 2,141,-1
 229 478 l 2,142,143
 219 478 219 478 200 496 c 2,144,-1
 179 517 l 1,145,-1
 188 524 l 2,146,147
 197 532 197 532 190 544 c 0,148,149
 184 555 184 555 184.5 557.5 c 128,-1,150
 185 560 185 560 191 560 c 0,151,152
 198 560 198 560 204 567 c 128,-1,153
 210 574 210 574 207 578 c 0,154,155
 205 583 205 583 210 592 c 0,30,31
EndSplineSet
Validated: 1
EndChar

StartChar: question
Encoding: 63 63 35
Width: 341
GlyphClass: 2
Flags: W
LayerCount: 2
Fore
SplineSet
196 94 m 128,-1,1
 196 96 196 96 194 96 c 128,-1,2
 192 96 192 96 192 94 c 128,-1,3
 192 92 192 92 194 92 c 128,-1,0
 196 92 196 92 196 94 c 128,-1,1
203 -37 m 0,4,5
 203 -40 203 -40 192 -57 c 128,-1,6
 181 -74 181 -74 181 -76 c 0,7,8
 181 -84 181 -84 170 -90 c 128,-1,9
 159 -96 159 -96 145 -96 c 0,10,11
 123 -96 123 -96 109.5 -84.5 c 128,-1,12
 96 -73 96 -73 96 -54 c 0,13,14
 96 -42 96 -42 91 -42 c 0,15,16
 84 -42 84 -42 84 -10 c 0,17,18
 84 24 84 24 91 60 c 0,19,20
 94 77 94 77 108 102 c 128,-1,21
 122 127 122 127 130 129 c 128,-1,22
 138 131 138 131 153 131 c 0,23,24
 199 131 199 131 205 99 c 0,25,26
 207 88 207 88 213 80 c 128,-1,27
 219 72 219 72 219 53 c 2,28,-1
 219 41 l 2,29,30
 218 -21 218 -21 208 -29 c 0,31,32
 203 -32 203 -32 203 -37 c 0,4,5
170 679 m 0,33,34
 160 689 160 689 144 689 c 0,35,36
 135 689 135 689 135 684 c 0,37,38
 135 678 135 678 145 676 c 0,39,40
 150 675 150 675 175 664 c 0,41,42
 177 663 177 663 177 665 c 0,43,44
 177 670 177 670 170 679 c 0,33,34
104 690 m 0,45,46
 122 712 122 712 150 712 c 0,47,48
 161 712 161 712 169 708 c 0,49,50
 182 702 182 702 201.5 680.5 c 128,-1,51
 221 659 221 659 225 647 c 0,52,53
 230 633 230 633 251 621 c 0,54,55
 269 611 269 611 276 601.5 c 128,-1,56
 283 592 283 592 291 564 c 0,57,58
 296 549 296 549 296 537 c 0,59,60
 296 534 296 534 294 518 c 0,61,62
 291 501 291 501 281 470 c 0,63,64
 278 460 278 460 263 445 c 0,65,66
 249 431 249 431 249 425 c 0,67,68
 249 417 249 417 235 405 c 2,69,-1
 220 391 l 1,70,-1
 218 305 l 2,71,72
 216 223 216 223 216 212 c 0,73,74
 216 159 216 159 223 152 c 0,75,76
 229 145 229 145 226.5 136.5 c 128,-1,77
 224 128 224 128 216 128 c 0,78,79
 198 128 198 128 194 159 c 0,80,81
 193 175 193 175 191 178 c 128,-1,82
 189 181 189 181 181 179 c 0,83,84
 171 178 171 178 169 183 c 0,85,86
 168 185 168 185 164 195 c 128,-1,87
 160 205 160 205 160 213 c 0,88,89
 160 224 160 224 153 224 c 128,-1,90
 146 224 146 224 144 230 c 0,91,92
 143 233 143 233 141 308 c 0,93,94
 141 378 141 378 136 385 c 0,95,96
 131 390 131 390 135 414 c 0,97,98
 139 437 139 437 137 439 c 0,99,100
 132 444 132 444 129 432 c 0,101,102
 128 429 128 429 128 426 c 0,103,104
 128 420 128 420 125.5 417 c 128,-1,105
 123 414 123 414 119.5 416 c 128,-1,106
 116 418 116 418 115 424 c 0,107,108
 113 432 113 432 113 434 c 0,109,110
 113 439 113 439 116.5 441.5 c 128,-1,111
 120 444 120 444 126.5 445.5 c 128,-1,112
 133 447 133 447 147 448 c 0,113,114
 175 450 175 450 195 461 c 0,115,116
 211 470 211 470 213 476 c 0,117,118
 214 477 214 477 220.5 489.5 c 128,-1,119
 227 502 227 502 232.5 514 c 128,-1,120
 238 526 238 526 238 530 c 0,121,122
 238 536 238 536 244 540 c 0,123,124
 249 545 249 545 249 552 c 0,125,126
 249 563 249 563 241 571 c 0,127,128
 236 576 236 576 217 585.5 c 128,-1,129
 198 595 198 595 192 601 c 0,130,131
 182 611 182 611 169.5 613 c 128,-1,132
 157 615 157 615 110 616 c 0,133,134
 101 616 101 616 91.5 616 c 128,-1,135
 82 616 82 616 75 616 c 128,-1,136
 68 616 68 616 62.5 616.5 c 128,-1,137
 57 617 57 617 54 617 c 2,138,-1
 50 617 l 2,139,140
 48 617 48 617 48 624 c 0,141,142
 48 626 48 626 46 633.5 c 128,-1,143
 44 641 44 641 44 645 c 0,144,145
 44 660 44 660 66 660 c 0,146,147
 68 660 68 660 72 659.5 c 128,-1,148
 76 659 76 659 78 659 c 0,149,150
 95 657 95 657 95 659 c 0,151,152
 95 660 95 660 92 663 c 0,153,154
 81 675 81 675 88 680 c 0,155,156
 89 681 89 681 91 681 c 0,157,158
 97 681 97 681 104 690 c 0,45,46
EndSplineSet
Validated: 1
Substitution2: "Single Substitution lookup 3 subtable" question.ss01
Substitution2: "Single Substitution lookup 2 subtable" question.ss01
EndChar

StartChar: at
Encoding: 64 64 36
Width: 676
GlyphClass: 2
Flags: W
LayerCount: 2
Fore
SplineSet
129 30 m 256,0,1
 110 51 110 51 105 51 c 0,2,3
 103 51 103 51 103 47 c 128,-1,4
 103 43 103 43 104 40 c 0,5,6
 111 8 111 8 158 -15 c 0,7,8
 188 -29 188 -29 193 -29 c 128,-1,9
 198 -29 198 -29 206 -33 c 0,10,11
 215 -39 215 -39 257.5 -44.5 c 128,-1,12
 300 -50 300 -50 323 -50 c 0,13,14
 333 -50 333 -50 333 -49 c 0,15,16
 333 -47 333 -47 280 -35 c 0,17,18
 230 -24 230 -24 226 -20 c 128,-1,19
 222 -16 222 -16 217 -16 c 0,20,21
 210 -16 210 -16 166 3 c 0,22,23
 156 5 156 5 156 9 c 0,24,25
 156 14 156 14 153 11 c 0,26,27
 148 9 148 9 129 30 c 256,0,1
471 204 m 0,28,29
 478 211 478 211 478 214 c 0,30,31
 478 215 478 215 476 215 c 0,32,33
 469 215 469 215 450 204 c 0,34,35
 420 189 420 189 420 181 c 0,36,37
 420 180 420 180 422 176 c 0,38,39
 429 169 429 169 433 169 c 0,40,41
 439 169 439 169 449.5 176 c 128,-1,42
 460 183 460 183 460 187 c 0,43,44
 460 193 460 193 471 204 c 0,28,29
370 463 m 0,45,46
 369 475 369 475 358 476 c 2,47,-1
 356 476 l 2,48,49
 333 476 333 476 289 439 c 128,-1,50
 245 402 245 402 245 383 c 0,51,52
 245 368 245 368 264 321 c 128,-1,53
 283 274 283 274 295 261 c 0,54,55
 301 254 301 254 309 254 c 0,56,57
 320 254 320 254 326 263 c 0,58,59
 327 265 327 265 343 283 c 128,-1,60
 359 301 359 301 359 308 c 0,61,62
 359 313 359 313 365 323 c 0,63,64
 369 329 369 329 371 333.5 c 128,-1,65
 373 338 373 338 374.5 344 c 128,-1,66
 376 350 376 350 377 353.5 c 128,-1,67
 378 357 378 357 379.5 366.5 c 128,-1,68
 381 376 381 376 382 383 c 2,69,-1
 382 388 l 2,70,71
 382 391 382 391 370 463 c 0,45,46
334 561 m 0,72,73
 332 561 332 561 315 568 c 128,-1,74
 298 575 298 575 295 575 c 2,75,-1
 294 575 l 2,76,77
 291 572 291 572 291 569 c 0,78,79
 291 563 291 563 305 558.5 c 128,-1,80
 319 554 319 554 332 554 c 0,81,82
 342 554 342 554 342 557 c 0,83,84
 342 561 342 561 334 561 c 0,72,73
370 587 m 0,85,86
 372 590 372 590 369.5 593.5 c 128,-1,87
 367 597 367 597 361 599 c 128,-1,88
 355 601 355 601 348 600 c 0,89,90
 329 598 329 598 330 591 c 0,91,92
 330 589 330 589 333 587 c 0,93,94
 341 583 341 583 353 583 c 0,95,96
 366 583 366 583 370 587 c 0,85,86
540 642 m 0,97,98
 533 642 533 642 519 644 c 0,99,100
 515 645 515 645 510 645 c 0,101,102
 506 645 506 645 506 644 c 0,103,104
 506 638 506 638 528 633 c 0,105,106
 551 627 551 627 551 618 c 0,107,108
 551 613 551 613 547 606 c 0,109,110
 541 597 541 597 525 597 c 128,-1,111
 509 597 509 597 495 598 c 0,112,113
 443 600 443 600 429 604 c 0,114,115
 409 609 409 609 407 607 c 0,116,117
 406 606 406 606 408 588 c 2,118,-1
 410 571 l 1,119,-1
 450 568 l 2,120,121
 461 567 461 567 479 567 c 0,122,123
 496 567 496 567 499 569 c 0,124,125
 523 580 523 580 564 580 c 0,126,127
 572 580 572 580 576 578 c 0,128,129
 582 573 582 573 582 567 c 0,130,131
 582 558 582 558 571 550.5 c 128,-1,132
 560 543 560 543 545 542 c 0,133,134
 541 542 541 542 537 541.5 c 128,-1,135
 533 541 533 541 530 540 c 2,136,-1
 527 540 l 2,137,138
 525 538 525 538 513 538 c 0,139,140
 440 534 440 534 432 526 c 0,141,142
 426 520 426 520 430 504 c 0,143,144
 434 487 434 487 434 456 c 0,145,146
 434 393 434 393 418 323 c 0,147,148
 412 296 412 296 412 280 c 0,149,150
 412 271 412 271 413 267 c 0,151,152
 415 251 415 251 417.5 247 c 128,-1,153
 420 243 420 243 428 241 c 128,-1,154
 436 239 436 239 440.5 240.5 c 128,-1,155
 445 242 445 242 454 252 c 0,156,157
 468 266 468 266 477 266 c 0,158,159
 489 266 489 266 501 275 c 128,-1,160
 513 284 513 284 513 292 c 0,161,162
 513 306 513 306 517 311 c 0,163,164
 519 313 519 313 520.5 315.5 c 128,-1,165
 522 318 522 318 522 320 c 2,166,-1
 522 321 l 2,167,168
 519 321 519 321 525 331 c 0,169,170
 530 339 530 339 534 354 c 0,171,172
 538 368 538 368 541 370 c 0,173,174
 555 378 555 378 573 456 c 0,175,176
 585 501 585 501 585 564 c 0,177,178
 585 604 585 604 578 604 c 0,179,180
 574 604 574 604 574 612 c 0,181,182
 574 619 574 619 561 630.5 c 128,-1,183
 548 642 548 642 540 642 c 0,97,98
126 89 m 0,184,185
 128 87 128 87 131 85 c 128,-1,186
 134 83 134 83 140.5 77.5 c 128,-1,187
 147 72 147 72 151.5 69 c 128,-1,188
 156 66 156 66 156 67 c 0,189,190
 156 70 156 70 160 66 c 0,191,192
 167 55 167 55 207 41 c 0,193,194
 224 35 224 35 255 35 c 0,195,196
 290 35 290 35 295 42 c 0,197,198
 296 45 296 45 309 49 c 0,199,200
 318 52 318 52 327.5 59.5 c 128,-1,201
 337 67 337 67 344 70 c 0,202,203
 356 75 356 75 366 85 c 0,204,205
 370 89 370 89 375.5 90.5 c 128,-1,206
 381 92 381 92 384.5 91 c 128,-1,207
 388 90 388 90 388 86 c 0,208,209
 388 81 388 81 360 55 c 0,210,211
 311 9 311 9 282 9 c 0,212,213
 270 9 270 9 269 4 c 0,214,215
 268 0 268 0 277 -2 c 0,216,217
 287 -4 287 -4 287 -8 c 0,218,219
 287 -10 287 -10 295.5 -9 c 128,-1,220
 304 -8 304 -8 304 -12 c 0,221,222
 304 -14 304 -14 311 -14 c 0,223,224
 314 -14 314 -14 323 -13.5 c 128,-1,225
 332 -13 332 -13 335 -13 c 0,226,227
 342 -13 342 -13 342 -15 c 128,-1,228
 342 -17 342 -17 358 -17 c 0,229,230
 361 -17 361 -17 369.5 -16.5 c 128,-1,231
 378 -16 378 -16 383 -16 c 0,232,233
 412 -15 412 -15 421 -12.5 c 128,-1,234
 430 -10 430 -10 444 0 c 0,235,236
 464 15 464 15 464 18 c 128,-1,237
 464 21 464 21 474 23 c 2,238,-1
 477 23 l 2,239,240
 492 23 492 23 492 -3 c 0,241,242
 492 -22 492 -22 483 -27 c 0,243,244
 480 -29 480 -29 455.5 -50.5 c 128,-1,245
 431 -72 431 -72 423 -73 c 0,246,247
 416 -74 416 -74 395 -81 c 0,248,249
 375 -86 375 -86 340 -86 c 0,250,251
 291 -86 291 -86 238 -78.5 c 128,-1,252
 185 -71 185 -71 167 -60 c 0,253,254
 165 -59 165 -59 155.5 -56 c 128,-1,255
 146 -53 146 -53 138 -50 c 128,-1,256
 130 -47 130 -47 129 -44 c 0,257,258
 127 -39 127 -39 103 -24 c 0,259,260
 93 -17 93 -17 87.5 -12 c 128,-1,261
 82 -7 82 -7 80 -4 c 128,-1,262
 78 -1 78 -1 74 9.5 c 128,-1,263
 70 20 70 20 67 26 c 0,264,265
 58 44 58 44 47 129 c 0,266,267
 43 163 43 163 43 203 c 0,268,269
 43 252 43 252 47 256 c 0,270,271
 50 259 50 259 53.5 295.5 c 128,-1,272
 57 332 57 332 59 334 c 0,273,274
 62 343 62 343 62 353 c 0,275,276
 63 364 63 364 69.5 383.5 c 128,-1,277
 76 403 76 403 80 405 c 128,-1,278
 84 407 84 407 88 424 c 0,279,280
 90 429 90 429 95.5 451.5 c 128,-1,281
 101 474 101 474 106.5 494 c 128,-1,282
 112 514 112 514 116 518 c 0,283,284
 124 529 124 529 140 543.5 c 128,-1,285
 156 558 156 558 161 559 c 0,286,287
 165 560 165 560 191 584 c 0,288,289
 224 616 224 616 232 616 c 0,290,291
 235 616 235 616 253 626 c 0,292,293
 280 642 280 642 314 648 c 0,294,295
 329 650 329 650 329 654 c 128,-1,296
 329 658 329 658 379 660 c 0,297,298
 430 664 430 664 449 669 c 0,299,300
 453 670 453 670 460.5 672 c 128,-1,301
 468 674 468 674 473 675.5 c 128,-1,302
 478 677 478 677 481 677 c 0,303,304
 485 678 485 678 495 678 c 0,305,306
 531 678 531 678 564 664 c 0,307,308
 592 653 592 653 602.5 637 c 128,-1,309
 613 621 613 621 621 580 c 0,310,311
 631 524 631 524 631 495 c 0,312,313
 631 473 631 473 627 450 c 0,314,315
 618 397 618 397 600 397 c 0,316,317
 592 397 592 397 582 355 c 0,318,319
 578 336 578 336 563 311 c 0,320,321
 549 290 549 290 522 233 c 0,322,323
 495 178 495 178 472.5 154.5 c 128,-1,324
 450 131 450 131 425 131 c 0,325,326
 405 131 405 131 392 153 c 128,-1,327
 379 175 379 175 380 207 c 2,328,-1
 380 249 l 1,329,-1
 368 242 l 2,330,331
 323 213 323 213 319 209 c 0,332,333
 291 181 291 181 247 181 c 0,334,335
 234 181 234 181 229 183 c 0,336,337
 219 185 219 185 205 198 c 128,-1,338
 191 211 191 211 184 223 c 0,339,340
 181 229 181 229 181 253 c 0,341,342
 181 282 181 282 185 316.5 c 128,-1,343
 189 351 189 351 194 357 c 0,344,345
 194 358 194 358 196 362.5 c 128,-1,346
 198 367 198 367 200 373.5 c 128,-1,347
 202 380 202 380 204 386 c 0,348,349
 219 443 219 443 235 453 c 0,350,351
 238 455 238 455 258 483 c 0,352,353
 276 508 276 508 286 516 c 128,-1,354
 296 524 296 524 296 528 c 128,-1,355
 296 532 296 532 271 532 c 0,356,357
 236 532 236 532 223 526 c 0,358,359
 204 519 204 519 197 519 c 0,360,361
 187 519 187 519 165 487 c 0,362,363
 144 455 144 455 144 451 c 0,364,365
 144 446 144 446 138 440 c 0,366,367
 133 433 133 433 124.5 407.5 c 128,-1,368
 116 382 116 382 114 378 c 0,369,370
 107 365 107 365 95 306 c 0,371,372
 86 261 86 261 86 226 c 2,373,-1
 86 207 l 2,374,375
 87 174 87 174 89.5 163 c 128,-1,376
 92 152 92 152 105 126 c 0,377,378
 123 89 123 89 126 89 c 0,184,185
EndSplineSet
Validated: 33
EndChar

StartChar: A
Encoding: 65 65 37
Width: 777
GlyphClass: 2
Flags: W
LayerCount: 2
Fore
SplineSet
641 339 m 0,0,1
 641 337 641 337 642 337 c 0,2,3
 645 339 645 339 644 342 c 0,4,5
 643 343 643 343 642 341.5 c 128,-1,6
 641 340 641 340 641 339 c 0,0,1
495 658 m 0,7,8
 495 690 495 690 492 690 c 0,9,10
 484 690 484 690 473 658 c 0,11,12
 467 641 467 641 464 639 c 0,13,14
 461 638 461 638 461 626 c 0,15,16
 461 615 461 615 456 613 c 0,17,18
 450 611 450 611 446 590 c 0,19,20
 443 570 443 570 435 564 c 0,21,22
 425 558 425 558 409 508 c 0,23,24
 394 461 394 461 394 449 c 0,25,26
 394 447 394 447 395 446 c 0,27,28
 397 444 397 444 399 448 c 0,29,30
 400 451 400 451 418 451 c 0,31,32
 442 451 442 451 494 447 c 2,33,-1
 518 445 l 1,34,-1
 516 466 l 2,35,36
 515 476 515 476 509.5 519.5 c 128,-1,37
 504 563 504 563 499.5 603 c 128,-1,38
 495 643 495 643 495 658 c 0,7,8
269 182 m 0,39,40
 269 180 269 180 255 145.5 c 128,-1,41
 241 111 241 111 241 108 c 0,42,43
 241 103 241 103 237 95 c 0,44,45
 214 54 214 54 210 31 c 0,46,47
 209 24 209 24 203 9 c 0,48,49
 198 1 198 1 198 -4 c 0,50,51
 198 -16 198 -16 182 -45 c 0,52,53
 166 -82 166 -82 166 -107 c 0,54,55
 166 -112 166 -112 154 -136 c 0,56,57
 146 -151 146 -151 142.5 -155.5 c 128,-1,58
 139 -160 139 -160 133 -160 c 0,59,60
 124 -160 124 -160 116 -169 c 0,61,62
 109 -179 109 -179 98 -179 c 0,63,64
 85 -179 85 -179 85 -167 c 0,65,66
 85 -164 85 -164 86 -162 c 0,67,68
 88 -155 88 -155 84.5 -153.5 c 128,-1,69
 81 -152 81 -152 76 -158 c 0,70,71
 66 -169 66 -169 55 -159 c 0,72,73
 43 -149 43 -149 56 -133 c 0,74,75
 63 -124 63 -124 63 -113 c 0,76,77
 63 -88 63 -88 97 -14 c 0,78,79
 114 30 114 30 129 58 c 0,80,81
 134 65 134 65 134 69 c 128,-1,82
 134 73 134 73 147.5 102 c 128,-1,83
 161 131 161 131 161 134 c 0,84,85
 163 145 163 145 173 163 c 0,86,87
 184 183 184 183 184 189 c 128,-1,88
 184 195 184 195 191.5 206.5 c 128,-1,89
 199 218 199 218 200 222 c 0,90,91
 200 224 200 224 218.5 262 c 128,-1,92
 237 300 237 300 237 304 c 2,93,-1
 252 334 l 2,94,95
 266 364 266 364 266 368 c 0,96,97
 266 369 266 369 262.5 369 c 128,-1,98
 259 369 259 369 253.5 367.5 c 128,-1,99
 248 366 248 366 242 364 c 0,100,101
 221 357 221 357 205 357 c 2,102,-1
 170 357 l 2,103,104
 152 357 152 357 144 349 c 0,105,106
 137 341 137 341 114 338 c 0,107,108
 92 336 92 336 67 327 c 0,109,110
 40 318 40 318 36 318 c 128,-1,111
 32 318 32 318 28 307 c 0,112,113
 23 294 23 294 18 298 c 0,114,115
 16 300 16 300 16 305 c 128,-1,116
 16 310 16 310 -7.5 312.5 c 128,-1,117
 -31 315 -31 315 -32 318 c 0,118,119
 -34 321 -34 321 -39 321 c 0,120,121
 -45 321 -45 321 -42 334 c 0,122,123
 -40 343 -40 343 -41 344.5 c 128,-1,124
 -42 346 -42 346 -47 344 c 0,125,126
 -52 343 -52 343 -53 346 c 128,-1,127
 -54 349 -54 349 -54 365 c 2,128,-1
 -54 388 l 1,129,-1
 -34 385 l 2,130,131
 -28 384 -28 384 -10 384 c 0,132,133
 42 384 42 384 42 389 c 0,134,135
 42 391 42 391 65.5 394.5 c 128,-1,136
 89 398 89 398 114.5 402.5 c 128,-1,137
 140 407 140 407 143 410 c 0,138,139
 147 414 147 414 160 414 c 128,-1,140
 173 414 173 414 173 417 c 0,141,142
 173 418 173 418 202 423 c 128,-1,143
 231 428 231 428 261 433 c 128,-1,144
 291 438 291 438 293 440 c 128,-1,145
 295 442 295 442 311 473.5 c 128,-1,146
 327 505 327 505 328 508 c 0,147,148
 354 556 354 556 354 563 c 0,149,150
 354 567 354 567 363 578 c 128,-1,151
 372 589 372 589 374 599 c 0,152,153
 376 610 376 610 381 613 c 128,-1,154
 386 616 386 616 386 624 c 0,155,156
 386 630 386 630 394 644 c 0,157,158
 403 660 403 660 406 671 c 0,159,160
 408 680 408 680 411 683 c 128,-1,161
 414 686 414 686 421 687 c 128,-1,162
 428 688 428 688 431.5 691.5 c 128,-1,163
 435 695 435 695 442 708 c 0,164,165
 444 713 444 713 447 718.5 c 128,-1,166
 450 724 450 724 452.5 729 c 128,-1,167
 455 734 455 734 456 735 c 0,168,169
 475 773 475 773 475 778 c 128,-1,170
 475 783 475 783 496 825 c 0,171,172
 500 833 500 833 503 835.5 c 128,-1,173
 506 838 506 838 515 838 c 0,174,175
 529 838 529 838 532 844 c 128,-1,176
 535 850 535 850 547 850 c 128,-1,177
 559 850 559 850 563 839 c 128,-1,178
 567 828 567 828 569 790 c 0,179,180
 570 775 570 775 572.5 738 c 128,-1,181
 575 701 575 701 575 676 c 0,182,183
 576 651 576 651 585.5 576.5 c 128,-1,184
 595 502 595 502 597 473 c 2,185,-1
 600 442 l 1,186,-1
 615 442 l 1,187,-1
 624 442 l 2,188,189
 688 442 688 442 726 458 c 0,190,191
 738 464 738 464 780 464 c 0,192,193
 814 463 814 463 823 461.5 c 128,-1,194
 832 460 832 460 832 454 c 0,195,196
 832 442 832 442 837 442 c 0,197,198
 844 442 844 442 847 448 c 0,199,200
 851 455 851 455 869 461 c 0,201,202
 919 479 919 479 921 486 c 0,203,204
 923 488 923 488 931 488 c 0,205,206
 938 488 938 488 941 476 c 0,207,208
 943 461 943 461 942 453 c 128,-1,209
 941 445 941 445 938.5 442 c 128,-1,210
 936 439 936 439 926 436 c 0,211,212
 889 425 889 425 868 406 c 0,213,214
 861 399 861 399 857 399 c 128,-1,215
 853 399 853 399 837 385 c 0,216,217
 823 373 823 373 798 358 c 0,218,219
 779 349 779 349 772 342 c 0,220,221
 768 337 768 337 767 342 c 128,-1,222
 766 347 766 347 762 346 c 128,-1,223
 758 345 758 345 757 339 c 0,224,225
 756 334 756 334 733 331 c 0,226,227
 718 330 718 330 701 322.5 c 128,-1,228
 684 315 684 315 684 310 c 0,229,230
 684 301 684 301 670 312 c 0,231,232
 667 314 667 314 665 317 c 0,233,234
 659 324 659 324 654 324 c 0,235,236
 652 324 652 324 645.5 321 c 128,-1,237
 639 318 639 318 633 318 c 0,238,239
 624 318 624 318 624 310 c 0,240,241
 624 305 624 305 629 277 c 0,242,243
 630 272 630 272 635.5 230.5 c 128,-1,244
 641 189 641 189 646 177 c 0,245,246
 648 168 648 168 650 113 c 0,247,248
 656 -49 656 -49 656 -127 c 0,249,250
 656 -199 656 -199 650 -203 c 0,251,252
 642 -209 642 -209 642 -224 c 128,-1,253
 642 -239 642 -239 650 -245 c 0,254,255
 656 -249 656 -249 652 -250 c 0,256,257
 650 -250 650 -250 641 -250 c 0,258,259
 624 -250 624 -250 620 -240 c 0,260,261
 616 -229 616 -229 618 -222 c 0,262,263
 620 -213 620 -213 615 -207 c 0,264,265
 608 -200 608 -200 607 -162 c 0,266,267
 605 -126 605 -126 603 -117 c 0,268,269
 594 -96 594 -96 590 -51 c 0,270,271
 586 -8 586 -8 582 6.5 c 128,-1,272
 578 21 578 21 566 32 c 0,273,274
 550 48 550 48 544 78 c 0,275,276
 534 128 534 128 530 250 c 0,277,278
 528 368 528 368 519 370 c 0,279,280
 513 372 513 372 509 368 c 0,281,282
 506 365 506 365 501 364 c 128,-1,283
 496 363 496 363 493 364 c 128,-1,284
 490 365 490 365 490 367 c 0,285,286
 490 370 490 370 453.5 373 c 128,-1,287
 417 376 417 376 386 376 c 0,288,289
 359 376 359 376 355 374 c 0,290,291
 347 371 347 371 347 364 c 0,292,293
 347 359 347 359 340 347 c 128,-1,294
 333 335 333 335 333 330 c 0,295,296
 333 323 333 323 328 318 c 0,297,298
 325 315 325 315 312 286.5 c 128,-1,299
 299 258 299 258 297 252 c 0,300,301
 294 246 294 246 287 226 c 128,-1,302
 280 206 280 206 276 199 c 0,303,304
 269 187 269 187 269 182 c 0,39,40
EndSplineSet
Validated: 1
Substitution2: "Single Substitution lookup 3 subtable" A.ss01
Substitution2: "Single Substitution lookup 2 subtable" A.ss01
EndChar

StartChar: B
Encoding: 66 66 38
Width: 401
GlyphClass: 2
Flags: W
LayerCount: 2
Fore
SplineSet
316 368 m 128,-1,1
 316 372 316 372 310 378 c 128,-1,2
 304 384 304 384 304 378 c 0,3,4
 304 373 304 373 307 368.5 c 128,-1,5
 310 364 310 364 314 364 c 0,6,0
 316 364 316 364 316 368 c 128,-1,1
250 390 m 2,7,-1
 227 410 l 1,8,-1
 201 412 l 2,9,10
 193 413 193 413 181 413 c 0,11,12
 167 413 167 413 145 406 c 0,13,14
 127 401 127 401 114 400 c 2,15,-1
 98 398 l 1,16,-1
 100 379 l 2,17,18
 102 361 102 361 102 247 c 0,19,20
 102 171 102 171 101 146 c 0,21,22
 101 143 101 143 103 121 c 2,23,-1
 105 100 l 1,24,-1
 136 97 l 2,25,26
 170 93 170 93 178 93 c 0,27,28
 190 93 190 93 210.5 103.5 c 128,-1,29
 231 114 231 114 241 125 c 0,30,31
 250 135 250 135 261.5 155.5 c 128,-1,32
 273 176 273 176 273 181 c 0,33,34
 273 184 273 184 247 170 c 0,35,36
 222 155 222 155 214 155 c 0,37,38
 208 155 208 155 208 161 c 0,39,40
 207 168 207 168 221 179 c 0,41,42
 234 190 234 190 238 190 c 128,-1,43
 242 190 242 190 244 194 c 0,44,45
 245 197 245 197 256 203 c 0,46,47
 272 211 272 211 282.5 233.5 c 128,-1,48
 293 256 293 256 293 282 c 0,49,50
 293 323 293 323 277 353 c 0,51,52
 273 363 273 363 273 365 c 0,53,54
 273 369 273 369 250 390 c 2,7,-1
198 645 m 0,55,56
 171 648 171 648 156 648 c 0,57,58
 136 648 136 648 129 642 c 0,59,60
 121 635 121 635 126 624 c 0,61,62
 133 602 133 602 136 552 c 0,63,64
 136 545 136 545 130 549 c 0,65,66
 128 551 128 551 127 554 c 0,67,68
 125 560 125 560 120 562 c 0,69,70
 112 564 112 564 112 597 c 0,71,72
 112 604 112 604 113 606 c 128,-1,73
 114 608 114 608 113 609.5 c 128,-1,74
 112 611 112 611 111 611 c 0,75,76
 98 611 98 611 98 499 c 2,77,-1
 98 458 l 2,78,79
 97 455 97 455 100 453.5 c 128,-1,80
 103 452 103 452 108 452 c 0,81,82
 120 452 120 452 139.5 457 c 128,-1,83
 159 462 159 462 162 465 c 0,84,85
 167 470 167 470 203 475 c 0,86,87
 253 483 253 483 265.5 490.5 c 128,-1,88
 278 498 278 498 288 529 c 0,89,90
 293 544 293 544 293 557 c 0,91,92
 293 592 293 592 262 622 c 0,93,94
 248 635 248 635 239.5 638 c 128,-1,95
 231 641 231 641 198 645 c 0,55,56
276 656 m 0,96,97
 276 657 276 657 274 657 c 0,98,99
 273 657 273 657 273 656 c 0,100,101
 273 654 273 654 274 654 c 0,102,103
 276 654 276 654 276 656 c 0,96,97
196 685 m 0,104,105
 212 687 212 687 229 687 c 0,106,107
 266 687 266 687 281 682 c 0,108,109
 290 679 290 679 308.5 655.5 c 128,-1,110
 327 632 327 632 332 619 c 0,111,112
 342 591 342 591 342 541 c 0,113,114
 340 510 340 510 329 482 c 0,115,116
 325 473 325 473 313 464 c 0,117,118
 282 443 282 443 282 439 c 0,119,120
 282 438 282 438 295 432 c 0,121,122
 300 430 300 430 309 422 c 128,-1,123
 318 414 318 414 326 414 c 0,124,125
 336 414 336 414 337 406 c 0,126,127
 339 396 339 396 346 380 c 0,128,129
 360 349 360 349 360 325 c 0,130,131
 360 323 360 323 359.5 319 c 128,-1,132
 359 315 359 315 359 312 c 0,133,134
 358 297 358 297 354.5 285 c 128,-1,135
 351 273 351 273 350 261 c 128,-1,136
 349 249 349 249 343 235 c 0,137,138
 339 224 339 224 332 199 c 0,139,140
 326 171 326 171 314 157 c 0,141,142
 292 131 292 131 285 120 c 0,143,144
 279 108 279 108 279 105 c 128,-1,145
 279 102 279 102 269.5 91.5 c 128,-1,146
 260 81 260 81 252 81 c 0,147,148
 249 81 249 81 246 84 c 0,149,150
 242 87 242 87 227 78 c 0,151,152
 208 67 208 67 174 65 c 0,153,154
 148 63 148 63 138 63 c 0,155,156
 90 63 90 63 79 74 c 0,157,158
 72 81 72 81 66 81 c 0,159,160
 58 81 58 81 55 93 c 128,-1,161
 52 105 52 105 52 122 c 128,-1,162
 52 139 52 139 50 145 c 0,163,164
 38 171 38 171 38 428 c 0,165,166
 38 652 38 652 44 660 c 0,167,168
 46 663 46 663 53 663 c 128,-1,169
 60 663 60 663 62 660 c 0,170,171
 63 659 63 659 64 659 c 0,172,173
 68 659 68 659 81.5 662 c 128,-1,174
 95 665 95 665 108 668.5 c 128,-1,175
 121 672 121 672 123 672 c 0,176,177
 131 674 131 674 152 674 c 128,-1,178
 173 674 173 674 175 678 c 0,179,180
 177 681 177 681 196 685 c 0,104,105
EndSplineSet
Validated: 1
Substitution2: "Single Substitution lookup 3 subtable" B.ss01
Substitution2: "Single Substitution lookup 2 subtable" B.ss01
EndChar

StartChar: C
Encoding: 67 67 39
Width: 451
GlyphClass: 2
Flags: W
LayerCount: 2
Fore
SplineSet
272 176 m 0,0,1
 272 178 272 178 298.5 192.5 c 128,-1,2
 325 207 325 207 325 210 c 0,3,4
 325 215 325 215 339 217 c 0,5,6
 351 219 351 219 378 230 c 0,7,8
 398 239 398 239 402 239 c 0,9,10
 407 239 407 239 407 232 c 2,11,-1
 407 225 l 2,12,13
 407 194 407 194 399 194 c 0,14,15
 395 194 395 194 383 184 c 0,16,17
 372 175 372 175 375 169 c 128,-1,18
 378 163 378 163 378 168 c 0,19,20
 378 172 378 172 385 172 c 0,21,22
 393 172 393 172 393 168 c 0,23,24
 393 160 393 160 373 148 c 0,25,26
 353 137 353 137 349 137 c 0,27,28
 344 137 344 137 341 134 c 0,29,30
 337 130 337 130 312 123 c 0,31,32
 291 116 291 116 260 116 c 2,33,-1
 236 116 l 2,34,35
 222 116 222 116 214.5 116.5 c 128,-1,36
 207 117 207 117 199 118 c 128,-1,37
 191 119 191 119 188.5 119 c 128,-1,38
 186 119 186 119 179 121.5 c 128,-1,39
 172 124 172 124 171 124.5 c 128,-1,40
 170 125 170 125 161 129 c 128,-1,41
 152 133 152 133 148 135 c 0,42,43
 133 141 133 141 124 148.5 c 128,-1,44
 115 156 115 156 108 160 c 0,45,46
 99 165 99 165 88 176 c 128,-1,47
 77 187 77 187 77 192 c 0,48,49
 77 195 77 195 74 198 c 0,50,51
 70 199 70 199 61 223 c 128,-1,52
 52 247 52 247 47 269 c 0,53,54
 42 296 42 296 42 323 c 0,55,56
 42 397 42 397 64 443 c 0,57,58
 73 463 73 463 73 465 c 0,59,60
 73 470 73 470 90 505.5 c 128,-1,61
 107 541 107 541 114 550 c 0,62,63
 123 563 123 563 124 568 c 0,64,65
 132 588 132 588 170 626.5 c 128,-1,66
 208 665 208 665 220 665 c 0,67,68
 224 665 224 665 228.5 671 c 128,-1,69
 233 677 233 677 236 678 c 0,70,71
 243 680 243 680 247 683 c 0,72,73
 259 691 259 691 307 697 c 0,74,75
 333 700 333 700 335 704 c 0,76,77
 337 713 337 713 342 705 c 2,78,-1
 344 697 l 2,79,80
 345 689 345 689 347.5 686.5 c 128,-1,81
 350 684 350 684 360 681 c 0,82,83
 371 678 371 678 380 671.5 c 128,-1,84
 389 665 389 665 389 661 c 128,-1,85
 389 657 389 657 396 643 c 128,-1,86
 403 629 403 629 405 617 c 2,87,-1
 408 604 l 1,88,-1
 387 607 l 2,89,90
 365 609 365 609 353 623 c 0,91,92
 324 655 324 655 297 655 c 0,93,94
 290 655 290 655 287 651 c 0,95,96
 286 648 286 648 276 650 c 2,97,-1
 272 650 l 2,98,99
 263 650 263 650 253 642.5 c 128,-1,100
 243 635 243 635 241 626 c 0,101,102
 239 616 239 616 236 616 c 0,103,104
 231 616 231 616 209 605.5 c 128,-1,105
 187 595 187 595 184 591 c 0,106,107
 182 589 182 589 176 573 c 128,-1,108
 170 557 170 557 167 554 c 0,109,110
 162 549 162 549 159 536 c 0,111,112
 153 516 153 516 147.5 497 c 128,-1,113
 142 478 142 478 140 471 c 128,-1,114
 138 464 138 464 137 461 c 0,115,116
 137 460 137 460 134.5 453 c 128,-1,117
 132 446 132 446 131 442 c 2,118,-1
 124 421 l 1,119,-1
 124 419 l 2,120,121
 124 417 124 417 123 413.5 c 128,-1,122
 122 410 122 410 121 406 c 0,123,124
 115 390 115 390 115 335 c 0,125,126
 115 290 115 290 118 276 c 128,-1,127
 121 262 121 262 137 238 c 0,128,129
 143 229 143 229 148 219 c 0,130,131
 153 211 153 211 174 200.5 c 128,-1,132
 195 190 195 190 206 190 c 0,133,134
 218 190 218 190 222 181 c 0,135,136
 225 174 225 174 233.5 174 c 128,-1,137
 242 174 242 174 249 172 c 0,138,139
 253 170 253 170 262.5 171.5 c 128,-1,140
 272 173 272 173 272 176 c 0,0,1
EndSplineSet
Validated: 1
Substitution2: "Single Substitution lookup 3 subtable" C.ss01
Substitution2: "Single Substitution lookup 2 subtable" C.ss01
EndChar

StartChar: D
Encoding: 68 68 40
Width: 508
GlyphClass: 2
Flags: W
LayerCount: 2
Fore
SplineSet
279 668 m 0,0,1
 251 675 251 675 238 675 c 0,2,3
 222 675 222 675 198 667 c 0,4,5
 168 657 168 657 132 657 c 2,6,-1
 126 657 l 2,7,8
 120 658 120 658 114.5 654.5 c 128,-1,9
 109 651 109 651 105 651 c 0,10,11
 98 651 98 651 93 639 c 0,12,13
 88 629 88 629 88 561 c 0,14,15
 88 492 88 492 93 476 c 0,16,17
 100 449 100 449 106.5 357.5 c 128,-1,18
 113 266 113 266 113 194 c 2,19,-1
 113 139 l 1,20,-1
 126 136 l 2,21,22
 138 132 138 132 160 132 c 0,23,24
 210 132 210 132 223 145 c 0,25,26
 227 149 227 149 233 149 c 0,27,28
 236 149 236 149 236.5 153 c 128,-1,29
 237 157 237 157 237 160 c 0,30,31
 236 166 236 166 237 167 c 128,-1,32
 238 168 238 168 245 162 c 0,33,34
 248 159 248 159 254 159 c 0,35,36
 268 159 268 159 273 173 c 0,37,38
 275 177 275 177 280.5 184.5 c 128,-1,39
 286 192 286 192 287 200 c 0,40,41
 288 210 288 210 298 211 c 0,42,43
 308 213 308 213 310 218 c 0,44,45
 311 220 311 220 321.5 235.5 c 128,-1,46
 332 251 332 251 332 256 c 0,47,48
 332 264 332 264 340 274 c 0,49,50
 347 281 347 281 358 308.5 c 128,-1,51
 369 336 369 336 373 342 c 0,52,53
 381 353 381 353 381 358 c 128,-1,54
 381 363 381 363 393 380 c 0,55,56
 414 413 414 413 414 445 c 2,57,-1
 414 453 l 2,58,59
 412 480 412 480 404.5 504.5 c 128,-1,60
 397 529 397 529 395 543 c 0,61,62
 391 562 391 562 377.5 591 c 128,-1,63
 364 620 364 620 353 631 c 0,64,65
 330 654 330 654 279 668 c 0,0,1
72 675 m 0,66,67
 68 669 68 669 72 669 c 0,68,69
 77 668 77 668 79 673 c 0,70,71
 81 676 81 676 78 677 c 0,72,73
 74 679 74 679 72 675 c 0,66,67
61 722 m 0,74,75
 69 728 69 728 71 728 c 0,76,77
 80 728 80 728 78 710 c 0,78,79
 77 703 77 703 79.5 702 c 128,-1,80
 82 701 82 701 96 700 c 0,81,82
 116 700 116 700 116 703 c 0,83,84
 116 707 116 707 126 707 c 0,85,86
 137 707 137 707 152 712 c 0,87,88
 164 715 164 715 182 715 c 0,89,90
 213 715 213 715 234 708 c 0,91,92
 248 703 248 703 285 703 c 0,93,94
 315 703 315 703 327 698 c 128,-1,95
 339 693 339 693 362 672 c 0,96,97
 377 657 377 657 399 639 c 0,98,99
 419 623 419 623 422 611 c 0,100,101
 423 606 423 606 442 576 c 0,102,103
 454 558 454 558 457 544.5 c 128,-1,104
 460 531 460 531 462 478 c 0,105,106
 462 472 462 472 462.5 462 c 128,-1,107
 463 452 463 452 463 448 c 0,108,109
 463 428 463 428 460 419 c 0,110,111
 457 412 457 412 451.5 382.5 c 128,-1,112
 446 353 446 353 443 346 c 0,113,114
 443 344 443 344 434.5 326 c 128,-1,115
 426 308 426 308 426 305 c 128,-1,116
 426 302 426 302 408 266 c 128,-1,117
 390 230 390 230 382 217 c 0,118,119
 371 200 371 200 355 184 c 0,120,121
 342 171 342 171 342 167 c 128,-1,122
 342 163 342 163 339 163 c 128,-1,123
 336 163 336 163 321 152 c 0,124,125
 303 138 303 138 290 134 c 0,126,127
 280 130 280 130 207 112 c 0,128,129
 177 106 177 106 175 102 c 0,130,131
 169 91 169 91 137 88 c 0,132,133
 116 87 116 87 107 79 c 0,134,135
 99 73 99 73 93 73 c 0,136,137
 86 73 86 73 83 78 c 128,-1,138
 80 83 80 83 74 104 c 0,139,140
 71 116 71 116 64 128 c 0,141,142
 59 136 59 136 56 210 c 0,143,144
 53 274 53 274 44 353 c 0,145,146
 40 382 40 382 40 449 c 0,147,148
 40 522 40 522 46 634 c 0,149,150
 49 690 49 690 51.5 703.5 c 128,-1,151
 54 717 54 717 61 722 c 0,74,75
EndSplineSet
Validated: 1
Substitution2: "Single Substitution lookup 3 subtable" D.ss01
Substitution2: "Single Substitution lookup 2 subtable" D.ss01
EndChar

StartChar: E
Encoding: 69 69 41
Width: 431
GlyphClass: 2
Flags: W
LayerCount: 2
Fore
SplineSet
131 396 m 256,0,1
 133 394 133 394 135 396 c 128,-1,2
 137 398 137 398 133 398 c 128,-1,3
 129 398 129 398 131 396 c 256,0,1
70 674 m 0,4,5
 70 680 70 680 75 687.5 c 128,-1,6
 80 695 80 695 85 695 c 0,7,8
 102 695 102 695 131 686 c 128,-1,9
 160 677 160 677 173 676 c 0,10,11
 191 674 191 674 198 671 c 0,12,13
 199 670 199 670 203 670 c 0,14,15
 213 670 213 670 231.5 674 c 128,-1,16
 250 678 250 678 254 682 c 128,-1,17
 258 686 258 686 288 686 c 2,18,-1
 337 686 l 2,19,20
 371 686 371 686 371 666 c 0,21,22
 371 661 371 661 369 660 c 128,-1,23
 367 659 367 659 359 659 c 0,24,25
 348 659 348 659 346 655 c 0,26,27
 344 652 344 652 362 652 c 0,28,29
 386 652 386 652 386 642 c 0,30,31
 386 641 386 641 384 635 c 0,32,33
 381 627 381 627 357 625 c 128,-1,34
 333 623 333 623 331 619 c 0,35,36
 325 609 325 609 261 609 c 0,37,38
 227 609 227 609 200 606 c 0,39,40
 180 604 180 604 174 604 c 0,41,42
 150 604 150 604 150 616 c 0,43,44
 150 622 150 622 148 622 c 128,-1,45
 146 622 146 622 139 619 c 128,-1,46
 132 616 132 616 132 603 c 0,47,48
 132 586 132 586 133 571 c 2,49,-1
 133 549 l 2,50,51
 133 514 133 514 130 486 c 0,52,53
 127 460 127 460 127 448 c 0,54,55
 127 444 127 444 176 440 c 0,56,57
 213 437 213 437 244 437 c 0,58,59
 276 437 276 437 296 438 c 2,60,-1
 299 438 l 2,61,62
 312 438 312 438 325.5 434 c 128,-1,63
 339 430 339 430 340 425 c 0,64,65
 342 421 342 421 348 421 c 128,-1,66
 354 421 354 421 355 425 c 0,67,68
 357 429 357 429 367 429 c 0,69,70
 378 430 378 430 383 421 c 0,71,72
 385 415 385 415 385 414 c 0,73,74
 385 404 385 404 349 396 c 0,75,76
 330 392 330 392 325 389 c 128,-1,77
 320 386 320 386 320 381 c 0,78,79
 320 374 320 374 311 372 c 0,80,81
 302 372 302 372 282 367 c 0,82,83
 246 361 246 361 230 360 c 0,84,85
 212 359 212 359 201 355.5 c 128,-1,86
 190 352 190 352 164 352 c 2,87,-1
 129 352 l 1,88,-1
 131 336 l 2,89,90
 133 318 133 318 139.5 270 c 128,-1,91
 146 222 146 222 147 210 c 0,92,93
 151 174 151 174 155 168 c 0,94,95
 162 156 162 156 155 148 c 0,96,97
 150 143 150 143 150 138 c 0,98,99
 150 135 150 135 145 121 c 128,-1,100
 140 107 140 107 140 105 c 128,-1,101
 140 103 140 103 153 103 c 0,102,103
 169 103 169 103 172 106 c 0,104,105
 173 107 173 107 178.5 103 c 128,-1,106
 184 99 184 99 185 104 c 0,107,108
 187 108 187 108 204 108 c 0,109,110
 222 108 222 108 222 114 c 128,-1,111
 222 120 222 120 228 120.5 c 128,-1,112
 234 121 234 121 239 116 c 128,-1,113
 244 111 244 111 257 111 c 0,114,115
 268 111 268 111 278 114 c 0,116,117
 290 118 290 118 291 111 c 0,118,119
 293 104 293 104 303 101 c 0,120,121
 315 97 315 97 315 94 c 0,122,123
 315 92 315 92 321.5 92 c 128,-1,124
 328 92 328 92 328 90 c 256,125,126
 328 88 328 88 331 92 c 0,127,128
 334 98 334 98 349 98 c 0,129,130
 372 98 372 98 372 81 c 0,131,132
 372 80 372 80 371.5 77.5 c 128,-1,133
 371 75 371 75 371 74 c 0,134,135
 369 63 369 63 359 62 c 0,136,137
 348 60 348 60 346 58 c 0,138,139
 341 54 341 54 319.5 48 c 128,-1,140
 298 42 298 42 289 42 c 128,-1,141
 280 42 280 42 233.5 49.5 c 128,-1,142
 187 57 187 57 162 57 c 2,143,-1
 155 57 l 1,144,-1
 138 57 l 2,145,146
 119 57 119 57 116 60 c 0,147,148
 111 65 111 65 104 64 c 128,-1,149
 97 63 97 63 96 57 c 128,-1,150
 95 51 95 51 87 49 c 2,151,-1
 83 49 l 2,152,153
 74 49 74 49 72.5 65.5 c 128,-1,154
 71 82 71 82 66 86 c 128,-1,155
 61 90 61 90 61 97 c 128,-1,156
 61 104 61 104 66 106 c 0,157,158
 70 107 70 107 70 127 c 0,159,160
 70 154 70 154 69 178 c 0,161,162
 69 187 69 187 67.5 243.5 c 128,-1,163
 66 300 66 300 65 325 c 0,164,165
 64 368 64 368 62.5 401 c 128,-1,166
 61 434 61 434 60.5 462 c 128,-1,167
 60 490 60 490 59 543 c 0,168,169
 57 637 57 637 50 642 c 0,170,171
 44 646 44 646 44 650 c 0,172,173
 44 655 44 655 52 661 c 128,-1,174
 60 667 60 667 65 666 c 0,175,176
 68 665 68 665 69 667 c 128,-1,177
 70 669 70 669 70 674 c 0,4,5
EndSplineSet
Validated: 1
Substitution2: "Single Substitution lookup 3 subtable" E.ss01
Substitution2: "Single Substitution lookup 2 subtable" E.ss01
EndChar

StartChar: F
Encoding: 70 70 42
Width: 532
GlyphClass: 2
Flags: W
LayerCount: 2
Fore
SplineSet
147 520 m 128,-1,1
 147 527 147 527 143 527 c 0,2,3
 140 527 140 527 140 520 c 128,-1,4
 140 513 140 513 143 513 c 0,5,0
 147 513 147 513 147 520 c 128,-1,1
334 612 m 0,6,7
 329 618 329 618 326 618 c 0,8,9
 320 618 320 618 320 612 c 0,10,11
 320 605 320 605 334 605 c 0,12,13
 339 605 339 605 334 612 c 0,6,7
189 634 m 0,14,15
 189 637 189 637 182 637 c 128,-1,16
 175 637 175 637 175 634 c 0,17,18
 175 630 175 630 182 630 c 128,-1,19
 189 630 189 630 189 634 c 0,14,15
86 360 m 0,20,21
 76 360 76 360 60 371.5 c 128,-1,22
 44 383 44 383 44 389 c 0,23,24
 44 393 44 393 52.5 401.5 c 128,-1,25
 61 410 61 410 65 410 c 128,-1,26
 69 410 69 410 69 417 c 0,27,28
 69 431 69 431 98 431 c 0,29,30
 108 431 108 431 108 439 c 0,31,32
 108 445 108 445 100 455 c 0,33,34
 93 462 93 462 93 488 c 0,35,36
 93 529 93 529 94 570 c 0,37,38
 94 574 94 574 93.5 586 c 128,-1,39
 93 598 93 598 93 603 c 0,40,41
 92 615 92 615 93 618 c 128,-1,42
 94 621 94 621 99 622 c 0,43,44
 106 623 106 623 111 636 c 0,45,46
 113 641 113 641 119 647.5 c 128,-1,47
 125 654 125 654 133 660.5 c 128,-1,48
 141 667 141 667 143 669 c 128,-1,49
 145 671 145 671 153 675 c 0,50,51
 159 678 159 678 185 678 c 0,52,53
 222 678 222 678 232 673 c 0,54,55
 240 669 240 669 252 674 c 0,56,57
 274 685 274 685 325 685 c 0,58,59
 349 684 349 684 365 673 c 0,60,61
 382 661 382 661 388 666 c 0,62,63
 394 670 394 670 407 661 c 128,-1,64
 420 652 420 652 420 648 c 0,65,66
 420 645 420 645 435 643 c 0,67,68
 450 640 450 640 461 629 c 0,69,70
 475 615 475 615 480 613 c 0,71,72
 487 609 487 609 487 603 c 0,73,74
 487 596 487 596 475 581.5 c 128,-1,75
 463 567 463 567 462 564 c 0,76,77
 461 557 461 557 441 558 c 0,78,79
 404 559 404 559 361.5 567 c 128,-1,80
 319 575 319 575 314 580 c 0,81,82
 306 590 306 590 278 590 c 0,83,84
 276 590 276 590 270.5 589.5 c 128,-1,85
 265 589 265 589 262 589 c 0,86,87
 232 587 232 587 232 584 c 0,88,89
 232 583 232 583 220 579 c 128,-1,90
 208 575 208 575 196 571 c 2,91,-1
 183 567 l 2,92,93
 181 567 181 567 187 559 c 0,94,95
 199 545 199 545 178 545 c 2,96,-1
 168 545 l 1,97,-1
 170 520 l 2,98,99
 170 515 170 515 171.5 496.5 c 128,-1,100
 173 478 173 478 174 470 c 0,101,102
 176 436 176 436 180 425.5 c 128,-1,103
 184 415 184 415 195 415 c 0,104,105
 198 415 198 415 210 417 c 0,106,107
 236 423 236 423 254 424 c 0,108,109
 283 426 283 426 285 430 c 128,-1,110
 287 434 287 434 298 436 c 0,111,112
 360 451 360 451 360 461 c 0,113,114
 360 467 360 467 365 467 c 0,115,116
 371 467 371 467 373 471 c 0,117,118
 376 474 376 474 387.5 480.5 c 128,-1,119
 399 487 399 487 407 487 c 0,120,121
 414 487 414 487 416 482 c 0,122,123
 419 475 419 475 439 480 c 0,124,125
 444 481 444 481 464 486 c 0,126,127
 468 488 468 488 469 486.5 c 128,-1,128
 470 485 470 485 470 480 c 0,129,130
 470 472 470 472 449 460 c 0,131,132
 426 448 426 448 424 444 c 0,133,134
 420 438 420 438 414 438 c 0,135,136
 410 438 410 438 386.5 415.5 c 128,-1,137
 363 393 363 393 363 389 c 128,-1,138
 363 385 363 385 350 378 c 0,139,140
 336 370 336 370 305 367 c 128,-1,141
 274 364 274 364 269 359 c 0,142,143
 268 358 268 358 263 355 c 128,-1,144
 258 352 258 352 255.5 348.5 c 128,-1,145
 253 345 253 345 253 341 c 0,146,147
 253 328 253 328 210 328 c 2,148,-1
 187 328 l 1,149,-1
 185 263 l 2,150,151
 184 248 184 248 184 219 c 128,-1,152
 184 190 184 190 186 164 c 128,-1,153
 188 138 188 138 188 136 c 0,154,155
 188 126 188 126 185 125 c 0,156,157
 177 120 177 120 174 126 c 0,158,159
 167 136 167 136 166 121 c 0,160,161
 166 115 166 115 167 107 c 0,162,163
 168 84 168 84 163 84 c 128,-1,164
 158 84 158 84 158 89 c 0,165,166
 158 95 158 95 148 105 c 0,167,168
 138 117 138 117 138 147 c 0,169,170
 138 175 138 175 132 197 c 0,171,172
 128 210 128 210 123.5 258 c 128,-1,173
 119 306 119 306 119 335 c 0,174,175
 119 345 119 345 117 348 c 128,-1,176
 115 351 115 351 109 353 c 128,-1,177
 103 355 103 355 100 357 c 0,178,179
 94 360 94 360 86 360 c 0,20,21
EndSplineSet
Validated: 1
Substitution2: "Single Substitution lookup 3 subtable" F.ss01
Substitution2: "Single Substitution lookup 2 subtable" F.ss01
EndChar

StartChar: G
Encoding: 71 71 43
Width: 570
GlyphClass: 2
Flags: W
LayerCount: 2
Fore
SplineSet
383 641 m 0,0,1
 383 644 383 644 391 641 c 0,2,3
 398 638 398 638 400 629 c 2,4,-1
 401 619 l 1,5,-1
 392 628 l 2,6,7
 383 637 383 637 383 641 c 0,0,1
337 209 m 0,8,9
 337 215 337 215 330 210 c 2,10,-1
 327 206 l 2,11,12
 324 197 324 197 329 198 c 0,13,14
 331 198 331 198 333 201 c 0,15,16
 337 207 337 207 337 209 c 0,8,9
437 353 m 256,17,18
 442 353 442 353 445 357 c 0,19,20
 447 360 447 360 442 360 c 0,21,22
 436 360 436 360 434 357 c 0,23,24
 432 353 432 353 437 353 c 256,17,18
367 355 m 1,25,26
 364 360 364 360 362 360 c 0,27,28
 351 360 351 360 351 355 c 0,29,30
 351 343 351 343 367 355 c 1,25,26
148 554 m 128,-1,32
 148 556 148 556 166 573 c 128,-1,33
 184 590 184 590 184 591 c 0,34,35
 184 594 184 594 209 619 c 128,-1,36
 234 644 234 644 237 644 c 0,37,38
 239 644 239 644 246 651 c 128,-1,39
 253 658 253 658 259 658 c 0,40,41
 266 658 266 658 266 661 c 0,42,43
 266 669 266 669 305 676 c 0,44,45
 336 682 336 682 350 696 c 0,46,47
 357 703 357 703 371 699 c 0,48,49
 378 697 378 697 379 691 c 128,-1,50
 380 685 380 685 374 680 c 0,51,52
 369 675 369 675 372 673 c 0,53,54
 376 670 376 670 372 657 c 128,-1,55
 368 644 368 644 372 639 c 0,56,57
 375 635 375 635 374 634.5 c 128,-1,58
 373 634 373 634 366 634 c 0,59,60
 355 634 355 634 349 628 c 0,61,62
 344 623 344 623 340 623 c 128,-1,63
 336 623 336 623 331 618 c 128,-1,64
 326 613 326 613 326 609 c 128,-1,65
 326 605 326 605 322 605 c 0,66,67
 319 605 319 605 319 599 c 0,68,69
 319 594 319 594 314 596 c 0,70,71
 311 598 311 598 299 586 c 0,72,73
 273 557 273 557 236 531 c 0,74,75
 224 523 224 523 216.5 514.5 c 128,-1,76
 209 506 209 506 200 499 c 0,77,78
 185 488 185 488 157 457 c 128,-1,79
 129 426 129 426 124 415 c 0,80,81
 118 403 118 403 116 403 c 128,-1,82
 114 403 114 403 95 364 c 0,83,84
 94 360 94 360 86 305 c 0,85,86
 82 273 82 273 82 252 c 0,87,88
 82 236 82 236 85 211 c 0,89,90
 89 169 89 169 92 169 c 0,91,92
 94 169 94 169 98 159 c 0,93,94
 107 136 107 136 131 109 c 0,95,96
 152 85 152 85 198 85 c 0,97,98
 214 85 214 85 222 87 c 0,99,100
 241 92 241 92 247 86 c 0,101,102
 251 82 251 82 253 82 c 0,103,104
 262 82 262 82 263 112 c 0,105,106
 264 135 264 135 280 171 c 0,107,108
 293 200 293 200 303 272 c 0,109,110
 305 286 305 286 295 293 c 0,111,112
 284 300 284 300 277 300 c 0,113,114
 272 300 272 300 262 309 c 128,-1,115
 252 318 252 318 247 318 c 0,116,117
 241 318 241 318 241 321 c 0,118,119
 241 325 241 325 236 325 c 0,120,121
 232 325 232 325 226 336 c 0,122,123
 224 342 224 342 224 343 c 0,124,125
 224 355 224 355 241 355 c 2,126,-1
 247 355 l 2,127,128
 258 353 258 353 260 360 c 0,129,130
 262 365 262 365 274 368.5 c 128,-1,131
 286 372 286 372 334 379 c 0,132,133
 348 381 348 381 356.5 383.5 c 128,-1,134
 365 386 365 386 368 387.5 c 128,-1,135
 371 389 371 389 375.5 390.5 c 128,-1,136
 380 392 380 392 389 392.5 c 128,-1,137
 398 393 398 393 416 393 c 0,138,139
 453 392 453 392 462 390.5 c 128,-1,140
 471 389 471 389 471 382 c 0,141,142
 471 381 471 381 470.5 379.5 c 128,-1,143
 470 378 470 378 470 376 c 0,144,145
 470 365 470 365 472 365 c 0,146,147
 473 365 473 365 481.5 367.5 c 128,-1,148
 490 370 490 370 496.5 373 c 128,-1,149
 503 376 503 376 503 379 c 128,-1,150
 503 382 503 382 514 382 c 128,-1,151
 525 382 525 382 525 377 c 128,-1,152
 525 372 525 372 520 368 c 128,-1,153
 515 364 515 364 510 364 c 0,154,155
 506 364 506 364 488 356 c 2,156,-1
 472 348 l 1,157,-1
 480 342 l 2,158,159
 487 336 487 336 489 338 c 0,160,161
 490 339 490 339 491 340 c 0,162,163
 495 346 495 346 498 346 c 128,-1,164
 501 346 501 346 505.5 339.5 c 128,-1,165
 510 333 510 333 510 328 c 0,166,167
 510 321 510 321 514 321 c 0,168,169
 516 321 516 321 516 317 c 0,170,171
 516 300 516 300 506 293 c 0,172,173
 498 287 498 287 488 289 c 0,174,175
 476 291 476 291 416 291 c 2,176,-1
 356 291 l 1,177,-1
 357 274 l 2,178,179
 357 257 357 257 361 249 c 0,180,181
 369 233 369 233 375 202 c 128,-1,182
 381 171 381 171 381 148 c 0,183,184
 381 137 381 137 379 135 c 0,185,186
 376 134 376 134 376 123 c 0,187,188
 376 95 376 95 356.5 61.5 c 128,-1,189
 337 28 337 28 320 25 c 0,190,191
 309 23 309 23 306 18 c 0,192,193
 304 13 304 13 298 13 c 128,-1,194
 292 13 292 13 287 20 c 0,195,196
 281 29 281 29 247 29 c 0,197,198
 180 31 180 31 180 43 c 0,199,200
 180 46 180 46 176 46.5 c 128,-1,201
 172 47 172 47 168 46 c 128,-1,202
 164 45 164 45 162 47 c 0,203,204
 158 51 158 51 144 55 c 0,205,206
 133 58 133 58 121 68 c 0,207,208
 85 100 85 100 85 108 c 0,209,210
 85 114 85 114 78 121 c 0,211,212
 69 130 69 130 63 147 c 0,213,214
 60 156 60 156 56.5 163.5 c 128,-1,215
 53 171 53 171 51.5 175 c 128,-1,216
 50 179 50 179 48 188.5 c 128,-1,217
 46 198 46 198 45 215 c 0,218,219
 43 228 43 228 43 255 c 0,220,221
 43 299 43 299 53 350 c 0,222,223
 54 353 54 353 57 373.5 c 128,-1,224
 60 394 60 394 63 406 c 128,-1,225
 66 418 66 418 71 424 c 0,226,227
 78 433 78 433 78 440 c 128,-1,228
 78 447 78 447 91.5 475 c 128,-1,229
 105 503 105 503 113 511 c 0,230,231
 120 518 120 518 120 522 c 0,232,233
 120 524 120 524 134 538 c 128,-1,31
 148 552 148 552 148 554 c 128,-1,32
EndSplineSet
Validated: 1
Substitution2: "Single Substitution lookup 3 subtable" G.ss01
Substitution2: "Single Substitution lookup 2 subtable" G.ss01
EndChar

StartChar: H
Encoding: 72 72 44
Width: 558
GlyphClass: 2
Flags: W
LayerCount: 2
Fore
SplineSet
324 416 m 0,0,1
 326 423 326 423 314 418 c 2,2,-1
 306 415 l 1,3,-1
 295 410 l 1,4,-1
 309 411 l 2,5,6
 322 411 322 411 324 416 c 0,0,1
410 481 m 128,-1,8
 410 485 410 485 405 485 c 0,9,10
 398 485 398 485 402 480 c 0,11,12
 405 477 405 477 407 477 c 0,13,7
 410 477 410 477 410 481 c 128,-1,8
510 668 m 2,14,-1
 510 659 l 2,15,16
 510 644 510 644 505.5 618 c 128,-1,17
 501 592 501 592 501 575 c 0,18,19
 498 538 498 538 497 516 c 2,20,-1
 494 482 l 1,21,-1
 506 474 l 2,22,23
 516 467 516 467 516 459 c 0,24,25
 516 454 516 454 510 449 c 0,26,27
 503 445 503 445 497 432 c 0,28,29
 493 423 493 423 493 399 c 0,30,31
 493 370 493 370 494 346 c 0,32,33
 496 276 496 276 500 259 c 0,34,35
 515 205 515 205 515 129 c 0,36,37
 515 126 515 126 514.5 122 c 128,-1,38
 514 118 514 118 514 117 c 0,39,40
 512 107 512 107 510 105 c 128,-1,41
 508 103 508 103 497 104 c 2,42,-1
 482 104 l 1,43,-1
 482 83 l 2,44,45
 481 62 481 62 475.5 34.5 c 128,-1,46
 470 7 470 7 465 2 c 128,-1,47
 460 -3 460 -3 450 1 c 2,48,-1
 440 4 l 1,49,-1
 439 58 l 2,50,51
 439 64 439 64 439 74 c 0,52,53
 438 111 438 111 433 115 c 0,54,55
 432 116 432 116 431 117 c 0,56,57
 414 127 414 127 414 179 c 0,58,59
 414 196 414 196 416.5 229 c 128,-1,60
 419 262 419 262 419 270 c 0,61,62
 420 302 420 302 423 357 c 2,63,-1
 423 373 l 2,64,65
 423 396 423 396 422 398 c 0,66,67
 420 403 420 403 415.5 403 c 128,-1,68
 411 403 411 403 407 396 c 0,69,70
 404 389 404 389 397 389 c 0,71,72
 391 389 391 389 386 384 c 128,-1,73
 381 379 381 379 324 376 c 0,74,75
 268 374 268 374 268 367 c 0,76,77
 268 362 268 362 255 355 c 0,78,79
 245 350 245 350 241 350 c 128,-1,80
 237 350 237 350 226 355 c 0,81,82
 223 356 223 356 212.5 359.5 c 128,-1,83
 202 363 202 363 194.5 366 c 128,-1,84
 187 369 187 369 187 372 c 0,85,86
 187 373 187 373 183.5 374 c 128,-1,87
 180 375 180 375 174 374 c 128,-1,88
 168 373 168 373 163 372 c 0,89,90
 157 370 157 370 157 345 c 2,91,-1
 157 318 l 1,92,-1
 157 293 l 2,93,94
 157 258 157 258 148 165 c 0,95,96
 146 137 146 137 146 135 c 0,97,98
 146 127 146 127 149 124 c 0,99,100
 154 120 154 120 154.5 113 c 128,-1,101
 155 106 155 106 151 102 c 0,102,103
 142 95 142 95 124 97 c 0,104,105
 116 98 116 98 111 125.5 c 128,-1,106
 106 153 106 153 102 196.5 c 128,-1,107
 98 240 98 240 98 243 c 0,108,109
 95 259 95 259 91 315.5 c 128,-1,110
 87 372 87 372 87 392 c 0,111,112
 87 413 87 413 61 430 c 0,113,114
 52 435 52 435 52 442 c 128,-1,115
 52 449 52 449 48 451 c 0,116,117
 40 456 40 456 53 465 c 0,118,119
 62 470 62 470 75 465 c 0,120,121
 87 458 87 458 89 460 c 0,122,123
 95 464 95 464 100 603 c 0,124,125
 102 661 102 661 104 670 c 0,126,127
 106 676 106 676 117 676 c 0,128,129
 129 676 129 676 137 668 c 0,130,131
 144 659 144 659 144 656 c 0,132,133
 144 652 144 652 149 650 c 128,-1,134
 154 648 154 648 154 593 c 2,135,-1
 154 541 l 2,136,137
 154 433 154 433 156 429 c 0,138,139
 165 416 165 416 202 416 c 0,140,141
 213 416 213 416 219 417 c 0,142,143
 270 424 270 424 280 432 c 0,144,145
 283 435 283 435 292 435 c 0,146,147
 300 435 300 435 301 438 c 0,148,149
 303 441 303 441 330 448 c 0,150,151
 350 453 350 453 354.5 456 c 128,-1,152
 359 459 359 459 360 466 c 0,153,154
 361 486 361 486 397 493 c 2,155,-1
 419 497 l 1,156,-1
 420 525 l 2,157,158
 421 552 421 552 428 552 c 0,159,160
 437 552 437 552 440 593 c 0,161,162
 442 621 442 621 444 646 c 0,163,164
 446 677 446 677 455 691 c 0,165,166
 460 699 460 699 464.5 712 c 128,-1,167
 469 725 469 725 473 732 c 0,168,169
 479 740 479 740 485 740 c 0,170,171
 497 740 497 740 497 722 c 0,172,173
 497 718 497 718 496.5 708 c 128,-1,174
 496 698 496 698 496 693 c 0,175,176
 496 679 496 679 502 678 c 0,177,178
 510 676 510 676 510 668 c 2,14,-1
EndSplineSet
Validated: 1
Substitution2: "Single Substitution lookup 3 subtable" H.ss01
Substitution2: "Single Substitution lookup 2 subtable" H.ss01
EndChar

StartChar: I
Encoding: 73 73 45
Width: 505
GlyphClass: 2
Flags: W
LayerCount: 2
Fore
SplineSet
255 181 m 2,0,1
 255 192 255 192 251 398 c 128,-1,2
 247 604 247 604 247 616 c 2,3,-1
 247 630 l 1,4,-1
 216 630 l 2,5,6
 185 630 185 630 185 626 c 0,7,8
 185 624 185 624 181.5 623 c 128,-1,9
 178 622 178 622 172.5 623 c 128,-1,10
 167 624 167 624 163 627 c 0,11,12
 159 629 159 629 154 629 c 128,-1,13
 149 629 149 629 136 627 c 128,-1,14
 123 625 123 625 119 625 c 2,15,-1
 115 625 l 2,16,17
 107 627 107 627 109 640 c 128,-1,18
 111 653 111 653 121.5 663.5 c 128,-1,19
 132 674 132 674 141 674 c 0,20,21
 147 674 147 674 150 669 c 0,22,23
 154 663 154 663 199 663 c 0,24,25
 232 663 232 663 238.5 664 c 128,-1,26
 245 665 245 665 246 672 c 0,27,28
 248 680 248 680 245 685 c 0,29,30
 243 688 243 688 251 704 c 0,31,32
 259 718 259 718 269 717 c 0,33,34
 276 716 276 716 277 713 c 128,-1,35
 278 710 278 710 278 695 c 128,-1,36
 278 680 278 680 279 677 c 128,-1,37
 280 674 280 674 286 674 c 0,38,39
 293 674 293 674 305 678 c 0,40,41
 338 692 338 692 364 692 c 0,42,43
 369 692 369 692 370.5 690.5 c 128,-1,44
 372 689 372 689 372 682 c 0,45,46
 372 667 372 667 394 667 c 0,47,48
 406 667 406 667 415.5 662 c 128,-1,49
 425 657 425 657 425 650 c 0,50,51
 425 641 425 641 420.5 634 c 128,-1,52
 416 627 416 627 410 627 c 0,53,54
 402 627 402 627 393 632 c 0,55,56
 381 637 381 637 363 637 c 0,57,58
 346 637 346 637 333 636 c 0,59,60
 285 634 285 634 283 630 c 0,61,62
 281 628 281 628 281 589 c 0,63,64
 281 495 281 495 288 318.5 c 128,-1,65
 295 142 295 142 300 135 c 0,66,67
 302 133 302 133 338 133 c 0,68,69
 384 133 384 133 393 136 c 0,70,71
 400 138 400 138 406 150 c 0,72,73
 410 157 410 157 414 158.5 c 128,-1,74
 418 160 418 160 428 158 c 0,75,76
 451 156 451 156 451 150 c 0,77,78
 451 146 451 146 450 143 c 0,79,80
 448 132 448 132 454 128 c 0,81,82
 460 123 460 123 460 116 c 0,83,84
 460 104 460 104 446 95 c 0,85,86
 433 87 433 87 431 90 c 0,87,88
 430 93 430 93 401 91 c 0,89,90
 397 91 397 91 388 90.5 c 128,-1,91
 379 90 379 90 374 90 c 128,-1,92
 369 90 369 90 360 90.5 c 128,-1,93
 351 91 351 91 348 91 c 0,94,95
 341 92 341 92 326 92 c 0,96,97
 287 92 287 92 248 84 c 128,-1,98
 209 76 209 76 209 67 c 0,99,100
 209 44 209 44 175 43 c 0,101,102
 152 41 152 41 152 44 c 128,-1,103
 152 47 152 47 146 47 c 128,-1,104
 140 47 140 47 120 58 c 0,105,106
 102 67 102 67 97 67 c 0,107,108
 95 67 95 67 87 65 c 0,109,110
 78 62 78 62 75 62 c 128,-1,111
 72 62 72 62 72 64 c 0,112,113
 72 65 72 65 74.5 70 c 128,-1,114
 77 75 77 75 77 77 c 0,115,116
 77 81 77 81 73 82 c 0,117,118
 67 84 67 84 67 99 c 128,-1,119
 67 114 67 114 58 123 c 0,120,121
 44 137 44 137 44 148 c 0,122,123
 44 151 44 151 48 159 c 0,124,125
 54 168 54 168 73 168 c 0,126,127
 94 168 94 168 93 164 c 0,128,129
 92 162 92 162 85 160 c 0,130,131
 77 158 77 158 78.5 151 c 128,-1,132
 80 144 80 144 90 139 c 0,133,134
 94 137 94 137 122.5 133 c 128,-1,135
 151 129 151 129 168 129 c 0,136,137
 182 129 182 129 183 132 c 0,138,139
 191 142 191 142 241 144 c 2,140,-1
 256 144 l 1,141,-1
 255 181 l 2,0,1
EndSplineSet
Validated: 1
Substitution2: "Single Substitution lookup 3 subtable" I.ss01
Substitution2: "Single Substitution lookup 2 subtable" I.ss01
EndChar

StartChar: J
Encoding: 74 74 46
Width: 551
GlyphClass: 2
Flags: W
LayerCount: 2
Fore
SplineSet
342 26 m 0,0,1
 342 37 342 37 328 21 c 0,2,3
 316 9 316 9 325 9 c 0,4,5
 330 9 330 9 336 15.5 c 128,-1,6
 342 22 342 22 342 26 c 0,0,1
422 386 m 2,7,-1
 422 402 l 2,8,9
 421 404 421 404 418 399 c 0,10,11
 416 392 416 392 418 386 c 0,12,13
 421 380 421 380 422 386 c 2,7,-1
356 651 m 0,14,15
 356 657 356 657 371 657 c 128,-1,16
 386 657 386 657 388 654 c 0,17,18
 388 652 388 652 403 652 c 0,19,20
 410 652 410 652 438 654 c 0,21,22
 480 656 480 656 484 656 c 0,23,24
 505 656 505 656 505 651 c 0,25,26
 505 647 505 647 496 631 c 0,27,28
 488 619 488 619 481 615.5 c 128,-1,29
 474 612 474 612 430 599 c 0,30,31
 424 598 424 598 424 590 c 128,-1,32
 424 582 424 582 433 573 c 0,33,34
 444 565 444 565 446 540 c 128,-1,35
 448 515 448 515 455 495 c 0,36,37
 469 456 469 456 469 405 c 0,38,39
 469 401 469 401 468.5 392.5 c 128,-1,40
 468 384 468 384 468 379 c 0,41,42
 466 334 466 334 462 330 c 0,43,44
 460 328 460 328 461 319 c 128,-1,45
 462 310 462 310 456 310 c 0,46,47
 451 309 451 309 444 282 c 0,48,49
 429 215 429 215 420 160 c 0,50,51
 416 134 416 134 409 98.5 c 128,-1,52
 402 63 402 63 399 42 c 0,53,54
 396 18 396 18 389 15 c 0,55,56
 384 12 384 12 384 8 c 0,57,58
 384 3 384 3 374.5 -6.5 c 128,-1,59
 365 -16 365 -16 360 -16 c 0,60,61
 352 -16 352 -16 338 -28.5 c 128,-1,62
 324 -41 324 -41 325 -47 c 0,63,64
 325 -52 325 -52 313 -55 c 0,65,66
 288 -60 288 -60 281 -63.5 c 128,-1,67
 274 -67 274 -67 269 -75 c 0,68,69
 261 -87 261 -87 259 -87 c 0,70,71
 254 -87 254 -87 245 -76 c 0,72,73
 234 -64 234 -64 213 -63 c 0,74,75
 197 -62 197 -62 175 -53 c 128,-1,76
 153 -44 153 -44 144 -35 c 0,77,78
 139 -30 139 -30 130 -33 c 0,79,80
 119 -36 119 -36 110 -25 c 128,-1,81
 101 -14 101 -14 88 -5 c 0,82,83
 79 1 79 1 77.5 5.5 c 128,-1,84
 76 10 76 10 75 29 c 0,85,86
 74 50 74 50 72 50 c 2,87,-1
 68 48 l 2,88,89
 62 42 62 42 53 56 c 0,90,91
 44 68 44 68 44 78 c 0,92,93
 44 84 44 84 45 89 c 0,94,95
 47 112 47 112 57.5 131.5 c 128,-1,96
 68 151 68 151 87 151 c 0,97,98
 100 151 100 151 100 147 c 0,99,100
 100 139 100 139 111 145 c 0,101,102
 116 147 116 147 117 151 c 0,103,104
 119 158 119 158 122 158 c 128,-1,105
 125 158 125 158 125 163 c 0,106,107
 125 167 125 167 130.5 171.5 c 128,-1,108
 136 176 136 176 137 180 c 0,109,110
 140 187 140 187 151 186 c 128,-1,111
 162 185 162 185 163 175 c 0,112,113
 165 165 165 165 168 165 c 0,114,115
 172 165 172 165 188 181 c 128,-1,116
 204 197 204 197 212 197 c 0,117,118
 216 197 216 197 223 192 c 0,119,120
 228 190 228 190 228 184 c 0,121,122
 228 176 228 176 209.5 157 c 128,-1,123
 191 138 191 138 191 132 c 0,124,125
 191 122 191 122 159 89 c 0,126,127
 125 55 125 55 125 45 c 0,128,129
 125 26 125 26 153 9 c 0,130,131
 170 -4 170 -4 171 -4 c 0,132,133
 176 -9 176 -9 195 -9 c 0,134,135
 209 -9 209 -9 214 -7 c 128,-1,136
 219 -5 219 -5 223 2 c 0,137,138
 228 10 228 10 231.5 11 c 128,-1,139
 235 12 235 12 247 11 c 2,140,-1
 255 11 l 2,141,142
 269 11 269 11 281 18 c 0,143,144
 297 26 297 26 300 29 c 0,145,146
 300 32 300 32 326 45 c 0,147,148
 351 58 351 58 357.5 72.5 c 128,-1,149
 364 87 364 87 374 151 c 0,150,151
 378 179 378 179 378 230 c 128,-1,152
 378 281 378 281 374 309 c 0,153,154
 371 331 371 331 375 335 c 0,155,156
 380 340 380 340 375 354 c 0,157,158
 371 368 371 368 371 383 c 0,159,160
 371 386 371 386 371.5 392.5 c 128,-1,161
 372 399 372 399 372 401 c 0,162,163
 372 409 372 409 369 420.5 c 128,-1,164
 366 432 366 432 365 447 c 0,165,166
 358 559 358 559 352 578 c 2,167,-1
 347 592 l 1,168,-1
 319 590 l 2,169,170
 312 590 312 590 302.5 589 c 128,-1,171
 293 588 293 588 284 586.5 c 128,-1,172
 275 585 275 585 272 585 c 0,173,174
 266 584 266 584 257 584 c 0,175,176
 238 584 238 584 217 609 c 0,177,178
 201 629 201 629 201 636 c 0,179,180
 201 641 201 641 205 646 c 0,181,182
 211 653 211 653 225 648 c 0,183,184
 233 645 233 645 238 642.5 c 128,-1,185
 243 640 243 640 244.5 638.5 c 128,-1,186
 246 637 246 637 249 636 c 128,-1,187
 252 635 252 635 257 634.5 c 128,-1,188
 262 634 262 634 273 634 c 2,189,-1
 297 634 l 2,190,191
 330 634 330 634 332 639 c 128,-1,192
 334 644 334 644 345 644 c 128,-1,193
 356 644 356 644 356 651 c 0,14,15
EndSplineSet
Validated: 1
Substitution2: "Single Substitution lookup 3 subtable" J.ss01
Substitution2: "Single Substitution lookup 2 subtable" J.ss01
EndChar

StartChar: K
Encoding: 75 75 47
Width: 577
GlyphClass: 2
Flags: W
LayerCount: 2
Fore
SplineSet
486 71 m 0,0,1
 472 94 472 94 464 80 c 0,2,3
 463 78 463 78 463 74 c 0,4,5
 463 67 463 67 468.5 60.5 c 128,-1,6
 474 54 474 54 481 54 c 0,7,8
 490 54 490 54 491 57 c 128,-1,9
 492 60 492 60 486 71 c 0,0,1
104 356 m 2,10,-1
 103 366 l 2,11,12
 102 367 102 367 100 363 c 0,13,14
 96 356 96 356 101 355 c 0,15,16
 102 354 102 354 104 356 c 2,10,-1
146 374 m 256,17,18
 146 371 146 371 156 363 c 128,-1,19
 166 355 166 355 169 355 c 0,20,21
 171 355 171 355 158 367 c 0,22,23
 146 377 146 377 146 374 c 256,17,18
250 439 m 0,24,25
 246 439 246 439 234 433.5 c 128,-1,26
 222 428 222 428 219 428 c 0,27,28
 213 428 213 428 199 419 c 0,29,30
 193 415 193 415 190.5 413 c 128,-1,31
 188 411 188 411 187.5 409.5 c 128,-1,32
 187 408 187 408 188.5 407 c 128,-1,33
 190 406 190 406 193 404 c 0,34,35
 201 399 201 399 212 406 c 0,36,37
 219 411 219 411 222.5 410 c 128,-1,38
 226 409 226 409 233 402 c 0,39,40
 243 392 243 392 247 392 c 128,-1,41
 251 392 251 392 268 371.5 c 128,-1,42
 285 351 285 351 306.5 326 c 128,-1,43
 328 301 328 301 339 294 c 0,44,45
 352 285 352 285 354.5 281.5 c 128,-1,46
 357 278 357 278 356 272 c 0,47,48
 355 262 355 262 362 255 c 128,-1,49
 369 248 369 248 369 250 c 2,50,-1
 372 248 l 2,51,52
 374 247 374 247 378 243 c 128,-1,53
 382 239 382 239 387 234 c 0,54,55
 405 216 405 216 412 216 c 128,-1,56
 419 216 419 216 444 191 c 0,57,58
 482 154 482 154 482 149 c 0,59,60
 482 147 482 147 480 145 c 128,-1,61
 478 143 478 143 478 141 c 0,62,63
 478 135 478 135 496 117 c 0,64,65
 515 97 515 97 519.5 89 c 128,-1,66
 524 81 524 81 529 61 c 0,67,68
 532 44 532 44 531.5 41.5 c 128,-1,69
 531 39 531 39 524 37 c 0,70,71
 513 35 513 35 508 39 c 0,72,73
 500 44 500 44 494 40 c 0,74,75
 487 36 487 36 477 36 c 0,76,77
 459 36 459 36 447 48 c 128,-1,78
 435 60 435 60 435 66 c 0,79,80
 435 76 435 76 424 92 c 128,-1,81
 413 108 413 108 399 118 c 0,82,83
 387 127 387 127 344.5 168.5 c 128,-1,84
 302 210 302 210 296 218 c 0,85,86
 293 222 293 222 271 254 c 0,87,88
 258 272 258 272 251.5 278.5 c 128,-1,89
 245 285 245 285 231 291 c 2,90,-1
 159 327 l 2,91,92
 135 339 135 339 128 348 c 0,93,94
 116 365 116 365 111 344 c 0,95,96
 109 330 109 330 109 303 c 0,97,98
 109 243 109 243 114 218 c 0,99,100
 118 199 118 199 120 199 c 0,101,102
 121 199 121 199 123 204 c 0,103,104
 127 211 127 211 129 211 c 0,105,106
 132 211 132 211 132 204 c 0,107,108
 132 198 132 198 129 186 c 0,109,110
 123 158 123 158 123 114 c 0,111,112
 123 80 123 80 121.5 72 c 128,-1,113
 120 64 120 64 115 62 c 0,114,115
 106 59 106 59 100 65 c 0,116,117
 93 70 93 70 82 70 c 0,118,119
 69 70 69 70 66 83 c 0,120,121
 62 99 62 99 59 231 c 0,122,123
 57 373 57 373 54 373 c 128,-1,124
 51 373 51 373 45 385 c 0,125,126
 35 404 35 404 52 404 c 0,127,128
 56 404 56 404 56 469 c 2,129,-1
 56 522 l 2,130,131
 56 695 56 695 64 711 c 0,132,133
 69 721 69 721 67 725 c 0,134,135
 66 726 66 726 66 729 c 0,136,137
 66 737 66 737 79 737 c 0,138,139
 98 737 98 737 98 724 c 0,140,141
 98 719 98 719 104 689 c 0,142,143
 111 657 111 657 111 548 c 0,144,145
 111 431 111 431 118 431 c 0,146,147
 119 431 119 431 125 435 c 0,148,149
 127 437 127 437 135 437 c 2,150,-1
 145 437 l 2,151,152
 156 437 156 437 158 440 c 0,153,154
 161 444 161 444 184 458 c 128,-1,155
 207 472 207 472 210 472 c 128,-1,156
 213 472 213 472 242.5 494 c 128,-1,157
 272 516 272 516 286 528 c 0,158,159
 306 546 306 546 315 551 c 0,160,161
 336 564 336 564 371.5 600 c 128,-1,162
 407 636 407 636 411 647 c 0,163,164
 413 655 413 655 422 659 c 0,165,166
 433 663 433 663 447 683 c 0,167,168
 466 707 466 707 479 707 c 0,169,170
 483 707 483 707 485 706 c 0,171,172
 492 703 492 703 489 692 c 0,173,174
 487 684 487 684 488 682.5 c 128,-1,175
 489 681 489 681 495 681 c 0,176,177
 508 681 508 681 511 672 c 1,178,-1
 509 668 l 2,179,180
 505 666 505 666 505 659 c 0,181,182
 505 653 505 653 489 626 c 128,-1,183
 473 599 473 599 470 588 c 0,184,185
 466 573 466 573 461 571 c 0,186,187
 418 550 418 550 417 549 c 0,188,189
 413 544 413 544 370 511 c 128,-1,190
 327 478 327 478 320 474 c 0,191,192
 310 469 310 469 302 461 c 0,193,194
 297 456 297 456 277 447.5 c 128,-1,195
 257 439 257 439 250 439 c 0,24,25
EndSplineSet
Validated: 1
Substitution2: "Single Substitution lookup 3 subtable" K.ss01
Substitution2: "Single Substitution lookup 2 subtable" K.ss01
EndChar

StartChar: L
Encoding: 76 76 48
Width: 543
GlyphClass: 2
Flags: W
LayerCount: 2
Fore
SplineSet
172 55 m 0,0,1
 170 54 170 54 167 54 c 128,-1,2
 164 54 164 54 164 58 c 128,-1,3
 164 62 164 62 168 69 c 128,-1,4
 172 76 172 76 174 76 c 0,5,6
 177 76 177 76 177.5 71.5 c 128,-1,7
 178 67 178 67 176.5 61.5 c 128,-1,8
 175 56 175 56 172 55 c 0,0,1
182 180 m 2,9,10
 187 178 187 178 192 180 c 1,11,12
 190 181 190 181 186 182 c 2,13,-1
 180 181 l 1,14,-1
 182 180 l 2,9,10
85 730 m 0,15,16
 89 740 89 740 100 740 c 128,-1,17
 111 740 111 740 111 735 c 128,-1,18
 111 730 111 730 120 726 c 128,-1,19
 129 722 129 722 127 708 c 0,20,21
 127 707 127 707 126.5 702 c 128,-1,22
 126 697 126 697 126 694 c 0,23,24
 126 674 126 674 129 655 c 0,25,26
 133 620 133 620 138 553 c 128,-1,27
 143 486 143 486 148 445 c 0,28,29
 151 423 151 423 161 295 c 2,30,-1
 168 204 l 1,31,-1
 192 206 l 2,32,33
 211 207 211 207 236 212 c 0,34,35
 295 222 295 222 331 222 c 0,36,37
 366 222 366 222 419 210 c 0,38,39
 443 206 443 206 451 206 c 2,40,-1
 455 206 l 2,41,42
 456 206 456 206 457.5 206.5 c 128,-1,43
 459 207 459 207 460 207 c 0,44,45
 468 207 468 207 474.5 201 c 128,-1,46
 481 195 481 195 481 186 c 0,47,48
 481 175 481 175 487 175 c 0,49,50
 492 175 492 175 495 168 c 128,-1,51
 498 161 498 161 497 152 c 0,52,53
 494 142 494 142 482 142 c 0,54,55
 471 142 471 142 458 137 c 128,-1,56
 445 132 445 132 434 131 c 0,57,58
 404 126 404 126 404 108 c 0,59,60
 404 104 404 104 401.5 99.5 c 128,-1,61
 399 95 399 95 395 90 c 128,-1,62
 391 85 391 85 390 84 c 0,63,64
 387 78 387 78 381 85 c 0,65,66
 376 91 376 91 379 105 c 2,67,-1
 382 118 l 1,68,-1
 363 116 l 2,69,70
 360 116 360 116 331 113.5 c 128,-1,71
 302 111 302 111 283 109 c 2,72,-1
 223 105 l 1,73,-1
 207 90 l 2,74,75
 195 78 195 78 190 78 c 0,76,77
 186 78 186 78 186 84 c 128,-1,78
 186 90 186 90 187 93 c 0,79,80
 189 102 189 102 187.5 104 c 128,-1,81
 186 106 186 106 178 106 c 0,82,83
 174 106 174 106 156 103 c 0,84,85
 148 101 148 101 147 100 c 128,-1,86
 146 99 146 99 148 94 c 0,87,88
 151 88 151 88 151 77 c 0,89,90
 151 67 151 67 156 62 c 0,91,92
 160 58 160 58 157.5 55.5 c 128,-1,93
 155 53 155 53 150 55 c 0,94,95
 148 56 148 56 143 71.5 c 128,-1,96
 138 87 138 87 135 87 c 128,-1,97
 132 87 132 87 131 84 c 0,98,99
 128 79 128 79 121 81 c 128,-1,100
 114 83 114 83 110 91 c 0,101,102
 106 97 106 97 100.5 122.5 c 128,-1,103
 95 148 95 148 91 154 c 0,104,105
 86 161 86 161 84 186 c 0,106,107
 83 202 83 202 77 225 c 0,108,109
 72 242 72 242 72 423 c 0,110,111
 72 494 72 494 71.5 534 c 128,-1,112
 71 574 71 574 70 598.5 c 128,-1,113
 69 623 69 623 67 630.5 c 128,-1,114
 65 638 65 638 61 638 c 2,115,-1
 60 638 l 2,116,117
 56 637 56 637 54 640 c 128,-1,118
 52 643 52 643 50 652 c 0,119,120
 45 665 45 665 45 671 c 0,121,122
 45 678 45 678 57 689 c 128,-1,123
 69 700 69 700 76 700 c 0,124,125
 82 700 82 700 83 701.5 c 128,-1,126
 84 703 84 703 83 710 c 0,127,128
 81 719 81 719 85 730 c 0,15,16
EndSplineSet
Validated: 1
Substitution2: "Single Substitution lookup 3 subtable" L.ss01
Substitution2: "Single Substitution lookup 2 subtable" L.ss01
EndChar

StartChar: M
Encoding: 77 77 49
Width: 616
GlyphClass: 2
Flags: W
LayerCount: 2
Fore
SplineSet
449 359 m 0,0,1
 449 370 449 370 446 400 c 0,2,3
 444 416 444 416 442 416 c 0,4,5
 441 417 441 417 439 415 c 0,6,7
 435 411 435 411 435 390 c 0,8,9
 435 341 435 341 445 338 c 0,10,11
 447 337 447 337 448 342 c 256,12,13
 449 347 449 347 449 359 c 0,0,1
233 332 m 0,14,15
 233 326 233 326 237 319 c 128,-1,16
 241 312 241 312 241 304 c 0,17,18
 240 292 240 292 249 287 c 0,19,20
 258 283 258 283 258 278 c 0,21,22
 258 275 258 275 268.5 268.5 c 128,-1,23
 279 262 279 262 281 264 c 0,24,25
 285 269 285 269 289 288 c 128,-1,26
 293 307 293 307 295.5 324 c 128,-1,27
 298 341 298 341 300 341 c 0,28,29
 303 341 303 341 303 349 c 0,30,31
 303 355 303 355 309 381 c 0,32,33
 323 444 323 444 327 456 c 0,34,35
 339 482 339 482 348 520 c 0,36,37
 349 528 349 528 355.5 535.5 c 128,-1,38
 362 543 362 543 363 551 c 0,39,40
 365 564 365 564 368 566 c 0,41,42
 370 567 370 567 378.5 583.5 c 128,-1,43
 387 600 387 600 390 601 c 0,44,45
 403 610 403 610 403 626 c 0,46,47
 403 634 403 634 408 636 c 0,48,49
 415 638 415 638 413 642 c 128,-1,50
 411 646 411 646 422 659 c 0,51,52
 431 672 431 672 431 680 c 0,53,54
 431 684 431 684 434 688 c 128,-1,55
 437 692 437 692 436 697 c 0,56,57
 435 703 435 703 439.5 707 c 128,-1,58
 444 711 444 711 453 713 c 0,59,60
 475 716 475 716 479 713 c 0,61,62
 483 711 483 711 485 680 c 0,63,64
 486 661 486 661 499 605 c 0,65,66
 501 598 501 598 509 582 c 128,-1,67
 517 566 517 566 517 552 c 128,-1,68
 517 538 517 538 520.5 528.5 c 128,-1,69
 524 519 524 519 525 510 c 0,70,71
 529 471 529 471 537 388 c 0,72,73
 539 356 539 356 544.5 327 c 128,-1,74
 550 298 550 298 553 265 c 0,75,76
 559 213 559 213 564 180 c 0,77,78
 572 127 572 127 572 115 c 0,79,80
 572 97 572 97 557 87 c 0,81,82
 552 82 552 82 552 86 c 0,83,84
 552 89 552 89 546 87 c 0,85,86
 542 86 542 86 537 91 c 128,-1,87
 532 96 532 96 527 107 c 0,88,89
 522 120 522 120 508 105 c 0,90,91
 501 96 501 96 488 96 c 0,92,93
 482 96 482 96 479 100 c 0,94,95
 477 104 477 104 469 104 c 0,96,97
 459 104 459 104 456 109 c 0,98,99
 448 119 448 119 448 141 c 0,100,101
 448 146 448 146 450 148 c 0,102,103
 454 150 454 150 449 155 c 0,104,105
 446 158 446 158 444 205 c 0,106,107
 443 251 443 251 436 261 c 0,108,109
 428 273 428 273 428 280 c 0,110,111
 428 288 428 288 421 299 c 0,112,113
 412 310 412 310 411 368 c 0,114,115
 410 401 410 401 410 437 c 0,116,117
 410 447 410 447 407 447 c 0,118,119
 403 447 403 447 403 440 c 0,120,121
 403 434 403 434 401 432 c 0,122,123
 393 424 393 424 386 393 c 0,124,125
 386 390 386 390 384 386 c 0,126,127
 382 383 382 383 379.5 372.5 c 128,-1,128
 377 362 377 362 373.5 354 c 128,-1,129
 370 346 370 346 366 344 c 0,130,131
 350 336 350 336 350 327 c 0,132,133
 350 323 350 323 341 310 c 128,-1,134
 332 297 332 297 332 285 c 128,-1,135
 332 273 332 273 329 273 c 128,-1,136
 326 273 326 273 324 260 c 0,137,138
 317 213 317 213 314 213 c 0,139,140
 312 213 312 213 312 207 c 0,141,142
 312 205 312 205 308 171 c 0,143,144
 303 133 303 133 302 97 c 0,145,146
 302 86 302 86 302 74 c 128,-1,147
 302 62 302 62 301.5 54.5 c 128,-1,148
 301 47 301 47 301 46 c 0,149,150
 301 40 301 40 286 40 c 0,151,152
 276 40 276 40 274 41.5 c 128,-1,153
 272 43 272 43 270 50 c 0,154,155
 268 61 268 61 263 63 c 128,-1,156
 258 65 258 65 258 75 c 0,157,158
 258 82 258 82 255.5 85 c 128,-1,159
 253 88 253 88 249.5 85 c 128,-1,160
 246 82 246 82 245 75 c 0,161,162
 243 65 243 65 233 65 c 0,163,164
 224 65 224 65 213 74 c 0,165,166
 203 82 203 82 201 82 c 0,167,168
 198 82 198 82 196 99 c 128,-1,169
 194 116 194 116 187 127 c 0,170,171
 180 137 180 137 180 144 c 0,172,173
 180 147 180 147 174 161 c 0,174,175
 162 185 162 185 162 195 c 0,176,177
 162 202 162 202 155 230.5 c 128,-1,178
 148 259 148 259 148 266 c 128,-1,179
 148 273 148 273 147 275 c 128,-1,180
 146 277 146 277 142 276 c 0,181,182
 130 274 130 274 130 238 c 0,183,184
 130 224 130 224 127 221 c 128,-1,185
 124 218 124 218 119 181.5 c 128,-1,186
 114 145 114 145 113 143 c 0,187,188
 99 95 99 95 99 59 c 0,189,190
 99 47 99 47 95 47 c 0,191,192
 92 47 92 47 92 53 c 128,-1,193
 92 59 92 59 86 57 c 0,194,195
 79 56 79 56 73 39 c 0,196,197
 70 33 70 33 57 34 c 2,198,-1
 44 35 l 1,199,-1
 45 52 l 2,200,201
 48 113 48 113 50 117 c 0,202,203
 53 120 53 120 55 153 c 0,204,205
 57 187 57 187 61 201 c 0,206,207
 66 219 66 219 72 357 c 0,208,209
 74 379 74 379 79 477 c 0,210,211
 86 624 86 624 91 632 c 0,212,213
 94 637 94 637 97 662 c 0,214,215
 101 694 101 694 113 694 c 0,216,217
 118 694 118 694 121 693 c 0,218,219
 130 692 130 692 130 682 c 128,-1,220
 130 672 130 672 129 663 c 2,221,-1
 128 634 l 1,222,-1
 141 634 l 2,223,224
 154 634 154 634 160 640 c 0,225,226
 165 645 165 645 173 644.5 c 128,-1,227
 181 644 181 644 182 638 c 0,228,229
 184 631 184 631 194 628 c 0,230,231
 201 625 201 625 202.5 622.5 c 128,-1,232
 204 620 204 620 202 612 c 0,233,234
 200 605 200 605 200 554 c 0,235,236
 200 501 200 501 202 489 c 0,237,238
 202 485 202 485 203 480.5 c 128,-1,239
 204 476 204 476 204.5 473 c 128,-1,240
 205 470 205 470 205 469 c 0,241,242
 205 465 205 465 213 462 c 0,243,244
 221 458 221 458 219 442 c 0,245,246
 218 437 218 437 218 431 c 0,247,248
 218 427 218 427 220 420.5 c 128,-1,249
 222 414 222 414 222 402 c 128,-1,250
 222 390 222 390 226 381 c 128,-1,251
 230 372 230 372 230 365 c 0,252,253
 230 364 230 364 229.5 362 c 128,-1,254
 229 360 229 360 229 358 c 0,255,256
 227 343 227 343 230 342 c 0,257,258
 233 340 233 340 233 332 c 0,14,15
EndSplineSet
Validated: 1
Substitution2: "Single Substitution lookup 3 subtable" M.ss01
Substitution2: "Single Substitution lookup 2 subtable" M.ss01
EndChar

StartChar: N
Encoding: 78 78 50
Width: 471
GlyphClass: 2
Flags: W
LayerCount: 2
Fore
SplineSet
180 543 m 0,0,1
 180 545 180 545 172.5 563 c 128,-1,2
 165 581 165 581 165 582 c 0,3,4
 165 585 165 585 153 599.5 c 128,-1,5
 141 614 141 614 138 614 c 0,6,7
 134 614 134 614 134 558 c 0,8,9
 134 503 134 503 131 497 c 0,10,11
 125 485 125 485 125 270 c 0,12,13
 125 170 125 170 128 128 c 0,14,15
 132 44 132 44 144 44 c 0,16,17
 147 44 147 44 145 62 c 0,18,19
 142 85 142 85 148 83 c 0,20,21
 150 83 150 83 152 80 c 0,22,23
 153 79 153 79 155.5 70.5 c 128,-1,24
 158 62 158 62 161 48 c 128,-1,25
 164 34 164 34 164 23 c 0,26,27
 164 9 164 9 144 9 c 0,28,29
 136 9 136 9 134 8 c 128,-1,30
 132 7 132 7 131 0 c 0,31,32
 130 -10 130 -10 122 -11 c 128,-1,33
 114 -12 114 -12 111 -6 c 0,34,35
 102 12 102 12 102 49 c 0,36,37
 102 68 102 68 93 68 c 0,38,39
 90 68 90 68 87.5 51 c 128,-1,40
 85 34 85 34 81 14 c 128,-1,41
 77 -6 77 -6 72 -11 c 0,42,43
 68 -15 68 -15 60 -12.5 c 128,-1,44
 52 -10 52 -10 49 -5 c 0,45,46
 45 3 45 3 45 33 c 0,47,48
 45 36 45 36 50 131 c 0,49,50
 52 194 52 194 58 202 c 0,51,52
 60 207 60 207 62 222 c 0,53,54
 66 254 66 254 68 266 c 0,55,56
 84 356 84 356 88 439 c 0,57,58
 90 487 90 487 96 553.5 c 128,-1,59
 102 620 102 620 103 657 c 0,60,61
 104 698 104 698 109 707 c 0,62,63
 114 714 114 714 124 714 c 0,64,65
 133 714 133 714 137 708.5 c 128,-1,66
 141 703 141 703 155 672 c 0,67,68
 156 668 156 668 160.5 659.5 c 128,-1,69
 165 651 165 651 165 646 c 0,70,71
 165 640 165 640 175.5 621 c 128,-1,72
 186 602 186 602 194 592 c 0,73,74
 205 581 205 581 205 576 c 0,75,76
 205 574 205 574 214 557 c 128,-1,77
 223 540 223 540 223 537 c 0,78,79
 223 533 223 533 228 528 c 0,80,81
 231 526 231 526 234.5 512.5 c 128,-1,82
 238 499 238 499 240 497 c 0,83,84
 251 483 251 483 251 474 c 0,85,86
 251 470 251 470 259 454 c 0,87,88
 261 451 261 451 274 416 c 0,89,90
 284 391 284 391 287 389 c 0,91,92
 291 387 291 387 291 379 c 0,93,94
 291 370 291 370 295 364 c 0,95,96
 300 356 300 356 300 353 c 0,97,98
 300 349 300 349 305 344 c 0,99,100
 309 341 309 341 315 328.5 c 128,-1,101
 321 316 321 316 321 311 c 0,102,103
 321 307 321 307 327 299 c 0,104,105
 329 296 329 296 336.5 281 c 128,-1,106
 344 266 344 266 350.5 254.5 c 128,-1,107
 357 243 357 243 361 243 c 0,108,109
 364 243 364 243 364 253 c 0,110,111
 364 257 364 257 369 282 c 0,112,113
 374 306 374 306 377 347 c 0,114,115
 381 413 381 413 381 551 c 0,116,117
 381 636 381 636 379 647 c 2,118,-1
 376 666 l 1,119,-1
 390 672 l 2,120,121
 404 679 404 679 404 682 c 0,122,123
 404 690 404 690 418 681 c 0,124,125
 421 680 421 680 423 678 c 0,126,127
 428 672 428 672 428 657 c 0,128,129
 428 644 428 644 424 632 c 0,130,131
 419 618 419 618 418 553 c 0,132,133
 415 412 415 412 412 408 c 0,134,135
 411 407 411 407 411 402 c 0,136,137
 411 393 411 393 413.5 382.5 c 128,-1,138
 416 372 416 372 418 372 c 0,139,140
 422 372 422 372 424.5 366 c 128,-1,141
 427 360 427 360 426 353.5 c 128,-1,142
 425 347 425 347 423 347 c 0,143,144
 419 347 419 347 419 350 c 128,-1,145
 419 353 419 353 417 353 c 0,146,147
 410 353 410 353 410 169 c 2,148,-1
 410 139 l 2,149,150
 410 59 410 59 408 45 c 2,151,-1
 408 36 l 2,152,153
 408 29 408 29 409 9 c 128,-1,154
 410 -11 410 -11 410 -20 c 0,155,156
 410 -40 410 -40 405 -41 c 0,157,158
 400 -43 400 -43 393.5 -40.5 c 128,-1,159
 387 -38 387 -38 385 -33 c 0,160,161
 380 -14 380 -14 375 73 c 0,162,163
 374 92 374 92 370.5 109.5 c 128,-1,164
 367 127 367 127 366 136 c 0,165,166
 364 152 364 152 363 153 c 0,167,168
 361 155 361 155 361 164 c 128,-1,169
 361 173 361 173 356 176 c 128,-1,170
 351 179 351 179 345 197 c 128,-1,171
 339 215 339 215 337 218 c 0,172,173
 333 223 333 223 322 245 c 128,-1,174
 311 267 311 267 307 272 c 0,175,176
 300 281 300 281 300 284 c 0,177,178
 300 286 300 286 291 305 c 128,-1,179
 282 324 282 324 282 326 c 0,180,181
 282 331 282 331 278 335 c 0,182,183
 272 343 272 343 270 352 c 0,184,185
 254 399 254 399 237 412 c 0,186,187
 235 413 235 413 235.5 418.5 c 128,-1,188
 236 424 236 424 234 426 c 128,-1,189
 232 428 232 428 224.5 443.5 c 128,-1,190
 217 459 217 459 215 461 c 0,191,192
 211 465 211 465 211 467 c 0,193,194
 211 468 211 468 196 505 c 0,195,196
 196 506 196 506 188 523 c 128,-1,197
 180 540 180 540 180 543 c 0,0,1
EndSplineSet
Validated: 1
Substitution2: "Single Substitution lookup 3 subtable" N.ss01
Substitution2: "Single Substitution lookup 2 subtable" N.ss01
EndChar

StartChar: O
Encoding: 79 79 51
Width: 556
GlyphClass: 2
Flags: W
LayerCount: 2
Fore
SplineSet
127 54 m 0,0,1
 132 54 132 54 126 60 c 0,2,3
 125 61 125 61 124 61 c 128,-1,4
 123 61 123 61 123 58 c 0,5,6
 123 54 123 54 127 54 c 0,0,1
221 102 m 0,7,8
 208 116 208 116 197 103 c 0,9,10
 191 96 191 96 190 93 c 128,-1,11
 189 90 189 90 192.5 89 c 128,-1,12
 196 88 196 88 206 89 c 0,13,14
 227 90 227 90 227 94 c 0,15,16
 227 96 227 96 221 102 c 0,7,8
172 132 m 0,17,18
 172 137 172 137 164 142 c 2,19,-1
 155 146 l 2,20,21
 154 147 154 147 150.5 143.5 c 128,-1,22
 147 140 147 140 143.5 136 c 128,-1,23
 140 132 140 132 141 131 c 0,24,25
 144 128 144 128 148 126 c 0,26,27
 154 122 154 122 163 124 c 128,-1,28
 172 126 172 126 172 132 c 0,17,18
278 146 m 0,29,30
 278 151 278 151 262 150 c 0,31,32
 251 150 251 150 263 145 c 0,33,34
 278 139 278 139 278 146 c 0,29,30
105 191 m 0,35,36
 105 196 105 196 100 196 c 128,-1,37
 95 196 95 196 98 183 c 0,38,39
 101 172 101 172 108.5 163 c 128,-1,40
 116 154 116 154 122 154 c 2,41,-1
 124 154 l 2,42,43
 129 156 129 156 129 162 c 128,-1,44
 129 168 129 168 124 170 c 0,45,46
 118 172 118 172 111.5 179.5 c 128,-1,47
 105 187 105 187 105 191 c 0,35,36
148 223 m 128,-1,49
 148 226 148 226 136 232 c 128,-1,50
 124 238 124 238 121 238 c 0,51,52
 119 238 119 238 119 236 c 0,53,54
 119 231 119 231 130.5 219 c 128,-1,55
 142 207 142 207 154 199 c 128,-1,56
 166 191 166 191 177 180 c 0,57,58
 182 175 182 175 183 175 c 128,-1,59
 184 175 184 175 189 180 c 0,60,61
 192 186 192 186 191.5 187.5 c 128,-1,62
 191 189 191 189 182 197 c 0,63,64
 154 221 154 221 150 221 c 2,65,-1
 149 221 l 2,66,48
 148 220 148 220 148 223 c 128,-1,49
98 312 m 0,67,68
 98 316 98 316 92 321 c 0,69,70
 88 320 88 320 87 316 c 0,71,72
 87 309 87 309 93 309 c 0,73,74
 98 309 98 309 98 312 c 0,67,68
388 318 m 0,75,76
 388 323 388 323 385 325 c 0,77,78
 383 326 383 326 382 322 c 0,79,80
 381 321 381 321 381 318 c 0,81,82
 381 311 381 311 384 311 c 0,83,84
 387 314 387 314 388 318 c 0,75,76
364 377 m 256,85,86
 365 376 365 376 367 376 c 0,87,88
 369 378 369 378 367 380 c 0,89,90
 366 380 366 380 364.5 379 c 128,-1,91
 363 378 363 378 364 377 c 256,85,86
463 378 m 0,92,93
 463 381 463 381 459 382 c 128,-1,94
 455 383 455 383 455 378 c 0,95,96
 455 374 455 374 457 373 c 128,-1,97
 459 372 459 372 461 374 c 128,-1,98
 463 376 463 376 463 378 c 0,92,93
383 396 m 0,99,100
 386 398 386 398 386 402 c 0,101,102
 386 416 386 416 380 416 c 0,103,104
 378 416 378 416 378 407 c 0,105,106
 378 400 378 400 379 397.5 c 128,-1,107
 380 395 380 395 383 396 c 0,99,100
489 432 m 0,108,109
 486 449 486 449 482 449 c 0,110,111
 480 449 480 449 479 445 c 0,112,113
 477 441 477 441 480.5 436.5 c 128,-1,114
 484 432 484 432 484 427 c 0,115,116
 484 418 484 418 487 418 c 0,117,118
 491 418 491 418 489 432 c 0,108,109
484 475 m 0,119,120
 484 479 484 479 480 479 c 0,121,122
 474 479 474 479 479 473 c 0,123,124
 481 472 481 472 482 472 c 0,125,126
 484 472 484 472 484 475 c 0,119,120
370 473 m 0,127,128
 366 485 366 485 359 482 c 0,129,130
 356 479 356 479 356 475 c 0,131,132
 356 468 356 468 360 468 c 0,133,134
 363 468 363 468 363 461 c 128,-1,135
 363 454 363 454 369 454 c 0,136,137
 377 454 377 454 370 473 c 0,127,128
153 522 m 2,138,-1
 158 534 l 2,139,140
 158 536 158 536 157 536 c 0,141,142
 155 536 155 536 137 515 c 0,143,144
 102 471 102 471 102 451 c 0,145,146
 102 448 102 448 103 448 c 0,147,148
 106 448 106 448 122.5 476.5 c 128,-1,149
 139 505 139 505 143 507 c 0,150,151
 145 510 145 510 153 522 c 2,138,-1
166 242 m 0,152,153
 168 242 168 242 180.5 233 c 128,-1,154
 193 224 193 224 196 224 c 0,155,156
 201 224 201 224 200 217 c 128,-1,157
 199 210 199 210 201 210 c 0,158,159
 204 210 204 210 209 200 c 0,160,161
 215 189 215 189 234 187 c 128,-1,162
 253 185 253 185 259 179 c 0,163,164
 261 177 261 177 269 177.5 c 128,-1,165
 277 178 277 178 278 175 c 0,166,167
 280 171 280 171 297 169 c 0,168,169
 309 167 309 167 311.5 168 c 128,-1,170
 314 169 314 169 313 175 c 0,171,172
 313 184 313 184 320 195 c 0,173,174
 328 207 328 207 328 211 c 0,175,176
 328 216 328 216 334 218 c 0,177,178
 339 219 339 219 337 227 c 0,179,180
 335 234 335 234 340 242 c 0,181,182
 346 250 346 250 346 246 c 0,183,184
 347 243 347 243 348 243 c 0,185,186
 350 245 350 245 346 250 c 0,187,188
 341 255 341 255 345 269 c 0,189,190
 353 298 353 298 353 363 c 0,191,192
 353 386 353 386 350.5 405 c 128,-1,193
 348 424 348 424 345.5 433.5 c 128,-1,194
 343 443 343 443 337 463 c 128,-1,195
 331 483 331 483 328 492 c 0,196,197
 322 513 322 513 314.5 520.5 c 128,-1,198
 307 528 307 528 290 531 c 0,199,200
 277 533 277 533 273 537 c 0,201,202
 270 541 270 541 261.5 538.5 c 128,-1,203
 253 536 253 536 250 531 c 0,204,205
 248 527 248 527 230 527 c 0,206,207
 214 527 214 527 204 517 c 0,208,209
 194 505 194 505 194 503 c 0,210,211
 194 500 194 500 190 500 c 128,-1,212
 186 500 186 500 184 492 c 0,213,214
 183 487 183 487 169 473 c 128,-1,215
 155 459 155 459 155 454 c 128,-1,216
 155 449 155 449 151.5 445 c 128,-1,217
 148 441 148 441 148 435 c 0,218,219
 148 426 148 426 144.5 421.5 c 128,-1,220
 141 417 141 417 136 421 c 0,221,222
 132 425 132 425 127.5 422 c 128,-1,223
 123 419 123 419 123 413 c 0,224,225
 123 409 123 409 119 407 c 0,226,227
 115 406 115 406 115 367 c 0,228,229
 115 324 115 324 109 307 c 0,230,231
 101 283 101 283 101 277 c 0,232,233
 101 273 101 273 104 273 c 0,234,235
 106 273 106 273 114 267 c 0,236,237
 119 262 119 262 140 252 c 128,-1,238
 161 242 161 242 166 242 c 0,152,153
442 565 m 1,239,240
 443 564 443 564 445 564 c 0,241,242
 448 565 448 565 447 566 c 2,243,-1
 445 567 l 2,244,245
 443 566 443 566 442 565 c 1,239,240
259 567 m 0,246,247
 251 580 251 580 245 555 c 2,248,-1
 243 545 l 1,249,-1
 252 554 l 2,250,251
 261 563 261 563 259 567 c 0,246,247
334 563 m 0,252,253
 326 571 326 571 324 577 c 0,254,255
 323 582 323 582 309 581 c 0,256,257
 295 579 295 579 295 574 c 0,258,259
 295 570 295 570 306 564 c 0,260,261
 321 554 321 554 327 548 c 0,262,263
 336 539 336 539 339 539 c 0,264,265
 348 539 348 539 340 555 c 0,266,267
 337 560 337 560 334 563 c 0,252,253
215 618 m 0,268,269
 215 620 215 620 211.5 620.5 c 128,-1,270
 208 621 208 621 202.5 619.5 c 128,-1,271
 197 618 197 618 191 615 c 0,272,273
 178 610 178 610 179 605 c 0,274,275
 180 602 180 602 186 602 c 128,-1,276
 192 602 192 602 203.5 608.5 c 128,-1,277
 215 615 215 615 215 618 c 0,268,269
70 121 m 0,278,279
 70 127 70 127 64.5 140.5 c 128,-1,280
 59 154 59 154 59 160 c 0,281,282
 59 168 59 168 50 179 c 0,283,284
 40 189 40 189 40 203 c 2,285,-1
 40 211 l 1,286,-1
 40 243 l 1,287,-1
 40 269 l 2,288,289
 40 392 40 392 50 450 c 0,290,291
 63 509 63 509 78 539 c 0,292,293
 90 562 90 562 111.5 585.5 c 128,-1,294
 133 609 133 609 154 621 c 0,295,296
 195 644 195 644 224 650 c 0,297,298
 231 652 231 652 264 665 c 0,299,300
 273 668 273 668 275 666 c 128,-1,301
 277 664 277 664 289 659 c 128,-1,302
 301 654 301 654 316 654 c 0,303,304
 319 654 319 654 326 654.5 c 128,-1,305
 333 655 333 655 338 655 c 0,306,307
 374 657 374 657 374 659 c 0,308,309
 374 663 374 663 384 663 c 0,310,311
 391 663 391 663 392.5 661 c 128,-1,312
 394 659 394 659 396 650 c 0,313,314
 397 640 397 640 417 620 c 0,315,316
 435 602 435 602 440 602 c 128,-1,317
 445 602 445 602 447 596 c 0,318,319
 448 592 448 592 461 575 c 128,-1,320
 474 558 474 558 480 544 c 0,321,322
 488 528 488 528 491 528 c 128,-1,323
 494 528 494 528 494 518 c 0,324,325
 494 511 494 511 497 505 c 0,326,327
 500 502 500 502 507 484 c 0,328,329
 512 467 512 467 512 451 c 128,-1,330
 512 435 512 435 511 424 c 0,331,332
 509 381 509 381 504 367 c 0,333,334
 496 347 496 347 494 332 c 0,335,336
 491 316 491 316 478 287 c 0,337,338
 466 265 466 265 466 260 c 128,-1,339
 466 255 466 255 463 249 c 0,340,341
 457 240 457 240 448 219 c 0,342,343
 430 186 430 186 425 179 c 0,344,345
 414 164 414 164 409 153 c 0,346,347
 402 135 402 135 380.5 107 c 128,-1,348
 359 79 359 79 353 79 c 128,-1,349
 347 79 347 79 337.5 73.5 c 128,-1,350
 328 68 328 68 322 67 c 0,351,352
 310 65 310 65 310 62 c 0,353,354
 310 58 310 58 263 53.5 c 128,-1,355
 216 49 216 49 188 49 c 2,356,-1
 180 49 l 2,357,358
 159 51 159 51 159 49 c 2,359,-1
 161 46 l 2,360,361
 165 40 165 40 171 40 c 0,362,363
 175 40 175 40 177 33 c 0,364,365
 179 27 179 27 190 21 c 0,366,367
 194 19 194 19 203.5 14 c 128,-1,368
 213 9 213 9 216 7 c 0,369,370
 230 -1 230 -1 264 -1 c 0,371,372
 302 -1 302 -1 329 8 c 0,373,374
 353 17 353 17 353 19 c 0,375,376
 353 22 353 22 360 22 c 0,377,378
 371 22 371 22 365 13 c 0,379,380
 362 9 362 9 357 6 c 0,381,382
 326 -13 326 -13 316 -13 c 0,383,384
 312 -13 312 -13 310 -17 c 0,385,386
 308 -27 308 -27 264 -27 c 0,387,388
 251 -27 251 -27 225 -19.5 c 128,-1,389
 199 -12 199 -12 196 -8 c 0,390,391
 194 -6 194 -6 194 -8 c 128,-1,392
 194 -10 194 -10 191 -7 c 0,393,394
 190 -4 190 -4 169 9 c 0,395,396
 146 24 146 24 133 38 c 0,397,398
 129 43 129 43 116 57 c 128,-1,399
 103 71 103 71 94 80.5 c 128,-1,400
 85 90 85 90 77.5 102 c 128,-1,401
 70 114 70 114 70 121 c 0,278,279
EndSplineSet
Validated: 1
Substitution2: "Single Substitution lookup 3 subtable" O.ss01
Substitution2: "Single Substitution lookup 2 subtable" O.ss01
EndChar

StartChar: P
Encoding: 80 80 52
Width: 515
GlyphClass: 2
Flags: W
LayerCount: 2
Fore
SplineSet
104 335 m 0,0,1
 104 341 104 341 101 341 c 0,2,3
 97 341 97 341 97 335 c 0,4,5
 97 330 97 330 101 330 c 0,6,7
 104 330 104 330 104 335 c 0,0,1
197 522 m 0,8,9
 196 535 196 535 192.5 534.5 c 128,-1,10
 189 534 189 534 189 520 c 0,11,12
 188 484 188 484 188 434 c 0,13,14
 188 358 188 358 196 358 c 0,15,16
 200 358 200 358 200 442 c 0,17,18
 200 501 200 501 197 522 c 0,8,9
256 673 m 128,-1,20
 256 676 256 676 252.5 676.5 c 128,-1,21
 249 677 249 677 245.5 675.5 c 128,-1,22
 242 674 242 674 241 671 c 0,23,24
 239 666 239 666 231 666 c 0,25,26
 225 666 225 666 221.5 661.5 c 128,-1,27
 218 657 218 657 207 634 c 0,28,29
 204 625 204 625 204 619 c 0,30,31
 204 614 204 614 206 604 c 128,-1,32
 208 594 208 594 208 586 c 0,33,34
 209 569 209 569 212 556 c 0,35,36
 217 522 217 522 220 403 c 2,37,-1
 223 328 l 1,38,-1
 240 329 l 2,39,40
 257 329 257 329 259 333 c 0,41,42
 260 335 260 335 280 344 c 2,43,-1
 299 353 l 2,44,45
 308 359 308 359 314 360 c 0,46,47
 323 362 323 362 323 367 c 0,48,49
 323 373 323 373 328 373 c 0,50,51
 334 373 334 373 339 379 c 128,-1,52
 344 385 344 385 356.5 409 c 128,-1,53
 369 433 369 433 369 437 c 128,-1,54
 369 441 369 441 380 454 c 0,55,56
 392 470 392 470 397 481 c 0,57,58
 404 496 404 496 408 496 c 128,-1,59
 412 496 412 496 416 517 c 0,60,61
 418 525 418 525 418 537 c 0,62,63
 418 552 418 552 410 589 c 0,64,65
 408 598 408 598 391.5 613 c 128,-1,66
 375 628 375 628 356 638 c 0,67,68
 305 666 305 666 296 666 c 0,69,70
 292 666 292 666 292 670 c 0,71,72
 292 672 292 672 286 672 c 0,73,74
 283 672 283 672 275.5 671 c 128,-1,75
 268 670 268 670 264 670 c 0,76,19
 256 670 256 670 256 673 c 128,-1,20
407 667 m 0,77,78
 396 680 396 680 389 680 c 128,-1,79
 382 680 382 680 392 675 c 0,80,81
 405 669 405 669 408 659 c 0,82,83
 414 648 414 648 416 648 c 0,84,85
 426 648 426 648 407 667 c 0,77,78
334 712 m 0,86,87
 328 717 328 717 326 716 c 0,88,89
 323 715 323 715 327 711 c 0,90,91
 329 709 329 709 333 709 c 0,92,93
 339 709 339 709 334 712 c 0,86,87
309 713 m 2,94,95
 312 711 312 711 317 713 c 1,96,97
 316 715 316 715 313 715 c 2,98,-1
 308 714 l 1,99,-1
 309 713 l 2,94,95
341 724 m 0,100,101
 341 726 341 726 339 726 c 0,102,103
 338 726 338 726 338 724 c 0,104,105
 338 723 338 723 339 723 c 0,106,107
 341 723 341 723 341 724 c 0,100,101
272 298 m 128,-1,109
 266 298 266 298 258 293 c 128,-1,110
 250 288 250 288 245 288 c 0,111,112
 238 288 238 288 228 282 c 0,113,114
 220 278 220 278 218 268 c 128,-1,115
 216 258 216 258 210 192 c 0,116,117
 207 167 207 167 207 143 c 0,118,119
 207 133 207 133 208.5 113 c 128,-1,120
 210 93 210 93 210 82 c 0,121,122
 210 46 210 46 205 41 c 0,123,124
 202 38 202 38 203 28.5 c 128,-1,125
 204 19 204 19 207 16 c 0,126,127
 209 14 209 14 209 9 c 0,128,129
 209 3 209 3 206 -9 c 128,-1,130
 203 -21 203 -21 203 -23 c 0,131,132
 203 -31 203 -31 200 -31 c 0,133,134
 196 -31 196 -31 194 -40 c 0,135,136
 193 -49 193 -49 184 -49 c 0,137,138
 178 -49 178 -49 173 -43 c 128,-1,139
 168 -37 168 -37 168 -28 c 0,140,141
 168 -21 168 -21 161 -12 c 0,142,143
 152 1 152 1 148 146 c 0,144,145
 148 192 148 192 143 207 c 0,146,147
 139 217 139 217 145 217 c 0,148,149
 154 217 154 217 145 242 c 0,150,151
 139 258 139 258 139 273 c 0,152,153
 139 287 139 287 136.5 292 c 128,-1,154
 134 297 134 297 126 300 c 0,155,156
 118 302 118 302 105 316 c 128,-1,157
 92 330 92 330 82 330 c 0,158,159
 68 330 68 330 56 339 c 128,-1,160
 44 348 44 348 44 358 c 0,161,162
 44 361 44 361 57 376 c 0,163,164
 67 387 67 387 72.5 389 c 128,-1,165
 78 391 78 391 98 391 c 2,166,-1
 125 392 l 1,167,-1
 124 408 l 2,168,169
 120 440 120 440 120 479 c 0,170,171
 120 541 120 541 131 588 c 0,172,173
 150 670 150 670 167 692 c 0,174,175
 179 706 179 706 194 706 c 0,176,177
 197 706 197 706 198 705 c 0,178,179
 202 701 202 701 214 712 c 0,180,181
 238 733 238 733 247 738 c 128,-1,182
 256 743 256 743 277 744 c 0,183,184
 305 746 305 746 305 743 c 0,185,186
 306 740 306 740 316 740 c 0,187,188
 327 740 327 740 337 736 c 0,189,190
 346 733 346 733 362.5 727 c 128,-1,191
 379 721 379 721 384.5 718 c 128,-1,192
 390 715 390 715 402 706.5 c 128,-1,193
 414 698 414 698 430 684 c 0,194,195
 460 657 460 657 466 613 c 0,196,197
 470 585 470 585 470 558 c 0,198,199
 470 523 470 523 461 502 c 0,200,201
 460 500 460 500 457 480 c 128,-1,202
 454 460 454 460 451 459 c 0,203,204
 446 454 446 454 445 444 c 0,205,206
 443 432 443 432 436 423.5 c 128,-1,207
 429 415 429 415 422 415 c 0,208,209
 417 415 417 415 416 413 c 128,-1,210
 415 411 415 411 415 404 c 2,211,-1
 415 395 l 2,212,213
 415 387 415 387 412.5 384 c 128,-1,214
 410 381 410 381 399 376 c 0,215,216
 383 368 383 368 380 360 c 0,217,218
 376 351 376 351 370 351 c 0,219,220
 365 351 365 351 353 341 c 128,-1,221
 341 331 341 331 341 327 c 128,-1,222
 341 323 341 323 337 323 c 0,223,224
 335 323 335 323 314.5 314 c 128,-1,225
 294 305 294 305 291 305 c 0,226,227
 287 305 287 305 282.5 301.5 c 128,-1,108
 278 298 278 298 272 298 c 128,-1,109
EndSplineSet
Validated: 1
Substitution2: "Single Substitution lookup 3 subtable" P.ss01
Substitution2: "Single Substitution lookup 2 subtable" P.ss01
EndChar

